<svg data-name="Layer 1" xmlns="http://www.w3.org/2000/svg" viewBox="0 0 320 600"><path d="M158.67 141.59a10.2 10.2 0 1 1 10.2-10.2 10.2 10.2 0 0 1-10.2 10.2M245 210.81l-47.71-13a20.49 20.49 0 0 1-15-21.27l3.77-50.62A14.77 14.77 0 0 0 171.38 110h-24.07a14.78 14.78 0 0 0-14.7 16l4.19 50.17a20.49 20.49 0 0 1-15 21.27L73 210.81a52.94 52.94 0 0 0-39 53.05l5 156.64c1.85 50.41 43.17 70.5 93.51 70.5h52.86c50.34 0 91.66-20.09 93.51-70.5l5-156.64A52.94 52.94 0 0 0 245 210.81m-5.59-72.27A38.64 38.64 0 0 0 252 108.77a2.6 2.6 0 0 0-2.26-2.47 38.16 38.16 0 0 0-30.54 10.07c-6.3 5.82-4.93 13.71.66 19.83s13.29 8.17 19.59 2.34" fill="#a76389" fill-rule="evenodd"/><path d="M230.36 168.51c-.92 3.41.26 7.55 2.4 11.23a54.71 54.71 0 0 0 8.31 10.16 25.3 25.3 0 0 0 5 4.25 13.47 13.47 0 0 0 9.46 1.58 16.09 16.09 0 0 0 7.33-4 12.45 12.45 0 0 0 3.52-4.62c2.27-5.71-1.95-13.74-8.18-18.61a40 40 0 0 0-17.43-7.64c-5.33-.83-9.2 3.16-10.4 7.63m47.57-41.42l-.76 6.87a34.8 34.8 0 0 0 31.6 38.37 2.45 2.45 0 0 0 2.68-2.16l.76-6.87a34.8 34.8 0 0 0-31.6-38.38 2.45 2.45 0 0 0-2.68 2.17M-3.86 485.28c7.61 5.86 15 8.91 24.79.71 7.87-6.59 11.82-15.86 11-23.82a5.21 5.21 0 0 0-2.74-3.95 1.34 1.34 0 0 1-.34-.29 1.44 1.44 0 0 1-.21-.41 5.18 5.18 0 0 0-3.28-3.52c-7.44-2.46-17.11-.34-25 6.25-9.79 8.2-8.33 16.23-4.24 25m128.23 83.3a1.9 1.9 0 0 0 2.5 1.31c9.41-3.07 18.51-10.93 24.18-21.61 4.17-7.84 1.25-14.4-4.93-17.64s-13.27-1.91-17.44 5.92c-5.68 10.69-7.07 22.58-4.31 32M22.18 541.21c9-4.85 16.49-1.15 20.24 5.67s4.34 15.47-4.64 20.32-19.28 3.25-23-3.58-1.54-17.56 7.43-22.41m46.95-8.38a1.91 1.91 0 0 0 2.61-1.12c3.5-9.22 3-21.2-1.91-32.3-3.6-8.14-10.63-10-17.09-7.2s-9.88 9.11-6.28 17.25c4.9 11.09 13.45 19.61 22.67 23.37" fill="#a76389" fill-rule="evenodd"/></svg>