<svg data-name="Layer 1" xmlns="http://www.w3.org/2000/svg" viewBox="0 0 320 600"><path d="M144.41 137.56c0-9 7-16.33 15.71-16.33s15.71 7.31 15.71 16.33-7 16.32-15.71 16.32-15.71-7.31-15.71-16.32zm101 89.68h.07C221.46 208 182 205.13 182 184.63c0-15.28 16-41.48 9.08-59.4-9.49-24.51-52.86-26.52-63-.64-7 17.91 7.33 37.95 6.71 53.23-.83 20.48-34.27 31.49-60.31 45.8h.11c-11.58 6.39-22.72 17.76-25.9 39.29-6.35 43-21.45 135-6 181.17s87.73 52.28 111.53 52.92c24.29.62 112.88-8.67 122.4-63.59 8.9-51.38 5.62-123.58-1.58-159.93-4.04-20.54-14.68-35.69-29.62-46.24z" fill="#de7c00" fill-rule="evenodd"/><path d="M244.85 118l-6.85 1a34.81 34.81 0 0 0-29.59 39.94 2.47 2.47 0 0 0 2.75 2.09l6.86-.93a34.81 34.81 0 0 0 29.59-39.94 2.47 2.47 0 0 0-2.75-2.09m35.28 110.81a1.91 1.91 0 0 0 2.61-1.12c3.5-9.22 3-21.2-1.91-32.3-3.6-8.14-10.63-10-17.09-7.2s-9.88 9.11-6.28 17.25c4.9 11.09 13.45 19.61 22.67 23.37m5.41-92c3.47.62 7.49-.91 11-3.37a54.18 54.18 0 0 0 9.4-9.16 24.66 24.66 0 0 0 3.8-5.35 13.4 13.4 0 0 0 .75-9.55 16 16 0 0 0-4.6-7 12.5 12.5 0 0 0-4.9-3.11c-5.89-1.76-13.52 3.15-17.84 9.78a39.94 39.94 0 0 0-6.09 18c-.35 5.39 4 8.89 8.52 9.7M120.41 538.34c1.82-3 1.83-7.32.78-11.45a55 55 0 0 0-5.19-12.06 25.11 25.11 0 0 0-3.64-5.46 13.4 13.4 0 0 0-8.65-4.12 16 16 0 0 0-8.14 1.8 12.51 12.51 0 0 0-4.66 3.47c-3.76 4.86-1.91 13.75 2.74 20.15a39.93 39.93 0 0 0 14.64 12.15c4.9 2.26 9.72-.51 12.11-4.48m-97.27-67.51a1.91 1.91 0 0 0 2.61-1.12c3.5-9.22 3-21.2-1.91-32.3-3.6-8.14-10.63-10-17.09-7.2s-9.88 9.11-6.28 17.25c4.9 11.09 13.45 19.61 22.67 23.37m28.05 77.38c9-4.85 16.49-1.15 20.24 5.67s4.34 15.47-4.64 20.32-19.28 3.25-23-3.58-1.54-17.56 7.43-22.41m8.71-57l-6.84-.88a34.62 34.62 0 0 0-39 29.88 2.4 2.4 0 0 0 2.09 2.66l6.84.88a34.63 34.63 0 0 0 39-29.88 2.41 2.41 0 0 0-2.09-2.66" fill="#de7c00" fill-rule="evenodd"/></svg>