<svg data-name="Layer 1" xmlns="http://www.w3.org/2000/svg"  viewBox="0 0 1800 1600"><path d="M1147.3 492.6c5 17.4 17.4 31.3 32.5 38a4.06 4.06 0 0 0 5-1.4c9.2-13.7 12.3-32 7.3-49.4-3.7-12.8-15.6-16.3-27.9-12.7s-20.6 12.8-16.9 25.5zm105.1-116.9l8 1.1a40.68 40.68 0 0 0 45.4-35.1c0-.3.1-.5.1-.8a2.88 2.88 0 0 0-2.4-3.2l-8-1.1a40.68 40.68 0 0 0-45.4 35.1c0 .2-.1.5-.1.7a2.82 2.82 0 0 0 2.25 3.28zm291.8-67.8l2.1-7.8a40.68 40.68 0 0 0-29-49.5c-.2-.1-.5-.1-.7-.2a2.88 2.88 0 0 0-3.5 2l-2.1 7.7a40.66 40.66 0 0 0 29.1 49.5c.2.1.5.1.7.2a2.68 2.68 0 0 0 3.36-1.76s.03-.04.04-.14zm-121.5-90.3l7.4-3.2a40.56 40.56 0 0 0 20.51-53.57c-.1-.2-.2-.5-.3-.7a2.87 2.87 0 0 0-3.7-1.5l-7.4 3.2a40.57 40.57 0 0 0-20.52 53.57 4.76 4.76 0 0 1 .3.7 2.75 2.75 0 0 0 3.56 1.56zM960.5 1268.9c-17.3-12.3-37.6-17.4-54.7-14.9a3.4 3.4 0 0 0-2.9 3.8v.2c3.2 17 14.7 34.5 32 46.8 12.7 9 24.7 5.5 31.8-4.4s6.4-22.5-6.2-31.5zm137.4-940.2l11.7 1.5c33 4.4 63-19.3 67-52.9a4.18 4.18 0 0 0-3.59-4.7l-11.7-1.5c-33-4.4-63 19.3-67 52.9a4.18 4.18 0 0 0 3.59 4.7zm-81.7-98.5l11.7-1.8c32.9-4.9 55.2-36 49.8-69.4a4.26 4.26 0 0 0-4.8-3.5l-11.7 1.8c-32.9 4.9-55.2 36-49.8 69.4a4.35 4.35 0 0 0 4.8 3.5zm542.7-84.9l7.2-9.4c20.4-26.3 15-64.2-12-84.5a4.27 4.27 0 0 0-5.9.7l-7.2 9.4c-20.4 26.3-15 64.2 12 84.5a4.27 4.27 0 0 0 5.9-.7zM1253 259.1a4.23 4.23 0 0 0 5.9-.3l7.8-8.9c22.1-24.9 19.3-63-6.2-85.2a4.23 4.23 0 0 0-5.9.3l-7.8 8.9c-22.1 24.9-19.4 63 6.2 85.2zM784.2 1259a23.12 23.12 0 0 0-12.7-10.5 27.75 27.75 0 0 0-14.3-.5 20.77 20.77 0 0 0-9.2 3.8c-8.3 6.5-8.9 22-3.8 34.6a68.19 68.19 0 0 0 19.4 26.3c7.2 5.8 16.4 3.2 22-2.3 4.3-4.3 6.1-11.4 6-18.7s-1.7-14.8-3.6-22.2a44 44 0 0 0-3.8-10.5zM1740 613.5c-15.4 8.4-14.4 23.4-8 35.2s19.3 18.3 34.7 9.8h.1c15.4-8.4 19.2-27.1 12.8-38.9s-24.2-14.5-39.6-6.1zm-29.6-390.2a3.46 3.46 0 0 0-4.7.9l-5.4 8c-15.1 22.5-8.6 52.9 14.5 67.9a3.46 3.46 0 0 0 4.7-.9l5.4-8c15-22.5 8.5-52.9-14.5-67.9zm-849.5 11.5a3.46 3.46 0 0 0-4.7.9l-5.4 8c-15.1 22.5-8.6 52.9 14.5 67.9a3.46 3.46 0 0 0 4.7-.9l5.4-8c15-22.5 8.5-52.9-14.5-67.9zm216.2 912.7l-11.7-1.5c-33-4.4-63 19.3-67 52.9a4.18 4.18 0 0 0 3.59 4.7l11.7 1.6c33 4.4 63-19.3 67-52.9a4.21 4.21 0 0 0-3.56-4.79zm-289.5 255.4l-11.7-1.5c-33-4.4-63 19.3-67 52.9a4.18 4.18 0 0 0 3.59 4.7l11.7 1.6c33 4.4 63-19.3 67-52.9a4.21 4.21 0 0 0-3.56-4.79zm950.7-923.8c12-8.6 16.3-23.2 5.4-38.6-14.9-21-36.2-35-56.8-38.9a4 4 0 0 0-4.8 3c0 .1-.1.3-.1.4-3.1 20.7 3.1 45.4 18 66.4 11 15.5 26.2 16.3 38.3 7.7zm93.6 345.9c-5.6-26.5-31.9-43.1-58.8-37a3.4 3.4 0 0 0-2.6 4l2 9.4c5.6 26.5 31.9 43.1 58.8 37a3.4 3.4 0 0 0 2.6-4zm-352.7-266.3a3.79 3.79 0 0 0 3.2 4.2l10.4 1.4c29.3 3.9 55.9-17.1 59.5-46.9a3.79 3.79 0 0 0-3.2-4.2l-10.4-1.4c-29.4-3.9-56 17.1-59.5 46.9zm-24.5-157.4a9 9 0 0 0 7.3-4.1c.2-.2.3-.4.6-.5a4.88 4.88 0 0 0 .7-.3 9 9 0 0 0 6.6-5c5.6-12.6 3.7-29.9-6.1-44.9-12.2-18.6-26.2-17.5-42.1-11.9v-.1c-11.4 12.3-18 24.7-5.8 43.3 9.8 15 25 23.5 38.8 23.5zM827 169.1a9 9 0 0 0 7.3-4.1c.2-.2.3-.4.6-.5a4.88 4.88 0 0 0 .7-.3 9 9 0 0 0 6.6-5c5.6-12.6 3.7-29.9-6.1-44.9-12.2-18.7-26.2-17.6-42.1-12v-.1c-11.4 12.3-18 24.7-5.8 43.3 9.9 15.1 25 23.6 38.8 23.6zm819.9 654.6c10.8 5.7 23.1 3.4 30.4-10.4 9.9-18.8 12.3-39.6 7.5-56.2a3.34 3.34 0 0 0-4.06-2.41c-.1 0-.2 0-.2.1-16.4 5.4-32.2 19.2-42.1 37.9-7.34 13.91-2.24 25.41 8.46 31.01zM1569.7 417a2.62 2.62 0 0 1 .6.5c.1.2.3.4.3.6a8.26 8.26 0 0 0 5.3 5.6c12.2 3.9 27.9.5 40.8-10 16-13.1 13.6-25.9 6.9-39.9-12.4-9.3-24.5-14.2-40.5-1.1-12.9 10.5-19.3 25.3-17.9 38a8.45 8.45 0 0 0 4.5 6.3zm-56.6 821.8l-11.7 1.6c-33 4.5-55.7 35.3-50.7 68.7a4.18 4.18 0 0 0 4.69 3.6l11.7-1.6c33-4.5 55.7-35.3 50.7-68.7a4.18 4.18 0 0 0-4.69-3.6zm-36.8 215l-6.7 9.8c-18.8 27.5-11.3 64.9 16.9 83.7a4.19 4.19 0 0 0 5.8-1.1l6.7-9.8c18.8-27.5 11.3-64.9-16.9-83.7a4.19 4.19 0 0 0-5.8 1.1zM1755 895.7c-13.4-10-26.4-15.3-43.7-1.2-13.9 11.3-20.8 27.3-19.3 41a8.83 8.83 0 0 0 4.8 6.7 2.62 2.62 0 0 1 .6.5 1.64 1.64 0 0 1 .4.7 9.17 9.17 0 0 0 5.7 6.1c13.1 4.2 30.1.6 44-10.8 17.2-14 14.7-27.9 7.5-43zm39.8-813.9c-13.4-10-26.4-15.3-43.7-1.2-13.9 11.3-20.8 27.3-19.3 41a8.83 8.83 0 0 0 4.8 6.7 2.62 2.62 0 0 1 .6.5 1.64 1.64 0 0 1 .4.7 9.17 9.17 0 0 0 5.7 6.1c13.1 4.2 30.1.6 44-10.8 17.3-14 14.7-27.8 7.5-43zm-12.1 1011.8l-4.9-6.3a40.63 40.63 0 0 0-57-6.4c-.2.2-.4.3-.6.5a3 3 0 0 0-.5 4h-.1l5 6.3c14 17.7 39.8 20.3 57.6 5.9a3 3 0 0 0 .5-4zm-463.3 410.5l-4.9-6.3a40.63 40.63 0 0 0-57-6.4c-.2.2-.4.3-.6.5a3 3 0 0 0-.5 4h-.1l5 6.3c14 17.7 39.8 20.3 57.6 5.9a3 3 0 0 0 .5-4zm263.8-117.6l2.6-7.5a40.68 40.68 0 0 0-25.5-51.4 1.94 1.94 0 0 0-.7-.2 2.83 2.83 0 0 0-3.59 1.77v-.07l-2.6 7.6a40.5 40.5 0 0 0 25.42 51.34l.78.26a2.83 2.83 0 0 0 3.59-1.77zm83 96.8a4.16 4.16 0 0 0 5.56 1.92l10.6-5.3c29.8-14.9 41.4-51.3 25.9-81.4a4.16 4.16 0 0 0-5.56-1.92l-10.6 5.3c-29.8 14.9-41.4 51.3-25.9 81.4zm36.2-232.9a3.38 3.38 0 0 0-4.4 1.8c0 .1 0 .1-.1.2-6 16.2-5.2 37.1 3.4 56.6 6.2 14.3 18.4 17.5 29.5 12.6s17.1-16 10.9-30.3c-8.5-19.4-23.3-34.3-39.3-40.9zm174-903.9l-8.8-7.3c-24.8-20.5-61.5-16.4-81.9 9a4.09 4.09 0 0 0 .5 5.7l8.8 7.3c24.8 20.5 61.5 16.4 81.9-9a4.1 4.1 0 0 0-.5-5.7zm-47.1 805.7c-6.1-1.1-13.1 1.6-19.1 5.9s-11.3 10.1-16.4 16a44 44 0 0 0-6.6 9.4 23.51 23.51 0 0 0-1.3 16.7 28.61 28.61 0 0 0 8 12.2 20.93 20.93 0 0 0 8.6 5.4c10.3 3.1 23.5-5.5 31.1-17.1a69.85 69.85 0 0 0 10.6-31.6c.6-9.3-7-15.5-14.9-16.9zm39.6-665.2l-11.7-1.6c-33-4.4-63 19.3-67 52.9a4.18 4.18 0 0 0 3.59 4.7l11.7 1.6c33 4.4 63-19.3 67-52.9a4.18 4.18 0 0 0-3.59-4.7zm-224.5 157.8a63.71 63.71 0 0 0 9.7-29c.6-8.7-6.3-14.3-13.6-15.6v-.1c-5.6-1-12 1.5-17.6 5.4s-10.4 9.3-15.1 14.7a43.53 43.53 0 0 0-6.1 8.6 21.58 21.58 0 0 0-1.2 15.4 25.66 25.66 0 0 0 7.4 11.2 19.74 19.74 0 0 0 7.8 5c9.5 2.9 21.7-5 28.7-15.6zM1329.8 119a63.71 63.71 0 0 0 9.7-29c.6-8.7-6.3-14.3-13.6-15.6v-.1c-5.6-1-12 1.5-17.6 5.4s-10.4 9.3-15.1 14.7a43.53 43.53 0 0 0-6.1 8.6 21.58 21.58 0 0 0-1.2 15.4 25.66 25.66 0 0 0 7.4 11.2 19.74 19.74 0 0 0 7.8 5c9.5 3 21.7-4.9 28.7-15.6zm-84.5 1122.3c-15.4 8.4-14.4 23.4-8 35.2s19.3 18.3 34.7 9.9h.1c15.4-8.4 19.2-27.1 12.8-38.9s-24.2-14.7-39.6-6.2zm80.9 134.7c2.4 17.4 16.7 21.8 30.1 20s23.9-11.5 21.6-28.9v-.1c-2.4-17.4-18.4-27.6-31.8-25.8s-22.3 17.3-19.9 34.8zm-287.4 102c-15.4 8.4-14.4 23.4-8 35.2s19.3 18.3 34.7 9.9h.1c15.4-8.4 19.2-27.1 12.8-38.9s-24.2-14.6-39.6-6.2zm154.5-139.7a4.23 4.23 0 0 0-5.9.3l-7.8 8.8c-22.1 24.9-19.3 63 6.2 85.2a4.23 4.23 0 0 0 5.9-.3l7.8-8.9c22.1-24.8 19.3-63-6.2-85.1zm481.8-309.1a2.83 2.83 0 0 0-3.46-2l-7.8 2a40.6 40.6 0 0 0-28.7 49.7c.1.2.1.5.2.7a2.83 2.83 0 0 0 3.46 2l7.8-2a40.54 40.54 0 0 0 28.7-49.6 1.86 1.86 0 0 1-.2-.8zm-652.3 289.6c-10.3 6.5-14.5 18.3-6.2 31.5 11.3 17.9 28.1 30.5 44.8 34.6h.1a3.35 3.35 0 0 0 4.1-2.2c0-.1.1-.3.1-.4 3.5-16.9-.5-37.5-11.8-55.4-8.3-13.2-20.8-14.6-31.1-8.1zm-141.9 54.8c-10.3 6.5-14.5 18.3-6.2 31.5 11.3 17.9 28.1 30.5 44.8 34.6h.1a3.35 3.35 0 0 0 4.1-2.2c0-.1.1-.3.1-.4 3.5-16.9-.5-37.5-11.8-55.4-8.3-13.3-20.8-14.7-31.1-8.1zM1091 429l-3.4-9.9c-9.7-27.9-40.4-42.3-68.6-32.1a3.66 3.66 0 0 0-2.2 4.7h-.1l3.5 9.9c9.7 27.9 40.4 42.3 68.6 32.1a3.66 3.66 0 0 0 2.2-4.7zm550 748.1c-15 13.7-22.7 33-21.9 51.5a4.51 4.51 0 0 0 3.9 4.3c18.3 2.4 38.2-3.7 53.1-17.4 11-10.1 8.6-23.7-1.1-34.3s-23.1-14.2-34-4.1z" fill="#a76389"/><path d="M1508 634.2l-93.7-25.6a40.31 40.31 0 0 1-29.5-41.7l7.4-99.4a29 29 0 0 0-26.7-31.1 14.73 14.73 0 0 0-2.2-.1H1316a29 29 0 0 0-29 29 19.27 19.27 0 0 0 .1 2.4l8.2 98.5a40.23 40.23 0 0 1-29.5 41.8l-95.8 26.2a103.93 103.93 0 0 0-76.4 104.1l9.9 307.5c3.6 99 84.8 138.4 183.6 138.4h103.8c98.8 0 180-39.4 183.6-138.4l9.9-307.5a103.93 103.93 0 0 0-76.4-104.1zm-149.7-155.9a20 20 0 1 1-20-20 20 20 0 0 1 20 20z" fill="#a76389"/></svg>