<svg data-name="Layer 1" xmlns="http://www.w3.org/2000/svg" viewBox="0 0 320 600"><path d="M233.76 209.81c21.88 2.17 39 23.33 39 46.67v195.13c0 24.79-19.32 44.89-43.15 44.89H89.91c-23.83 0-43.15-20.1-43.15-44.89V256.48c0-23.37 17.18-44.56 39.12-46.68 4.84-.65 50.5-2.15 50.5-27.18 0-19.2-6.84-17.08-6.84-44.83 0-17.21 12.48-30.89 29.4-32.22v-.07h1.71v.07c16.92 1.33 29.4 15 29.4 32.22 0 27.75-7 25.63-6.83 44.83.17 23.59 45.95 26.58 50.54 27.19zm-73.54-58.13c8 .13 14.61-6.64 14.78-15.12s-6.18-15.45-14.18-15.58-14.61 6.64-14.77 15.11 6.18 15.45 14.17 15.59z" fill="#00bab3" fill-rule="evenodd"/><path d="M238.55 194.37c3.17.57 6.83-.84 10-3.11a49.45 49.45 0 0 0 8.57-8.43 23.42 23.42 0 0 0 3.46-4.93 12.51 12.51 0 0 0 .68-8.8 14.77 14.77 0 0 0-4.19-6.41 11.5 11.5 0 0 0-4.48-2.86c-5.36-1.62-12.32 2.9-16.26 9a37.17 37.17 0 0 0-5.55 16.6c-.32 5 3.61 8.19 7.77 8.93m11.32-104.8l-6.12-.8a31.12 31.12 0 0 0-35 27.24 2.18 2.18 0 0 0 1.87 2.42l6.13.8a31.13 31.13 0 0 0 35-27.24 2.18 2.18 0 0 0-1.88-2.42m45.49 30.79l-3 4.62a28.5 28.5 0 0 0 8.16 39.2 1.92 1.92 0 0 0 2.67-.54l3-4.62a28.49 28.49 0 0 0-8.16-39.2 1.91 1.91 0 0 0-2.66.54M-5.1 426.78c7.61 5.86 15 8.91 24.8.71 7.87-6.59 11.82-15.86 10.94-23.82a5.22 5.22 0 0 0-2.73-3.95 1.19 1.19 0 0 1-.34-.29 1.25 1.25 0 0 1-.22-.41 5.18 5.18 0 0 0-3.23-3.53c-7.44-2.46-17.1-.34-25 6.25-9.8 8.2-8.34 16.23-4.25 25m65.51 85.07l-2.95-3.62c-8.29-10.16-23.54-11.67-34.06-3.37a1.6 1.6 0 0 0-.28 2.29l2.95 3.62c8.28 10.16 23.54 11.67 34.06 3.37a1.62 1.62 0 0 0 .28-2.29m-27.56-67.3l-4.54 1.2a23.77 23.77 0 0 0-16.66 29.51 1.69 1.69 0 0 0 2 1.19l4.54-1.19a23.77 23.77 0 0 0 16.65-29.52 1.67 1.67 0 0 0-2-1.19m258-217.77c7.61 5.86 15 8.91 24.8.71 7.87-6.59 11.82-15.86 10.94-23.82a5.22 5.22 0 0 0-2.73-3.95 1.19 1.19 0 0 1-.34-.29 1.25 1.25 0 0 1-.22-.41 5.18 5.18 0 0 0-3.23-3.53c-7.44-2.46-17.1-.34-25 6.25-9.8 8.2-8.34 16.23-4.25 25M118.55 557.45a2.27 2.27 0 0 0 2.76-2c1.79-12-1.77-26.26-10.23-38.39-6.2-8.9-14.86-9.36-21.69-4.41s-9.26 13.42-3.06 22.35c8.47 12.13 20.54 20.26 32.22 22.48m159.59-453.4a1.89 1.89 0 0 0 2.49 1.31c9.41-3.07 18.51-10.93 24.19-21.61 4.16-7.84 1.24-14.4-4.93-17.64s-13.28-1.91-17.45 5.92c-5.67 10.69-7.07 22.58-4.3 32" fill="#00bab3" fill-rule="evenodd"/></svg>