<svg data-name="Layer 1" xmlns="http://www.w3.org/2000/svg" viewBox="0 0 300 300"><path d="M152.43 52.4C132.31 96.29 81.15 115.34 38.17 95l-15.28-7.31a6 6 0 0 1-2.83-8c20.12-43.85 71.28-62.9 114.26-42.51l15.28 7.25a6 6 0 0 1 2.83 7.97zm99.85 166c18.46 13.49 22.46 39 8.93 57.06l-4.82 6.41a2.86 2.86 0 0 1-4 .56C234 269 230 243.42 243.5 225.41l4.82-6.41a2.84 2.84 0 0 1 3.96-.56zm11-152.54c17.48 33.05 5.08 73.47-27.7 90.27l-11.66 6a4.67 4.67 0 0 1-6.23-2c-17.48-33-5.08-73.46 27.7-90.26l11.66-6a4.67 4.67 0 0 1 6.2 2.03zM154.86 193.42c-10.51 17.79-27.29 19.11-40.77 11.07S90.73 182 101.24 164.17s30-25.69 43.43-17.65 20.69 29.12 10.19 46.9z" fill="#e4e2db" fill-opacity=".4" fill-rule="evenodd"/></svg>