<svg data-name="Layer 1" xmlns="http://www.w3.org/2000/svg" viewBox="0 0 300 300"><path d="M49.49 147.54c39.38 18.06 56.48 64 38.18 102.52l-6.51 13.71a5.4 5.4 0 0 1-7.16 2.54c-39.38-18.05-56.48-64-38.18-102.52l6.51-13.71a5.41 5.41 0 0 1 7.16-2.54zM198.47 58a36.31 36.31 0 0 1 51.2-8l5.75 4.32a2.56 2.56 0 0 1 .5 3.55 36.31 36.31 0 0 1-51.2 8L199 61.51a2.56 2.56 0 0 1-.53-3.51zM61.61 48.11c29.65-15.68 65.92-4.56 81 24.86L148 83.43a4.2 4.2 0 0 1-1.84 5.57c-29.65 15.68-65.91 4.56-81-24.86L59.81 53.7a4.19 4.19 0 0 1 1.8-5.59zM177 134.37c16 9.43 17.17 24.48 10 36.63s-20.23 21-36.18 11.53-23-26.88-15.84-39 26.09-18.59 42.02-9.16z" fill="#e4e2db" fill-opacity=".4" fill-rule="evenodd"/></svg>