<?xml version="1.0" encoding="UTF-8"?> <!-- Generator: Adobe Illustrator 24.0.1, SVG Export Plug-In . SVG Version: 6.00 Build 0) --> <svg xmlns="http://www.w3.org/2000/svg" xmlns:xlink="http://www.w3.org/1999/xlink" id="Layer_1" x="0px" y="0px" viewBox="0 0 394 788" style="enable-background:new 0 0 394 788;" xml:space="preserve"> <style type="text/css"> .st0{fill:none;stroke:#FF4713;stroke-width:3.1042;stroke-linecap:round;stroke-linejoin:round;stroke-miterlimit:10;} .st1{fill:#FF4713;} .st2{fill:none;stroke:#FFB600;stroke-width:3.1042;stroke-linecap:round;stroke-linejoin:round;stroke-miterlimit:10;} .st3{fill:#FFB600;} .st4{fill:none;stroke:#FF671D;stroke-width:3.1042;stroke-linecap:round;stroke-linejoin:round;stroke-miterlimit:10;} .st5{fill:#FF671D;} .st6{fill:none;} .st7{fill:none;stroke:#00953B;stroke-width:3.1042;stroke-linecap:round;stroke-linejoin:round;stroke-miterlimit:10;} .st8{fill:#00953B;} .st9{fill:none;stroke:#A8AD00;stroke-width:3.1042;stroke-linecap:round;stroke-linejoin:round;stroke-miterlimit:10;} .st10{fill:#A8AD00;} .st11{fill:none;stroke:#CC3362;stroke-width:3.1042;stroke-linecap:round;stroke-linejoin:round;stroke-miterlimit:10;} .st12{fill:#CC3362;} .st13{fill:#00ACD8;} .st14{fill:none;stroke:#00ACD8;stroke-width:3.1042;stroke-linecap:round;stroke-linejoin:round;stroke-miterlimit:10;} </style> <path class="st2" d="M157.77,649.12c0,0-21.98,10.03-12.84,38.3"></path> <g> <path class="st3" d="M163.35,656.71c-0.62-0.29-0.99-0.96-0.88-1.66l1.46-8.9c0.18-1.08-0.5-2.12-1.57-2.39l-7.6-1.93 c-0.92-0.23-1.43-1.23-1.04-2.14c0.31-0.71,1.13-1.04,1.88-0.85l10.77,2.74c0.78,0.2,1.28,0.96,1.15,1.76l-2,12.22 c-0.14,0.85-0.94,1.42-1.78,1.28C163.61,656.81,163.48,656.77,163.35,656.71z"></path> </g> <g> <path class="st6" d="M37.78,743.41c0,0,111.15-44.77,249.58-32.78"></path> <path class="st3" d="M107.02,717.76c-0.27,0.06-0.42-0.07-0.47-0.3c-0.1-0.46-0.36-0.64-0.73-0.56c-0.44,0.1-0.62,0.46-0.46,1.19 l1.09,4.93c0.07,0.31-0.02,0.47-0.32,0.54l-2.36,0.52c-0.31,0.07-0.45-0.04-0.52-0.35l-1.93-8.71c-0.07-0.31,0.02-0.47,0.33-0.53 l1.84-0.41c0.33-0.07,0.47-0.06,0.67,0.13c0.08,0.08,0.18,0.16,0.31,0.13c0.1-0.02,0.18-0.08,0.35-0.22c0.46-0.38,1-0.76,1.5-0.88 c1.57-0.35,2.77,0.5,3.26,2.7l0.17,0.75c0.07,0.31-0.02,0.47-0.32,0.54L107.02,717.76z"></path> <path class="st3" d="M114.72,717.7c-0.35,0.07-0.26,0.38-0.03,0.53c0.35,0.25,0.9,0.3,1.46,0.18s0.92-0.39,1.26-0.8 c0.16-0.19,0.38-0.32,0.67-0.18l2.13,0.99c0.18,0.08,0.28,0.27,0.16,0.49c-0.81,1.61-2.26,2.29-3.65,2.57 c-2.74,0.56-5.36-0.87-5.98-3.93c-0.63-3.08,1.2-5.52,3.93-6.08c2.7-0.55,5.36,0.97,5.97,3.96l0.12,0.58 c0.06,0.31-0.03,0.47-0.33,0.53L114.72,717.7z M116.92,715.3c0.36-0.1,0.25-0.35,0.03-0.53c-0.43-0.31-1-0.38-1.54-0.27 c-0.54,0.11-1.04,0.39-1.31,0.85c-0.13,0.25-0.13,0.53,0.24,0.47L116.92,715.3z"></path> <path class="st3" d="M121.92,717.02c-0.36-1.93,0.85-3.56,3-3.96c0.68-0.13,1.35-0.07,1.83,0.08c0.17,0.05,0.34,0.09,0.43,0.08 c0.12-0.02,0.13-0.15,0.11-0.28c-0.09-0.48-0.93-0.79-2.14-0.56c-0.85,0.16-1.42,0.41-1.96,0.67c-0.2,0.1-0.47,0.17-0.6-0.13 l-0.87-1.86c-0.13-0.28-0.09-0.48,0.19-0.6c0.85-0.38,1.89-0.79,3.3-1.06c3.01-0.56,4.81,0.46,5.4,3.65l0.92,4.93 c0.06,0.31-0.04,0.45-0.34,0.51l-1.74,0.33c-0.39,0.07-0.57,0.07-0.72-0.12c-0.1-0.12-0.19-0.18-0.33-0.16 c-0.15,0.03-0.27,0.15-0.57,0.37c-0.33,0.26-0.95,0.6-1.72,0.74C123.95,720.04,122.28,718.95,121.92,717.02z M127.83,715.91 c-0.1-0.52-0.67-0.78-1.5-0.62c-0.83,0.16-1.27,0.6-1.17,1.12c0.1,0.52,0.67,0.77,1.5,0.62 C127.49,716.88,127.93,716.44,127.83,715.91z"></path> <path class="st3" d="M137.49,707.63c0.19,0.05,0.27,0.05,0.35,0.04c0.17-0.03,0.23-0.18,0.19-0.39l-0.57-3.37 c-0.05-0.31,0.04-0.47,0.35-0.52l2.38-0.4c0.31-0.05,0.45,0.06,0.5,0.37l2.14,12.67c0.05,0.31-0.04,0.47-0.35,0.52l-1.8,0.3 c-0.33,0.06-0.53,0.07-0.7-0.14c-0.12-0.14-0.21-0.18-0.33-0.16c-0.1,0.02-0.22,0.1-0.33,0.17c-0.39,0.3-1.03,0.73-1.88,0.88 c-2.54,0.43-4.85-1.21-5.37-4.28c-0.52-3.06,1.12-5.37,3.66-5.8C136.45,707.41,137.01,707.51,137.49,707.63z M138.87,712.18 c-0.18-1.05-1.02-1.64-2-1.47c-0.99,0.17-1.58,1-1.41,2.05c0.18,1.05,1.01,1.64,2,1.48S139.05,713.23,138.87,712.18z"></path> <path class="st3" d="M149.62,719.69c-0.15,0.48-0.31,0.58-0.76,0.65l-2.47,0.37c-0.37,0.05-0.5-0.18-0.41-0.48l1.7-5.14 c0.04-0.13,0.05-0.23,0.03-0.3c-0.01-0.1-0.05-0.17-0.1-0.24l-5.07-7.45c-0.16-0.23-0.1-0.5,0.31-0.56l2.39-0.36 c0.45-0.07,0.64,0,0.92,0.42l2.48,3.66c0.15,0.23,0.47,0.19,0.54-0.08l1.3-4.23c0.15-0.48,0.31-0.6,0.75-0.67l2.45-0.37 c0.41-0.06,0.49,0.2,0.41,0.47L149.62,719.69z"></path> <path class="st3" d="M159.06,707.45c-0.31,0.04-0.46-0.06-0.5-0.37l-0.3-2.36c-0.04-0.31,0.06-0.44,0.39-0.49l1.11-0.14 c0.31-0.04,0.41-0.19,0.37-0.5l-0.38-3c-0.04-0.31,0.06-0.46,0.37-0.5l2.4-0.31c0.31-0.04,0.45,0.08,0.49,0.39l0.38,3 c0.04,0.31,0.17,0.43,0.49,0.39l2.22-0.28c0.31-0.04,0.46,0.06,0.5,0.37l0.3,2.36c0.04,0.31-0.08,0.45-0.39,0.49l-2.22,0.28 c-0.31,0.04-0.41,0.19-0.37,0.5l0.72,5.63c0.04,0.31-0.06,0.46-0.37,0.5l-2.4,0.31c-0.31,0.04-0.45-0.08-0.49-0.39l-0.72-5.63 c-0.04-0.31-0.17-0.43-0.49-0.39L159.06,707.45z"></path> <path class="st3" d="M178.22,706.86c0.35,3.13-1.74,5.34-4.58,5.65c-2.83,0.31-5.36-1.38-5.7-4.51c-0.35-3.13,1.74-5.34,4.57-5.65 C175.35,702.04,177.87,703.74,178.22,706.86z M174.8,707.24c-0.12-1.04-0.92-1.7-1.92-1.59c-1,0.11-1.64,0.93-1.52,1.97 s0.92,1.7,1.92,1.59C174.27,709.1,174.91,708.28,174.8,707.24z"></path> <path class="st3" d="M188.33,705.38c-0.27,0.02-0.41-0.12-0.43-0.36c-0.04-0.47-0.28-0.69-0.65-0.65 c-0.45,0.04-0.68,0.38-0.61,1.12l0.44,5.03c0.03,0.31-0.08,0.46-0.39,0.49l-2.41,0.21c-0.31,0.03-0.44-0.1-0.47-0.41l-0.79-8.89 c-0.03-0.31,0.08-0.46,0.39-0.49l1.88-0.17c0.33-0.03,0.47,0,0.65,0.22c0.07,0.09,0.15,0.18,0.29,0.17 c0.1-0.01,0.19-0.06,0.38-0.17c0.5-0.32,1.09-0.63,1.6-0.67c1.61-0.14,2.68,0.85,2.88,3.1l0.07,0.76c0.03,0.31-0.08,0.46-0.39,0.49 L188.33,705.38z"></path> <path class="st3" d="M202.38,704.86c0.22,3.14-1.95,5.26-4.79,5.47s-5.3-1.59-5.52-4.73s1.95-5.26,4.79-5.47 C199.7,699.93,202.16,701.72,202.38,704.86z M198.95,705.11c-0.08-1.04-0.85-1.73-1.85-1.66s-1.67,0.87-1.6,1.91 s0.85,1.73,1.85,1.66C198.35,706.94,199.02,706.15,198.95,705.11z"></path> <path class="st3" d="M203.43,696.41c-0.02-0.31,0.09-0.46,0.41-0.48l2.41-0.14c0.31-0.02,0.44,0.11,0.46,0.43l0.74,12.84 c0.02,0.31-0.09,0.46-0.41,0.48l-2.41,0.14c-0.31,0.02-0.44-0.11-0.46-0.43L203.43,696.41z"></path> <path class="st3" d="M208.86,696.1c-0.02-0.31,0.1-0.46,0.41-0.47l2.42-0.12c0.31-0.02,0.44,0.12,0.45,0.43l0.63,12.85 c0.02,0.31-0.09,0.46-0.41,0.47l-2.42,0.12c-0.32,0.02-0.44-0.12-0.46-0.43L208.86,696.1z"></path> </g> <g> <path class="st3" d="M383.46,495.75c0,0,3.63-20.04-7.34-23.24s-21.29,8.08-17.48,17.14C362.45,498.7,370.69,503.65,383.46,495.75z "></path> <path class="st3" d="M61.85,515.77c0,0,15.58,27.94,32.09,20.89c16.51-7.05,17.78-31.04,4.13-38.24S69.47,493.43,61.85,515.77z"></path> <path class="st3" d="M322.12,526.68c0,0,8.37-12.18-0.92-17.55s-19.85-1.02-22.14,14.05C296.77,538.27,318.71,537.67,322.12,526.68 z"></path> <path class="st3" d="M97.97,568.16c0,0-8.42-2.04-12.63,6.73s11.23,14.62,15.44,8.42C104.99,577.11,104.99,572.31,97.97,568.16z"></path> <path class="st3" d="M204.65,628.06c0,0-2.27,13.31,11.34,18.13c13.61,4.82,30.28-18.13,12.97-29.48S204.65,628.06,204.65,628.06z"></path> <path class="st3" d="M293.56,624.64c0,0,5.66,12.53,14.41,7.73c8.75-4.8,10.38-15.31-0.51-24.4S286.46,616.63,293.56,624.64z"></path> <path class="st3" d="M102.48,457.64c0,0,9.49-9.55,1.22-22.21c-8.27-12.66-28.48,3.16-23.62,13.75 C84.94,459.76,91.31,463.62,102.48,457.64z"></path> <path class="st3" d="M373.08,614.25c0,0,5.08-7.4-0.56-10.66c-5.64-3.26-12.06-0.62-13.45,8.54S371,620.93,373.08,614.25z"></path> <path class="st3" d="M384.04,417.84c0,0-7.34-3.36-9.35,2.14c-2.02,5.5,1.31,10.78,9.64,10.59S390.27,418.65,384.04,417.84z"></path> <path class="st3" d="M334.85,541.22c0,0-3.5,20.54,17.5,27.98c21,7.44,46.72-27.98,20.01-45.49 C345.65,506.2,334.85,541.22,334.85,541.22z"></path> <path class="st3" d="M317.79,453.8c0,0-2.17,12.73,10.85,17.35c13.02,4.62,28.97-17.35,12.41-28.21 C324.49,432.08,317.79,453.8,317.79,453.8z"></path> <path class="st3" d="M30.19,549.58c0,0-16.73-4.06-25.1,13.37C-3.28,580.37,27.4,592,35.77,579.68S44.13,557.83,30.19,549.58z"></path> <path class="st3" d="M90,641.69c0,0,13.82,16.02,24.64,5.12s8.65-27.13-11.41-35.79S76.02,632.96,90,641.69z"></path> <path class="st3" d="M43.95,420.65c0,0-7.04-1.71-10.57,5.63c-3.52,7.33,9.39,12.23,12.91,7.04 C49.82,428.13,49.82,424.12,43.95,420.65z"></path> </g> </svg> 