<?xml version="1.0" encoding="UTF-8"?> <svg xmlns="http://www.w3.org/2000/svg" id="Layer_2" data-name="Layer 2" viewBox="0 0 394 788"><title>cinnamon and raisin graphic</title><path d="M114.59,632.2c-4.34-1.93-10.09-1.22-15.43.88s-10.38,5.49-15.26,9a33.81,33.81,0,0,0-6.71,5.8,18.21,18.21,0,0,0-4.08,12.29,21.61,21.61,0,0,0,3.73,10.63,17,17,0,0,0,5.41,5.67c7.11,4.23,18.68.25,26.48-7.06a54.31,54.31,0,0,0,13.82-21.69c2.22-7-2.27-13-8-15.5M369.42,459.9a7.75,7.75,0,0,0,5.57-1.59,27.62,27.62,0,0,0,4.85-4.54,12.58,12.58,0,0,0,2-2.67,6.81,6.81,0,0,0,.48-4.83,8,8,0,0,0-2.24-3.58,6.28,6.28,0,0,0-2.44-1.63c-2.95-1-6.85,1.44-9.11,4.75a20.42,20.42,0,0,0-3.27,9.07c-.24,2.73,1.89,4.55,4.18,5m-311.56-.75c.72-2.13.12-4.8-1.12-7.22a34.8,34.8,0,0,0-4.94-6.76,15.37,15.37,0,0,0-3-2.88,8.65,8.65,0,0,0-6-1.36,10.37,10.37,0,0,0-4.85,2.26,8,8,0,0,0-2.42,2.8c-1.67,3.54.74,8.8,4.54,12.13a25.75,25.75,0,0,0,10.87,5.5c3.38.72,6-1.67,6.94-4.47M360.4,623.57c2.13-.71,4.8-.11,7.22,1.13a34.33,34.33,0,0,1,6.76,4.93,15.94,15.94,0,0,1,2.88,3,8.67,8.67,0,0,1,1.36,6,10.34,10.34,0,0,1-2.26,4.84,8,8,0,0,1-2.8,2.43c-3.54,1.66-8.8-.74-12.13-4.55a25.71,25.71,0,0,1-5.5-10.86c-.72-3.39,1.67-6,4.47-6.95M115.84,537c-2-3.21-6-5.31-10.48-6.31a57.78,57.78,0,0,0-14-1,26.74,26.74,0,0,0-7,.8,14.47,14.47,0,0,0-8.17,6.21,17.29,17.29,0,0,0-2.3,8.62,13.55,13.55,0,0,0,1,6.12C77.7,557.45,87,560,95.4,558.72a43,43,0,0,0,18.73-8c4.56-3.56,4.3-9.49,1.71-13.69m198.84-43.75c3.71.66,8-1,11.69-3.62a58.37,58.37,0,0,0,10-9.81,27,27,0,0,0,4.05-5.73,14.45,14.45,0,0,0,.79-10.23,17,17,0,0,0-4.9-7.46,13.39,13.39,0,0,0-5.23-3.32c-6.27-1.89-14.41,3.36-19,10.47a43,43,0,0,0-6.49,19.31c-.37,5.76,4.22,9.52,9.08,10.39M233.23,675.63c1.94-3.23,1.92-7.81.77-12.21a58.36,58.36,0,0,0-5.62-12.85,27,27,0,0,0-3.92-5.81,14.44,14.44,0,0,0-9.29-4.38,17.13,17.13,0,0,0-8.71,1.94,13.39,13.39,0,0,0-5,3.71c-4,5.2-2,14.67,3.05,21.49a42.94,42.94,0,0,0,15.75,12.91c5.26,2.4,10.4-.56,12.93-4.8M15.11,604.57C8,593.7,12,583.82,20.37,578.4s19.3-7,26.37,3.86,6,24.08-2.3,29.5-22.26,3.68-29.33-7.19m354.7-100.74c6.08,5.32,5.36,11.92,1.29,16.58s-10.38,7.47-16.46,2.15-7.7-13.4-3.62-18.06,12.72-6,18.79-.67M331.58,557.1c11.79-6.43,21.67-1.52,26.6,7.53s5.7,20.49-6.09,26.92-25.35,4.3-30.28-4.74-2-23.28,9.77-29.71m-26.26,74.7c-11.79-6.43-21.68-1.52-26.6,7.52s-5.7,20.49,6.09,26.92,25.35,4.31,30.27-4.74,2-23.28-9.76-29.7M97.92,614.31a7.74,7.74,0,0,0,5.57-1.58,27.62,27.62,0,0,0,4.85-4.54,12.58,12.58,0,0,0,2-2.67,6.81,6.81,0,0,0,.48-4.83,8,8,0,0,0-2.24-3.58,6.28,6.28,0,0,0-2.44-1.63c-3-1-6.85,1.44-9.11,4.75a20.42,20.42,0,0,0-3.27,9.07c-.24,2.73,1.89,4.55,4.18,5m209.35-85.42c6.07,5.32,5.36,11.92,1.28,16.58s-10.38,7.47-16.46,2.15-7.69-13.4-3.62-18.06,12.72-6,18.8-.67M101.32,474.56c7.92,1.56,10.61,7.62,9.42,13.7s-5.23,11.67-13.15,10.12-13.39-7.74-12.2-13.82,8-11.55,15.93-10" style="fill:#a76389;fill-rule:evenodd"></path><path d="M156.47,743.34a.36.36,0,0,1-.51-.25c-.15-.46-.44-.62-.8-.49s-.58.53-.34,1.25l1.64,4.87c.1.31,0,.48-.27.58l-2.34.78c-.3.1-.46,0-.56-.3l-2.89-8.61c-.1-.3,0-.47.27-.57l1.83-.61c.32-.11.46-.12.69.06a.36.36,0,0,0,.33.1.88.88,0,0,0,.34-.26,4,4,0,0,1,1.42-1c1.55-.52,2.85.21,3.58,2.39l.25.74c.1.3,0,.47-.27.57Zm9.86-.65c-.15-.52-.76-.71-1.58-.46s-1.21.75-1.05,1.27.76.7,1.58.45,1.21-.75,1.05-1.26m-5.85,1.79a3.43,3.43,0,0,1,2.58-4.35,4.2,4.2,0,0,1,1.86-.13,1.24,1.24,0,0,0,.45,0c.12,0,.12-.16.08-.3-.15-.47-1-.68-2.23-.31a7.35,7.35,0,0,0-1.9.89c-.2.13-.46.23-.63-.06l-1.09-1.77c-.16-.27-.15-.48.12-.63a14.75,14.75,0,0,1,3.22-1.45c3-.91,4.91-.08,5.88,3.07l1.5,4.88c.09.31,0,.46-.29.55l-1.72.53c-.39.12-.57.13-.75,0s-.22-.17-.35-.13-.26.19-.54.44a4.26,4.26,0,0,1-1.65.95,3.38,3.38,0,0,1-4.54-2.17m9.18-9.39c-.09-.3,0-.47.3-.56l2.36-.67c.31-.09.47,0,.55.32l2.48,8.73c.09.31,0,.48-.3.57l-2.36.67c-.31.09-.46,0-.55-.32Zm-1.09-3.84c-.09-.31,0-.48.3-.57l2.36-.67c.31-.09.46,0,.55.33l.55,1.92c.08.31,0,.47-.3.56l-2.37.67c-.3.09-.46,0-.54-.32Zm8.33,10.68a.41.41,0,0,1-.27-.53l.44-1.87c.08-.34.32-.38.63-.29a6,6,0,0,0,2.94.11c.53-.13.87-.39.78-.74s-.46-.35-1-.21l-.43.11c-2.28.6-4.15-.14-4.67-2.11-.57-2.2,1.09-3.88,3.26-4.45a7.39,7.39,0,0,1,3.87-.08.39.39,0,0,1,.3.52l-.54,2a.46.46,0,0,1-.64.29,3.93,3.93,0,0,0-2.27-.06c-.59.15-.82.42-.75.69s.41.39,1.24.17l.48-.13c2.19-.57,3.88.12,4.37,2,.6,2.3-.83,4-3.3,4.67a8.61,8.61,0,0,1-4.46-.05m7.87-10.87c-.08-.31,0-.48.32-.55l2.39-.58c.31-.08.46,0,.54.34l2.12,8.83c.08.32,0,.48-.32.55l-2.39.58c-.31.08-.46,0-.53-.34Zm-.94-3.89c-.07-.31,0-.48.32-.55l2.39-.58c.31-.07.46,0,.54.34l.47,2c.07.31,0,.48-.32.55l-2.4.58c-.31.07-.46,0-.53-.35ZM199.74,731l1.23,5.65c.07.31,0,.47-.33.54l-2.4.52c-.31.07-.46,0-.53-.35l-1-4.45c-.19-.86-.62-1.63-1.52-1.43s-1.05,1-.84,1.94l1,4.46c.07.31,0,.47-.33.54l-2.4.52c-.32.07-.46,0-.53-.35l-1.94-8.87c-.07-.31,0-.47.33-.54l1.82-.4c.45-.1.56-.06.77.16a.33.33,0,0,0,.29.1,1.56,1.56,0,0,0,.43-.28,4.09,4.09,0,0,1,1.83-.91c1.91-.42,3.53.46,4.12,3.15m1.66-2.54a.53.53,0,0,1-.27.18c-.16,0-.32-.06-.37-.32l-.94-4.77c-.07-.31,0-.47.34-.53l2.31-.46c.32-.06.46,0,.52.36l.52,2.6a.94.94,0,0,1-.25.82Zm8.39.14c-.31.05-.47,0-.53-.36l-.4-2.38c-.05-.32,0-.46.38-.51l1.13-.19c.31-.06.41-.21.36-.53l-.52-3c-.05-.31,0-.47.36-.53l2.43-.4c.31-.06.45.06.51.38l.51,3c0,.32.19.44.51.38l2.25-.37c.31-.06.47,0,.53.35l.4,2.39c0,.32-.07.46-.38.51l-2.25.38c-.32,0-.41.21-.36.53l1,5.7c.06.31,0,.47-.36.52l-2.42.41c-.32.06-.46-.06-.51-.38l-1-5.7c-.06-.31-.2-.43-.51-.38Zm13.43,4.16c.05.32-.05.47-.37.52l-2.43.35c-.32,0-.46-.08-.51-.4l-1.85-12.95c0-.32.06-.47.38-.52l2.43-.35c.32,0,.46.06.5.4l.5,3.46c0,.2.13.33.3.3a1.26,1.26,0,0,0,.42-.2,3.93,3.93,0,0,1,1.59-.59c2.08-.3,3.55.77,3.93,3.42l.82,5.75c0,.31-.06.47-.37.51l-2.44.35c-.32,0-.46-.07-.5-.39l-.65-4.52c-.12-.87-.5-1.66-1.41-1.53s-1.12.92-1,1.88Zm12.95-7.15c.37-.06.28-.33.08-.53a2,2,0,0,0-1.54-.41,2,2,0,0,0-1.4.74c-.15.24-.18.53.2.5Zm-2.45,2.23c-.35,0-.3.36-.08.53a2,2,0,0,0,1.47.32,2.14,2.14,0,0,0,1.35-.7.52.52,0,0,1,.69-.12l2.07,1.2a.34.34,0,0,1,.11.51,5,5,0,0,1-3.92,2.27,5,5,0,0,1-5.71-4.52,5.15,5.15,0,1,1,10.22-1.26l.07.6c0,.31-.07.47-.38.5Zm16.61-3.16a.35.35,0,0,1-.43-.36c0-.48-.27-.7-.65-.68s-.69.38-.63,1.13l.39,5.13c0,.32-.09.47-.41.49l-2.45.19c-.32,0-.45-.11-.47-.43l-.69-9.05c0-.32.08-.47.4-.49l1.91-.15c.34,0,.49,0,.66.23a.34.34,0,0,0,.3.18,1,1,0,0,0,.39-.17,4,4,0,0,1,1.63-.66c1.63-.13,2.71.89,2.89,3.19l.06.77c0,.32-.09.47-.41.49Zm10.93-.08a1.76,1.76,0,1,0-1.67,1.91,1.73,1.73,0,0,0,1.67-1.91m3.49-.17a5.26,5.26,0,1,1-5.5-4.93,5,5,0,0,1,5.5,4.93m8-.17a1.76,1.76,0,1,0-1.72,1.86,1.72,1.72,0,0,0,1.72-1.86m3.5-.07a5.26,5.26,0,1,1-5.36-5.09,5,5,0,0,1,5.36,5.09m10.53-7.65-.93,1.95c-.15.3-.33.32-.63.2a5,5,0,0,0-1.75-.46c-.4,0-.92.06-.93.56,0,.32.16.46.48.46l2.9,0c.32,0,.46.13.46.45l0,2.42c0,.32-.15.44-.47.44l-2.94,0c-.32,0-.44.14-.44.46l0,5.78c0,.32-.13.46-.45.45l-2.46,0c-.32,0-.43-.14-.43-.46l.05-5.78c0-.32-.12-.46-.44-.46h-1.14c-.32,0-.46-.13-.46-.45l0-2.42c0-.32.15-.44.47-.43h1.14c.32,0,.44-.13.44-.45,0-2.74,1.43-3.73,3.91-3.71a7.37,7.37,0,0,1,3.44.89c.3.16.37.3.23.6" style="fill:#a76389;fill-rule:evenodd"></path><path id="cinnamon-and-raisin-graphic-a" d="M126.35,726.3a.92.92,0,0,0,.42-1.11c-.09-.26-.23-.59-.34-1s-.16-.66-.26-1,0-.7-.11-1.06-.36-.63-.43-1-.16-.68-.22-1,0-.71,0-1.07,0-.7,0-1.06-.14-.69-.17-1.05,0-.71,0-1.07-.2-.69-.22-1.05-.15-.7-.16-1.06.07-.7.08-1.06,0-.71,0-1.07.11-.68.14-1,0-.69,0-1,.31-.65.36-1,.13-.67.19-1,.14-.67.22-1-.06-.72,0-1,.11-.69.21-1,.41-.59.53-.91.25-.64.38-1,.23-.64.37-1,.18-.67.33-1,.54-.49.7-.78.21-.67.39-1,.22-.67.41-1,.53-.47.73-.75.41-.54.62-.8.37-.59.59-.85l.69-.76c.24-.24.58-.38.83-.62s.42-.54.67-.78.47-.49.74-.71.62-.32.89-.53.47-.51.74-.71.55-.41.84-.6.65-.25.94-.43.47-.53.77-.7.64-.26.94-.42a.72.72,0,0,0,.23-1c-.22-.43,0-.54-.24-1s-.27-.4-.5-.83a.8.8,0,0,0-1.11-.23c-.31.16-.58.37-.88.54s-.66.25-1,.43-.54.44-.82.63-.54.43-.82.62-.72.19-1,.4-.49.49-.75.71-.43.57-.69.79-.71.24-1,.47-.3.69-.54.93-.52.45-.75.7-.65.36-.87.61-.25.7-.46,1-.38.57-.59.85-.55.45-.74.73-.41.55-.6.84-.21.68-.39,1-.42.55-.58.85-.41.57-.56.88-.16.68-.3,1-.4.58-.53.9-.33.62-.44.94,0,.73-.09,1.06-.32.62-.41.95-.36.62-.44,1,0,.71,0,1-.23.65-.29,1,.1.71,0,1.05-.1.68-.14,1-.26.67-.29,1,.13.7.11,1-.2.68-.21,1-.06.69-.06,1-.11.69-.11,1,.25.69.26,1-.13.7-.11,1,.31.67.34,1,0,.7,0,1,.18.68.23,1,0,.7,0,1,0,.7.11,1,.31.64.38,1-.1.73,0,1,.42.62.5.93-.15.78-.07,1.08.51.63.59.89a.56.56,0,0,0,.84.38c.45-.17.51,0,1-.2S125.9,726.47,126.35,726.3Zm18.17-30.6a.79.79,0,0,0,1-.55c.09-.5.06-.51.15-1s.11-.5.2-1,0-.52.1-1,.16-.49.25-1,0-.5.13-1,.17-.48.27-1,.07-.5.16-1,.08-.5.18-1,.05-.5.15-1,.25-.46.34-1,0-.52.07-1,.08-.5.17-1,.22-.47.32-1a.8.8,0,0,0-.66-.84c-.51-.13-.49-.2-1-.33s-.5-.17-1-.3-.51-.14-1-.28-.53-.05-1-.18-.49-.2-1-.33-.51-.11-1-.25-.5-.16-1-.29-.51-.08-1-.21-.48-.22-1-.35-.55,0-1.05-.1-.48-.23-1-.36-.53,0-1-.17a.7.7,0,0,0-.92.49c-.13.47-.12.47-.24.94s-.06.49-.19,1a.65.65,0,0,0,.51.84c.5.13.49.19,1,.32s.49.16,1,.29.5.14,1,.27.51.09,1,.22.48.2,1,.33.52.06,1,.19l1,.25c.5.13.48.21,1,.34s.51.08,1,.21a.77.77,0,0,1,.55.89c-.1.49,0,.5-.14,1s-.12.48-.22,1-.13.48-.22,1,0,.51-.07,1-.09.48-.19,1-.25.45-.34.94,0,.51,0,1-.09.49-.18,1-.13.48-.22,1-.1.48-.19,1a.81.81,0,0,0,.57,1c.48.09.51-.05,1,0S144.05,695.61,144.52,695.7Z" style="fill:#a76389;fill-rule:evenodd"></path></svg> 