<?xml version="1.0" encoding="UTF-8"?> <svg xmlns="http://www.w3.org/2000/svg" id="Layer_2" data-name="Layer 2" viewBox="0 0 394 788"><title>buns graphic</title><path d="M310,651.71c-6.12,5.71-8.51,1.48-20.35-11.22-13.22-14.18-15.89-15.37-9.76-21.08,7.91-7.38,20.24-5.36,28.55,3.56s9.47,21.36,1.56,28.74M133.21,636.1c4.28,9.78-2,10.95-23,20.16-23.47,10.27-26.15,13-30.43,3.25-5.52-12.63,2.54-26.78,17.31-33.25s30.63-2.78,36.16,9.84m199.41-56.66c-7.68-7.41-2.31-10.89,13.62-27.4,17.8-18.44,19.23-22,26.91-14.59,9.91,9.57,7.84,25.73-3.35,37.32s-27.26,14.24-37.18,4.67m53.1-84.5c3.18,6.22-.88,7.23-14.24,14.07-14.93,7.64-16.57,9.54-19.75,3.32-4.11-8,.6-17.59,10-22.39s19.9-3,24,5m-11.05-46.82c-4-1.79-2.41-3.89,1.44-12.49,4.31-9.61,4.37-11.19,8.37-9.4,5.17,2.32,6.62,8.86,3.91,14.9s-8.55,9.31-13.72,7m-333.14-16c3.53-2.6,4.57-.18,10.15,7.42,6.23,8.49,7.58,9.31,4,11.91-4.56,3.35-11,1.39-14.89-4s-3.87-12,.7-15.38M366.71,608.56c4.38.15,3.7,2.69,3.39,12.12-.35,10.52.19,12-4.19,11.86-5.66-.19-9.48-5.69-9.26-12.31s4.4-11.85,10.06-11.67m-132.3,53.26c-5.14,6.6-8.31,2.7-22.52-8.36-15.86-12.36-18.76-13.18-13.61-19.79,6.64-8.53,19.42-8.25,29.4-.48s13.38,20.09,6.73,28.63M7.67,557.94c5.69-8.4,9.83-3.94,27.88,8.31,20.16,13.68,23.73,14.44,18,22.83-7.35,10.84-22.82,11.53-35.5,2.93S.31,568.78,7.67,557.94m302.54-73.51c-7.1-5-3.2-8.51,7.64-23.8,12.11-17.07,12.83-20.12,19.93-15.08,9.18,6.51,9.5,19.81,1.88,30.55s-20.27,14.84-29.45,8.33m-195.84,56c-1.44,10-7.11,7.84-28.7,4.74-24.12-3.45-27.65-2.58-26.21-12.61,1.86-13,15.46-20.37,30.63-18.19s26.14,13.09,24.28,26.06m-6.63-52.57c-6.13,5.71-8.51,1.49-20.35-11.21-13.23-14.18-15.89-15.38-9.77-21.09,7.91-7.37,20.24-5.35,28.56,3.57s9.47,21.36,1.56,28.73m-1.21,106c-1.86,4-3.93,2.35-12.46-1.67-9.53-4.48-11.11-4.57-9.24-8.53,2.41-5.13,9-6.46,15-3.64s9.15,8.72,6.74,13.84m220.34-73.5c6.55,5.21,2.61,8.33-8.61,22.42-12.53,15.73-13.38,18.61-19.93,13.39-8.46-6.73-8-19.51-.16-29.4s20.24-13.15,28.7-6.41" style="fill:#147bd1;fill-rule:evenodd"></path><path d="M157.52,725.11a1.76,1.76,0,1,0-1.13,2.27,1.71,1.71,0,0,0,1.13-2.27m3.34-1.05c.95,3-.38,5.57-2.88,6.36a4.17,4.17,0,0,1-2.11.08,1,1,0,0,0-.38,0c-.12,0-.18.12-.22.31s-.25.34-.57.45l-1.78.56c-.3.09-.46,0-.55-.31L148.43,719c-.09-.31,0-.47.28-.57l2.35-.74c.3-.1.46,0,.56.3l1,3.32c.07.21.19.32.36.27a.82.82,0,0,0,.29-.2,4.29,4.29,0,0,1,1.54-.91c2.5-.78,5.06.55,6,3.56m1.76.8L161,719.28c-.09-.31,0-.47.3-.56l2.37-.67c.3-.09.46,0,.54.32l1.25,4.39c.23.85.62,1.61,1.5,1.36s.89-1,.63-2l-1.24-4.39c-.09-.31,0-.48.3-.57l2.37-.67c.31-.08.46,0,.55.33l2.47,8.74c.09.31,0,.47-.3.56l-1.79.51c-.33.09-.5.14-.7,0s-.24-.21-.37-.17a2,2,0,0,0-.5.39,3.66,3.66,0,0,1-1.42.86c-2.06.58-3.61-.14-4.38-2.86m18.81-7.61,1.41,5.6c.08.31,0,.47-.31.55l-2.39.6c-.31.08-.46,0-.54-.33l-1.11-4.42c-.22-.86-.68-1.61-1.57-1.38s-1,1-.78,2l1.12,4.42c.08.31,0,.47-.32.55l-2.38.6c-.31.08-.46,0-.54-.33l-2.22-8.81c-.08-.31,0-.47.31-.55l1.81-.45c.44-.12.55-.08.77.13a.3.3,0,0,0,.29.09,1.27,1.27,0,0,0,.42-.29,4,4,0,0,1,1.8-1c1.9-.48,3.55.34,4.23,3m8.46-.26c.07.31,0,.47-.32.54l-5.27,1.19c-.31.07-.46,0-.53-.35l-.46-2c-.08-.31,0-.48.32-.55l5.27-1.18c.31-.08.46,0,.53.35Zm2.48,3.17c-.22-.07-.3-.28-.23-.54l.54-1.85c.1-.32.34-.35.65-.25a6,6,0,0,0,2.93.29c.53-.11.89-.35.82-.7s-.44-.38-1-.27l-.43.08c-2.32.47-4.14-.36-4.54-2.37-.45-2.23,1.31-3.81,3.51-4.25a7.28,7.28,0,0,1,3.86.13.39.39,0,0,1,.27.54l-.65,1.95a.47.47,0,0,1-.66.26,3.89,3.89,0,0,0-2.26-.2c-.59.12-.85.37-.79.65s.39.41,1.23.24l.49-.1c2.22-.45,3.87.34,4.25,2.23.47,2.33-1.06,4-3.57,4.47a8.57,8.57,0,0,1-4.45-.31m8.48-10.39c-.06-.31,0-.47.35-.53l2.42-.43c.32-.06.46.06.52.37l1.61,8.93c.05.32,0,.48-.35.54l-2.42.43c-.32.06-.46-.06-.52-.37Zm-.71-3.93c-.06-.32,0-.47.35-.53l2.42-.44c.32,0,.46.06.52.38l.35,2c.06.32,0,.48-.35.53l-2.42.44c-.32.06-.46-.06-.52-.37Zm12.17,7.73c-.15.3,0,.53.35.47l2.76-.47c.32-.05.47,0,.53.36l.4,2.4c.06.32-.06.46-.37.53l-8.59,1.45c-.37.06-.52-.24-.37-.55l2.94-6.13c.15-.31,0-.53-.34-.47l-2.77.46c-.31.06-.47,0-.52-.35l-.4-2.39c-.06-.31.06-.46.37-.53l8.6-1.45c.38-.06.51.24.36.55ZM223.17,710c.37-.07.28-.34.07-.53a2.19,2.19,0,0,0-2.93.38c-.15.24-.18.53.2.5Zm-2.4,2.27c-.36,0-.3.37-.08.54a2,2,0,0,0,1.47.29,2.14,2.14,0,0,0,1.34-.72.51.51,0,0,1,.69-.13l2.09,1.16a.34.34,0,0,1,.13.5,5,5,0,0,1-3.89,2.35,5,5,0,0,1-5.79-4.43,5.15,5.15,0,1,1,10.2-1.43l.08.59c0,.32-.06.47-.38.51Zm14.17-2.67a1.77,1.77,0,1,0-1.57,2,1.72,1.72,0,0,0,1.57-2m-1.1-4.71a.74.74,0,0,0,.34.06c.18,0,.25-.16.23-.38l-.35-3.46c0-.32.07-.47.39-.51l2.45-.24c.32,0,.45.09.48.41l1.32,13c0,.32-.08.47-.4.5l-1.85.19c-.34,0-.54,0-.7-.19s-.2-.2-.32-.19a1,1,0,0,0-.35.15,4.17,4.17,0,0,1-2,.77c-2.61.26-4.84-1.57-5.16-4.71s1.51-5.38,4.11-5.64a4.13,4.13,0,0,1,1.78.22m18.83-4.37-.79,2c-.13.31-.3.34-.61.24a5.09,5.09,0,0,0-1.78-.33c-.4,0-.92.12-.89.62,0,.32.19.45.51.43l2.89-.18c.32,0,.47.09.49.41l.15,2.41c0,.32-.11.45-.43.47l-2.93.18c-.32,0-.44.17-.41.49l.36,5.77c0,.32-.1.46-.42.49l-2.45.15c-.32,0-.45-.11-.47-.43l-.36-5.77c0-.32-.15-.45-.47-.43l-1.13.07c-.32,0-.47-.1-.49-.41l-.15-2.42c0-.32.11-.45.43-.47l1.14-.07c.32,0,.43-.17.41-.48-.17-2.74,1.16-3.83,3.64-4a7.48,7.48,0,0,1,3.49.64c.3.15.39.28.27.59m1.22,8.95-.21-5.79c0-.32.1-.47.42-.48l2.46-.09c.32,0,.44.13.45.45l.17,4.55c0,.88.22,1.72,1.14,1.68s1.11-.8,1.08-1.76l-.17-4.55c0-.32.11-.47.43-.48l2.45-.09c.32,0,.45.13.46.45l.33,9.07c0,.32-.1.46-.42.47l-1.86.07c-.34,0-.52,0-.67-.19s-.19-.26-.33-.25a1.64,1.64,0,0,0-.57.26,3.67,3.67,0,0,1-1.58.5c-2.14.07-3.48-1-3.58-3.82M274,706.49l0,5.78c0,.32-.11.46-.43.46l-2.46,0c-.32,0-.44-.14-.45-.46l0-4.56c0-.88-.28-1.71-1.2-1.71s-1.23.77-1.22,1.73l0,4.56c0,.32-.11.46-.43.47h-2.46c-.32,0-.44-.13-.45-.45l-.07-9.08c0-.32.12-.46.44-.46l1.86,0c.46,0,.56.06.72.31a.29.29,0,0,0,.26.16,1.44,1.44,0,0,0,.48-.18,4.1,4.1,0,0,1,2-.52c2,0,3.37,1.18,3.39,3.94" style="fill:#147bd1;fill-rule:evenodd"></path><path id="buns-graphic-a" d="M130.71,702.89a.92.92,0,0,0,.44-1.09c-.08-.27-.22-.6-.32-1s-.16-.66-.24-1,0-.69-.09-1.06-.35-.64-.42-1-.15-.69-.21-1.05,0-.71,0-1.07,0-.7,0-1.06-.12-.69-.15-1,0-.71,0-1.07-.2-.69-.21-1-.14-.71-.13-1.07.07-.7.09-1.06,0-.71,0-1.06.12-.69.15-1,0-.7,0-1,.32-.65.38-1,.14-.67.21-1,.15-.66.23-1,0-.72.05-1,.13-.68.23-1,.42-.58.54-.9.27-.63.4-.94.25-.63.39-.94.19-.67.35-1,.54-.48.71-.78.23-.66.41-.94.23-.67.42-1,.54-.46.75-.73.42-.54.64-.8.37-.58.6-.83.46-.5.7-.75.59-.38.83-.61.44-.54.7-.76.48-.49.74-.71.63-.3.9-.51.48-.5.76-.7.55-.39.84-.58.66-.24.95-.42.49-.51.79-.68.64-.24.95-.4a.73.73,0,0,0,.24-1c-.21-.43,0-.54-.22-1s-.27-.41-.49-.85a.8.8,0,0,0-1.1-.25c-.31.17-.59.37-.89.54s-.67.23-1,.4-.55.44-.83.62-.55.42-.83.61-.73.18-1,.38-.5.48-.77.69-.44.56-.7.78-.71.23-1,.46-.32.68-.56.91-.53.45-.77.7-.64.34-.87.59-.26.69-.48,1-.39.57-.6.84-.56.44-.76.72-.42.55-.61.83-.22.67-.4,1-.44.54-.6.84-.42.56-.57.87-.18.68-.33,1-.4.57-.54.89-.34.61-.46.93,0,.73-.1,1-.33.62-.43,1-.37.61-.46.94,0,.71-.07,1.05-.24.65-.3,1,.09.72,0,1.06-.11.67-.16,1-.27.66-.31,1,.12.7.1,1-.22.67-.24,1-.06.69-.07,1-.13.7-.13,1,.24.68.25,1-.15.7-.13,1,.3.67.32,1,0,.7,0,1,.17.68.21,1,0,.7,0,1,0,.69.09,1,.3.65.36,1-.12.74,0,1.05.41.63.49.94-.17.78-.09,1.08.49.64.57.9a.56.56,0,0,0,.83.4c.46-.17.51,0,1-.19S130.26,703.06,130.71,702.89Zm18.7-30.27a.79.79,0,0,0,1-.54c.1-.5.07-.5.17-1l.22-1c.1-.5,0-.52.11-1s.17-.48.27-1,0-.5.14-1,.19-.48.29-1,.08-.5.18-1,.1-.5.2-1,.06-.51.17-1,.25-.46.36-1,0-.52.08-1,.09-.49.19-1,.23-.46.33-1a.77.77,0,0,0-.64-.85c-.51-.14-.49-.2-1-.35s-.5-.17-1-.31-.5-.16-1-.3-.52-.06-1-.2-.48-.21-1-.35-.5-.12-1-.26-.49-.17-1-.31-.52-.1-1-.24-.48-.22-1-.36-.55,0-1-.12-.48-.23-1-.37-.52,0-1-.19a.7.7,0,0,0-.92.47l-.26.94c-.13.47-.07.48-.2,1a.66.66,0,0,0,.49.86c.5.14.49.19,1,.33s.5.17,1,.3.49.16,1,.3.51.09,1,.23.48.21,1,.35.52.07,1,.21l1,.27c.49.13.47.22,1,.35s.51.09,1,.23a.76.76,0,0,1,.54.9c-.1.49,0,.5-.15,1s-.14.48-.24,1-.14.48-.24,1,0,.51-.09,1l-.2,1c-.1.48-.26.45-.36.93s0,.52-.06,1l-.2,1c-.1.48-.13.47-.23,1s-.1.48-.21,1a.82.82,0,0,0,.56,1c.47.1.5-.05,1,0S148.94,672.52,149.41,672.62Z" style="fill:#147bd1;fill-rule:evenodd"></path></svg> 