<?xml version="1.0" encoding="UTF-8"?> <svg xmlns="http://www.w3.org/2000/svg" xmlns:xlink="http://www.w3.org/1999/xlink" id="Layer_2" data-name="Layer 2" viewBox="0 0 394 788"><defs><mask id="mask" x="151.01" y="726.55" width="13.75" height="17.29" maskUnits="userSpaceOnUse"><g id="seeds-and-grains-graphic-b"><polygon id="seeds-and-grains-graphic-a" points="151.01 728.17 162.56 726.55 164.76 742.21 153.21 743.83 151.01 728.17" style="fill:#fff;fill-rule:evenodd"></polygon></g></mask><mask id="mask-2" x="192.66" y="714.11" width="10.51" height="15.14" maskUnits="userSpaceOnUse"><g id="seeds-and-grains-graphic-d"><polygon id="seeds-and-grains-graphic-c" points="192.66 715.31 201.21 714.11 203.16 728.04 194.62 729.25 192.66 715.31" style="fill:#fff;fill-rule:evenodd"></polygon></g></mask><mask id="mask-3" x="265.71" y="719.12" width="4.89" height="6.17" maskUnits="userSpaceOnUse"><g id="seeds-and-grains-graphic-f"><polygon id="seeds-and-grains-graphic-e" points="265.71 719.7 269.82 719.12 270.61 724.71 266.5 725.29 265.71 719.7" style="fill:#fff;fill-rule:evenodd"></polygon></g></mask></defs><title>seeds and grains graphic</title><path d="M351.41,507.16h0a19.77,19.77,0,0,1,21.87-17.78l3.9.43a1.4,1.4,0,0,1,1.22,1.53,19.77,19.77,0,0,1-21.87,17.78l-3.9-.43a1.4,1.4,0,0,1-1.22-1.53m27.34-82.93,3.42-1.82A1.34,1.34,0,0,1,384,423c5.22,9.92,1.66,22.13-7.94,27.27l-3.42,1.82a1.34,1.34,0,0,1-1.83-.59C365.59,441.58,369.15,429.37,378.75,424.23Z" style="fill:#de7c00;fill-rule:evenodd"></path><path d="M287.86,539.38h0a24.18,24.18,0,0,1,22.64-26.23l4.82-.29a1.74,1.74,0,0,1,1.82,1.59,24.19,24.19,0,0,1-22.64,26.24l-4.82.28a1.74,1.74,0,0,1-1.82-1.59" style="fill:#de7c00;fill-rule:evenodd"></path><path d="M273.25,631.19h0c15.71-14.92,40.42-14.53,55.18.88l5.25,5.48a2.65,2.65,0,0,1-.12,3.76c-15.71,14.92-40.42,14.53-55.18-.88L273.13,635a2.65,2.65,0,0,1,.12-3.76m42.18-51.12h0c3.06-25.67,26-43.77,51.23-40.42l9,1.19a3.22,3.22,0,0,1,2.75,3.59c-3.06,25.67-26,43.76-51.23,40.42l-9-1.19a3.22,3.22,0,0,1-2.75-3.59" style="fill:#de7c00;fill-rule:evenodd"></path><path d="M138.35,625.62h0C115.74,613,87.65,620.76,75.62,643l-4.29,7.91a3.23,3.23,0,0,0,1.31,4.32c22.61,12.63,50.7,4.86,62.74-17.37l4.28-7.9a3.23,3.23,0,0,0-1.31-4.32" style="fill:#de7c00;fill-rule:evenodd"></path><path d="M118.56,526.19h0c-15.71-14.92-40.42-14.53-55.18.88l-5.25,5.48a2.65,2.65,0,0,0,.12,3.76c15.71,14.92,40.42,14.53,55.18-.88l5.25-5.48a2.65,2.65,0,0,0-.12-3.76" style="fill:#de7c00;fill-rule:evenodd"></path><path d="M356.09,613.33h0c9-4.57,20-1.36,24.55,7.18l1.63,3a1.2,1.2,0,0,1-.55,1.63c-9,4.57-20,1.36-24.55-7.17l-1.63-3a1.2,1.2,0,0,1,.55-1.63" style="fill:#de7c00;fill-rule:evenodd"></path><path d="M112,489.5h0c5.22-9.92,1.66-22.13-7.94-27.27l-3.42-1.82a1.34,1.34,0,0,0-1.83.59c-5.22,9.92-1.66,22.13,7.94,27.27l3.42,1.82a1.34,1.34,0,0,0,1.83-.59" style="fill:#de7c00;fill-rule:evenodd"></path><path d="M235.71,657.89h0a24.18,24.18,0,0,0-22.64-26.23l-4.82-.29a1.73,1.73,0,0,0-1.82,1.59,24.18,24.18,0,0,0,22.64,26.23l4.82.29a1.74,1.74,0,0,0,1.82-1.59" style="fill:#de7c00;fill-rule:evenodd"></path><path d="M304.57,487.49h0c-6.89-19.77,3.21-41.14,22.55-47.75l6.87-2.36a2.58,2.58,0,0,1,3.25,1.63c6.89,19.77-3.21,41.15-22.54,47.76l-6.88,2.35a2.59,2.59,0,0,1-3.25-1.63" style="fill:#de7c00;fill-rule:evenodd"></path><path d="M64.4,450.16h0a19.77,19.77,0,0,0-21.87-17.78l-3.9.43a1.4,1.4,0,0,0-1.22,1.53,19.77,19.77,0,0,0,21.87,17.78l3.9-.43a1.4,1.4,0,0,0,1.22-1.53" style="fill:#de7c00;fill-rule:evenodd"></path><path d="M118.73,587.33h0c-9-4.57-20-1.36-24.56,7.18l-1.63,3a1.2,1.2,0,0,0,.55,1.63c9,4.57,20,1.36,24.55-7.17l1.63-3a1.21,1.21,0,0,0-.54-1.63" style="fill:#de7c00;fill-rule:evenodd"></path><path d="M56.46,595.24h0c-1-21-18.48-37-39.1-35.83l-7.33.41a2.61,2.61,0,0,0-2.43,2.74c1,21,18.48,37,39.1,35.84L54,598a2.61,2.61,0,0,0,2.43-2.75" style="fill:#de7c00;fill-rule:evenodd"></path><g style="mask:url(#mask)"><path d="M156.78,739.5c-.27.07-.34.24-.29.43.14.5.91.62,2.66.11,1.53-.44,1.92-.76,1.8-1.16s-.4-.41-2.35.15c-.69.2-1.28.31-1.82.47m1.16-8.06c-.17-.6-.78-.82-1.78-.53s-1.39.8-1.22,1.39.78.82,1.77.53,1.4-.79,1.23-1.39m-6.17,1.78c-.64-2.21.45-4.15,3.52-5,1.27-.36,1.83-.31,2.4-.48l3.12-.9c.3-.09.47,0,.56.3l.65,2.25c.09.33,0,.45-.32.55l-.5.14c-.33.1-.41.25-.33.51.63,2.21-.56,4.06-3.24,4.83a11.48,11.48,0,0,1-1.33.26.29.29,0,0,0-.23.38.44.44,0,0,0,.5.35,10,10,0,0,0,2.41-.51c3.06-.88,4.54-.14,5.09,1.76.76,2.64-1.25,4.21-4.59,5.18-3.15.91-5.39.66-5.91-1.17a2.36,2.36,0,0,1,.41-2.18c.13-.19.11-.32-.1-.47a2.4,2.4,0,0,1-.95-1.29,2.22,2.22,0,0,1,.47-2.11.3.3,0,0,0-.1-.5,3,3,0,0,1-1.53-1.86" style="fill:#db7c27;fill-rule:evenodd"></path></g><path d="M168.82,729.32a.36.36,0,0,1-.49-.28c-.12-.47-.39-.65-.76-.55s-.61.49-.42,1.22l1.28,5c.08.31,0,.47-.31.56l-2.39.61c-.3.08-.46,0-.54-.34l-2.26-8.79c-.08-.31,0-.47.31-.55l1.86-.48a.61.61,0,0,1,.69.11.32.32,0,0,0,.32.12.8.8,0,0,0,.35-.23,4,4,0,0,1,1.49-.94c1.59-.41,2.83.4,3.41,2.63l.19.76c.08.31,0,.47-.31.55ZM179,726.53c.37-.11.24-.37,0-.54a2,2,0,0,0-1.57-.24,2,2,0,0,0-1.32.9c-.12.25-.12.54.26.47ZM176.78,729c-.35.08-.26.38,0,.53a1.94,1.94,0,0,0,1.49.15,2,2,0,0,0,1.26-.84.52.52,0,0,1,.68-.19l2.19,1a.34.34,0,0,1,.17.49,5,5,0,0,1-3.65,2.71,5,5,0,0,1-6.18-3.86,5.15,5.15,0,1,1,10-2.4l.14.59c.07.31,0,.47-.33.54Zm13.29-2c-.1-.53-.68-.78-1.53-.62s-1.28.63-1.17,1.16.68.78,1.53.61,1.28-.62,1.17-1.15m-6,1.19a3.41,3.41,0,0,1,3-4.06,4.13,4.13,0,0,1,1.87,0,1.2,1.2,0,0,0,.44.08c.12,0,.14-.15.11-.29-.1-.49-1-.79-2.19-.54a7.29,7.29,0,0,0-2,.7c-.2.1-.47.17-.62-.12l-.9-1.88c-.14-.28-.1-.49.18-.61a14.48,14.48,0,0,1,3.35-1.12c3.06-.61,4.9.41,5.54,3.65l1,5c.06.32,0,.46-.34.52l-1.77.35c-.39.08-.58.08-.74-.11a.32.32,0,0,0-.34-.16c-.15,0-.27.16-.57.38a4.29,4.29,0,0,1-1.74.78,3.38,3.38,0,0,1-4.3-2.62" style="fill:#db7c27;fill-rule:evenodd"></path><g style="mask:url(#mask-2)"><path d="M194.24,722.6c-.32.06-.48,0-.53-.36l-.41-2.38c-.06-.31,0-.45.38-.51l1.12-.2c.31,0,.41-.21.35-.52l-.52-3c0-.31,0-.47.36-.53l2.42-.42c.32,0,.46.07.51.38l.53,3c.05.31.19.43.51.38l2.24-.39c.32,0,.48,0,.53.35l.41,2.39c.06.32-.06.46-.37.51l-2.25.39c-.32,0-.41.21-.36.53l1,5.69c0,.32,0,.48-.36.53l-2.42.42c-.32,0-.46-.06-.51-.38l-1-5.7c-.05-.31-.19-.43-.51-.37Z" style="fill:#db7c27;fill-rule:evenodd"></path></g><path d="M214,719.89c-.08-.62-.65-.93-1.68-.79s-1.5.58-1.41,1.19.64.92,1.67.79,1.5-.58,1.42-1.19m-2.35,7.79c-.28,0-.38.19-.36.39.07.51.81.74,2.61.5,1.59-.2,2-.46,2-.88s-.35-.46-2.35-.2c-.71.1-1.32.12-1.87.19m-4-7c-.3-2.28,1.07-4,4.24-4.45,1.31-.17,1.85,0,2.45-.12l3.21-.42c.32,0,.48.06.52.38l.3,2.32c0,.34-.06.45-.4.5l-.52.07c-.33,0-.44.17-.4.45.3,2.28-1.16,3.93-3.92,4.29a11.48,11.48,0,0,1-1.36,0,.29.29,0,0,0-.28.34.45.45,0,0,0,.43.43,10.71,10.71,0,0,0,2.47-.14c3.15-.41,4.51.54,4.76,2.5.36,2.72-1.86,4-5.31,4.43-3.25.42-5.43-.16-5.67-2a2.4,2.4,0,0,1,.73-2.1c.16-.16.16-.3,0-.48a2.38,2.38,0,0,1-.75-1.41,2.2,2.2,0,0,1,.79-2,.31.31,0,0,0,0-.51,3,3,0,0,1-1.24-2.07m17.4-1.33a.37.37,0,0,1-.44-.36c-.05-.48-.29-.69-.67-.65s-.68.39-.6,1.15l.54,5.11c0,.32-.07.47-.39.5l-2.45.26c-.32,0-.45-.09-.48-.41l-1-9c0-.32.07-.47.39-.5l1.91-.2c.34,0,.48,0,.67.21a.35.35,0,0,0,.3.17.93.93,0,0,0,.38-.18,4.09,4.09,0,0,1,1.61-.72c1.64-.17,2.75.82,3,3.11l.08.77c0,.32-.07.47-.39.5Zm9.79,1.49c0-.53-.59-.85-1.45-.78s-1.35.47-1.3,1,.59.85,1.44.78,1.35-.47,1.31-1m-6.1.49a3.41,3.41,0,0,1,3.45-3.68A4.06,4.06,0,0,1,234,718a1.42,1.42,0,0,0,.43.13c.12,0,.15-.14.14-.28,0-.49-.86-.89-2.11-.79a7.52,7.52,0,0,0-2,.46c-.21.08-.49.12-.6-.19l-.68-2c-.1-.29,0-.5.26-.58a14.73,14.73,0,0,1,3.45-.72c3.11-.25,4.81,1,5.08,4.27l.4,5.08c0,.32-.08.45-.4.47l-1.79.15c-.4,0-.58,0-.72-.21a.34.34,0,0,0-.32-.19c-.16,0-.29.12-.61.31a4.33,4.33,0,0,1-1.82.57c-2.24.17-3.8-1.1-4-3.1m10.76-11.17c0-.32.09-.47.41-.49l2.45-.14c.32,0,.45.11.47.43l.12,2c0,.32-.1.46-.42.48l-2.45.14c-.32,0-.45-.11-.47-.43Zm.23,4c0-.32.09-.47.41-.49l2.46-.14c.32,0,.44.11.46.43l.53,9.06c0,.32-.09.47-.41.49l-2.45.14c-.32,0-.45-.11-.47-.43Zm14.74,2.62.21,5.78c0,.32-.1.46-.42.48l-2.46.09c-.32,0-.44-.13-.46-.45l-.17-4.55c0-.88-.32-1.71-1.24-1.68s-1.21.81-1.17,1.77l.17,4.55c0,.32-.11.47-.43.48l-2.46.09c-.32,0-.44-.12-.45-.44l-.34-9.08c0-.32.1-.46.42-.47l1.86-.07c.46,0,.56,0,.73.29a.31.31,0,0,0,.27.15,1.29,1.29,0,0,0,.47-.2,4,4,0,0,1,2-.57c2-.07,3.4,1.07,3.51,3.83m1.82,5.22a.42.42,0,0,1-.13-.58l.89-1.7c.15-.31.39-.29.68-.13a6,6,0,0,0,2.82.83c.54,0,.94-.17.94-.53s-.37-.46-.91-.45h-.44c-2.36,0-4-1.14-4-3.18,0-2.28,2-3.5,4.25-3.52a7.2,7.2,0,0,1,3.76.86.39.39,0,0,1,.17.58l-1,1.79a.48.48,0,0,1-.7.13,3.87,3.87,0,0,0-2.19-.62c-.6,0-.89.21-.89.49s.3.47,1.16.47h.5c2.26,0,3.74,1.06,3.76,3,0,2.38-1.79,3.7-4.35,3.73a8.61,8.61,0,0,1-4.31-1.14" style="fill:#db7c27;fill-rule:evenodd"></path><g style="mask:url(#mask-3)"><path d="M267,725.16a.33.33,0,0,1-.55-.29l.05-4.88c0-.32.12-.46.44-.45l2.56,0c.32,0,.44.15.44.47l0,2.5a.86.86,0,0,1-.41.75Z" style="fill:#db7c27;fill-rule:evenodd"></path></g><path d="M159.66,758.79a.41.41,0,0,1-.27-.52l.38-1.88c.07-.34.31-.38.62-.31a6,6,0,0,0,3,0c.52-.15.86-.42.76-.76s-.48-.34-1-.19l-.43.12c-2.26.66-4.15,0-4.72-2-.64-2.19,1-3.91,3.14-4.54a7.29,7.29,0,0,1,3.86-.18.38.38,0,0,1,.31.51l-.48,2c-.06.29-.34.39-.64.31a4,4,0,0,0-2.27,0c-.57.17-.81.44-.73.71s.43.38,1.25.14l.48-.14c2.17-.64,3.88,0,4.42,1.86.66,2.28-.72,4-3.18,4.75a8.46,8.46,0,0,1-4.46.07m8.93-5.45-1.46-5.62c-.08-.3,0-.47.31-.55l2.38-.62c.31-.08.47,0,.55.34l1.14,4.41c.22.85.59,1.62,1.48,1.39s.91-1,.67-2l-1.15-4.41c-.08-.31,0-.48.31-.56l2.39-.62c.31-.08.46,0,.54.34l2.28,8.78c.08.31,0,.48-.31.56l-1.8.47c-.33.08-.5.13-.69,0s-.24-.21-.38-.17a1.89,1.89,0,0,0-.5.38,3.61,3.61,0,0,1-1.44.83c-2.07.53-3.61-.22-4.32-2.95m13.63-4.7a1.76,1.76,0,1,0,3.43-.78,1.76,1.76,0,1,0-3.43.78m1.66,4.54a.77.77,0,0,0-.36,0c-.15,0-.22.17-.17.39l.94,4.19c.07.31,0,.48-.32.55l-2.4.54c-.32.07-.46,0-.53-.35L178,744.94c-.07-.31,0-.47.33-.54l1.81-.41c.33-.08.53-.1.72.1s.22.17.34.15a.91.91,0,0,0,.33-.2,4.18,4.18,0,0,1,1.86-1c2.56-.58,5,1,5.69,4s-.84,5.52-3.4,6.1a4.05,4.05,0,0,1-1.78,0m12.51-8.44c.37-.09.26-.35,0-.54a2.18,2.18,0,0,0-2.91.56c-.13.25-.14.54.24.49Zm-2.27,2.41c-.35.07-.27.38,0,.54a2,2,0,0,0,1.49.2,2.1,2.1,0,0,0,1.29-.8.53.53,0,0,1,.68-.17l2.15,1a.34.34,0,0,1,.16.5,5.08,5.08,0,0,1-3.74,2.57,5,5,0,0,1-6-4.08,5.15,5.15,0,1,1,10.1-2l.11.59c.06.32,0,.48-.34.54Zm12.47-3.8a.35.35,0,0,1-.46-.33c-.08-.47-.34-.67-.71-.61s-.66.43-.54,1.18l.82,5.07c.05.31,0,.47-.36.52l-2.43.4c-.31,0-.45-.07-.5-.39l-1.45-9c-.05-.31,0-.47.36-.52l1.89-.31c.34,0,.48,0,.68.18a.35.35,0,0,0,.31.15,1,1,0,0,0,.37-.2,3.91,3.91,0,0,1,1.57-.8c1.62-.27,2.78.66,3.15,2.93l.12.77c.05.32,0,.47-.36.52Zm8.5,3.37a.41.41,0,0,1-.19-.56l.69-1.8c.12-.32.36-.33.66-.2a6.2,6.2,0,0,0,2.91.51c.53-.07.91-.27.87-.63s-.42-.41-.95-.35l-.44.06c-2.34.28-4.09-.69-4.34-2.72-.28-2.26,1.6-3.7,3.83-4a7.44,7.44,0,0,1,3.84.44.4.4,0,0,1,.23.56l-.8,1.89a.46.46,0,0,1-.68.2,4,4,0,0,0-2.24-.37c-.6.08-.87.31-.84.59s.36.44,1.21.34l.5-.07c2.24-.27,3.83.65,4.06,2.55.29,2.37-1.36,3.88-3.91,4.19a8.64,8.64,0,0,1-4.41-.65M230.73,740c.38-.06.29-.33.09-.53a1.91,1.91,0,0,0-1.52-.44,2,2,0,0,0-1.42.71c-.16.23-.2.52.18.5Zm-2.49,2.18c-.36,0-.31.35-.09.53a2,2,0,0,0,1.46.34,2.15,2.15,0,0,0,1.36-.66.52.52,0,0,1,.69-.11l2.05,1.24a.34.34,0,0,1,.1.51,5.05,5.05,0,0,1-4,2.2,5,5,0,0,1-5.61-4.65,5.15,5.15,0,1,1,10.25-1l.05.6c0,.32-.08.47-.39.49Zm13.79-3c.38,0,.3-.32.11-.53a2.18,2.18,0,0,0-3,.18c-.17.23-.21.51.17.51Zm-2.56,2.1c-.36,0-.32.34-.11.53a2,2,0,0,0,1.44.39,2.13,2.13,0,0,0,1.39-.62.52.52,0,0,1,.7-.08l2,1.3a.34.34,0,0,1,.09.52,5.06,5.06,0,0,1-4,2.06,4.94,4.94,0,0,1-5.45-4.83,5.15,5.15,0,1,1,10.28-.71l0,.6c0,.32-.09.47-.41.49Zm14.34-1.63a1.76,1.76,0,1,0-1.71,1.87,1.72,1.72,0,0,0,1.71-1.87m-.75-4.78a.64.64,0,0,0,.34.09c.18,0,.26-.14.25-.36l-.09-3.48c0-.32.11-.46.43-.47l2.46-.07c.32,0,.44.13.45.45l.34,13.07c0,.32-.1.47-.42.47l-1.86,0c-.34,0-.54,0-.69-.24s-.18-.21-.3-.21a1,1,0,0,0-.36.13,4.32,4.32,0,0,1-2,.61c-2.61.07-4.71-1.91-4.79-5.07s1.9-5.25,4.52-5.32a4.11,4.11,0,0,1,1.75.35m5.92,8.7a.41.41,0,0,1-.12-.58l.91-1.7c.16-.3.4-.27.68-.11a6,6,0,0,0,2.81.87c.54,0,.94-.16.94-.52s-.35-.46-.89-.46h-.44c-2.36,0-4-1.2-4-3.24,0-2.28,2.05-3.47,4.29-3.46a7.31,7.31,0,0,1,3.76.92.39.39,0,0,1,.16.58l-1,1.77a.47.47,0,0,1-.7.12,3.9,3.9,0,0,0-2.18-.65c-.6,0-.9.2-.9.48s.3.48,1.16.48h.5c2.26,0,3.71,1.12,3.71,3,0,2.38-1.84,3.67-4.4,3.66a8.61,8.61,0,0,1-4.29-1.2" style="fill:#db7c27;fill-rule:evenodd"></path><path id="seeds-and-grains-graphic-g" d="M161.1,710.73a.92.92,0,0,0-.09-1.18c-.19-.2-.45-.44-.72-.76s-.43-.52-.67-.82-.32-.62-.55-.92-.59-.42-.81-.71-.44-.55-.65-.86-.27-.65-.47-1-.31-.63-.5-.94-.41-.56-.6-.87-.26-.66-.43-1-.48-.54-.64-.86-.44-.57-.6-.89-.24-.67-.38-1-.32-.64-.46-1-.19-.66-.31-1-.31-.62-.42-.94,0-.72-.09-1.05-.17-.66-.25-1-.15-.66-.22-1-.36-.63-.42-1-.18-.67-.23-1,.12-.71.09-1,0-.69-.06-1-.05-.68-.06-1-.12-.69-.12-1,.29-.67.31-1-.09-.69-.05-1-.09-.7,0-1,.29-.64.35-1,.15-.66.23-1,.08-.69.17-1,.2-.65.31-1,.36-.59.48-.91.15-.67.29-1,.21-.65.36-1,.43-.55.58-.85.21-.66.38-1,.32-.6.5-.9.49-.5.67-.79.21-.67.41-1,.47-.5.67-.77a.72.72,0,0,0-.22-1c-.38-.3-.24-.49-.63-.78s-.42-.25-.8-.55a.82.82,0,0,0-1.11.26c-.21.29-.37.59-.56.87s-.5.5-.69.79-.3.62-.48.92-.31.61-.47.91-.58.47-.74.77-.23.66-.38,1-.15.69-.29,1-.54.53-.67.84,0,.75-.1,1.07-.28.63-.39,1-.43.6-.52.92.07.74,0,1.07-.1.68-.17,1-.31.64-.37,1-.13.68-.18,1,.09.7.06,1-.15.68-.17,1-.13.68-.13,1,.13.69.14,1-.12.69-.1,1,0,.7,0,1,.33.66.38,1,0,.7,0,1-.06.72,0,1,.32.64.39,1,.07.69.16,1,.39.61.49.93.2.66.3,1,0,.72.16,1,.42.57.54.89.11.7.24,1,.24.64.39.95.19.68.33,1,.52.51.67.81.18.69.34,1,.56.48.73.77.27.65.44.93.45.54.63.82.29.64.48.92.33.61.53.88.55.46.75.72.22.71.42,1,.65.38.85.63.19.77.39,1,.73.35.92.56a.55.55,0,0,0,.91,0c.34-.35.45-.24.79-.59S160.77,711.08,161.1,710.73Zm3.54-35.41a.78.78,0,0,0,.63-.91c-.12-.49-.16-.48-.28-1s-.12-.49-.24-1-.23-.47-.35-1-.06-.51-.18-1-.19-.47-.32-1,0-.51-.17-1-.14-.48-.27-1-.13-.49-.26-1-.16-.48-.29-1,0-.53-.09-1-.25-.46-.37-1-.14-.49-.26-1,0-.51-.13-1a.77.77,0,0,0-.95-.48c-.51.09-.53,0-1,.12s-.53.06-1,.15-.52.08-1,.18-.5.18-1,.27-.52,0-1,.12l-1,.21c-.52.09-.52.06-1,.16s-.5.14-1,.24-.53,0-1,.1-.49.26-1,.35-.53,0-1.05.09-.49.2-1,.29a.71.71,0,0,0-.63.83l.18,1c.09.47.15.46.24.94a.65.65,0,0,0,.82.55c.5-.09.51,0,1-.13s.52-.07,1-.16.51-.08,1-.17.5-.14,1-.23.52,0,1-.11.49-.17,1-.26l1-.2c.51-.09.52,0,1-.1s.49-.15,1-.24a.77.77,0,0,1,.88.58c.12.48.17.47.29.95s.09.49.21,1,.08.49.21,1,.24.45.36.93l.24,1c.12.47,0,.52.08,1s.26.45.38.93.13.47.25,1,.09.49.21,1l.24.95a.82.82,0,0,0,.93.64c.47-.12.43-.26.9-.38S164.17,675.43,164.64,675.32Z" style="fill:#de7c00;fill-rule:evenodd"></path></svg> 