<?xml version="1.0" encoding="UTF-8"?> <svg xmlns="http://www.w3.org/2000/svg" id="Layer_1" data-name="Layer 1" viewBox="0 0 394 788"><title>hotdog graphic</title><path d="M375.57,497.32c-3.75-5.63-9.75.24-17.64,6.75S343.26,515.27,347,520.9s9.76-.23,17.64-6.74,14.68-11.2,10.92-16.84M55.11,467.94c5.12-4.42-1.45-9.65-8.9-16.66s-13-13.16-18.07-8.73,1.46,9.65,8.9,16.66,13,13.16,18.07,8.73m62.06,87.28c6.1-10.71-8.36-15.69-25.41-23.2s-30.24-14.73-36.34-4,8.36,15.69,25.41,23.21,30.23,14.73,36.34,4M13.29,582.89c-2.13,9.29,7.88,11.12,20,14.57s21.64,7.22,23.77-2.07-7.88-11.12-20-14.57-21.63-7.22-23.76,2.07m255.65,60.48c-2.12,9.29,7.88,11.11,20,14.56s21.63,7.22,23.76-2.07-7.88-11.11-20-14.56-21.64-7.22-23.77,2.07m-44.36,31.31c9-5.38,3.26-11.28-2.61-19.26s-9.69-15-18.64-9.63-3.26,11.28,2.61,19.25,9.69,15,18.64,9.64M363.11,462.45c6.48,4.82,9-1,13-7.53s7.85-11.33,1.37-16.15-9,1-13,7.53-7.86,11.34-1.38,16.15" style="fill:#e03c31;fill-rule:evenodd"></path><path d="M121.8,749.45c.11.3,0,.47-.26.58l-2.31.84c-.3.11-.46,0-.57-.28l-4.47-12.29c-.11-.31,0-.48.26-.59l2.31-.84c.3-.11.45,0,.57.28l1.2,3.29c.06.19.19.3.36.23a1.28,1.28,0,0,0,.36-.28,4,4,0,0,1,1.44-.9c2-.72,3.62,0,4.54,2.54l2,5.45c.11.3.05.47-.25.58l-2.32.84c-.3.11-.46,0-.57-.28l-1.55-4.29c-.3-.82-.84-1.52-1.7-1.21s-.91,1.14-.58,2Zm11.87-8.91a1.76,1.76,0,1,0-1.1,2.28,1.72,1.72,0,0,0,1.1-2.28m3.33-1.1a5.26,5.26,0,1,1-6.63-3.29,5,5,0,0,1,6.63,3.29m.76-2c-.3.09-.47,0-.56-.29l-.7-2.32c-.09-.3,0-.45.31-.55l1.1-.33c.3-.09.38-.26.28-.57l-.88-3c-.09-.3,0-.47.29-.56l2.35-.71c.31-.09.46,0,.56.31l.88,2.95c.09.31.25.41.56.32l2.18-.66c.31-.09.47,0,.57.29l.69,2.32c.09.3,0,.46-.31.55l-2.18.66c-.31.09-.39.26-.29.56l1.66,5.54c.09.3,0,.47-.29.56l-2.36.71c-.3.09-.46,0-.55-.31l-1.66-5.54a.39.39,0,0,0-.56-.31Zm19.58-3.78a1.76,1.76,0,1,0-1.24,2.21,1.71,1.71,0,0,0,1.24-2.21m-1.81-4.48a.88.88,0,0,0,.36,0c.17-.05.21-.2.16-.42l-.88-3.36c-.08-.31,0-.48.31-.56l2.38-.62c.31-.08.46,0,.54.33l3.3,12.66c.08.31,0,.47-.31.55l-1.8.47c-.33.09-.53.12-.72-.08s-.23-.16-.35-.13a.85.85,0,0,0-.31.2,4.27,4.27,0,0,1-1.84,1.06c-2.53.66-5-.8-5.82-3.85s.66-5.55,3.2-6.21a4,4,0,0,1,1.78-.05m13.41,1.7a1.76,1.76,0,1,0-1.31,2.16,1.72,1.72,0,0,0,1.31-2.16m3.42-.78a5.26,5.26,0,1,1-6.29-3.9,5,5,0,0,1,6.29,3.9m7.4-2.84c-.12-.61-.71-.89-1.73-.69s-1.46.68-1.34,1.29.71.88,1.73.68,1.46-.68,1.34-1.28m-1.85,7.92c-.27.06-.37.22-.33.41.1.51.85.69,2.64.34,1.57-.31,2-.59,1.9-1s-.37-.44-2.35,0c-.71.14-1.31.19-1.86.3m-4.46-6.69c-.44-2.25.81-4.09,4-4.71,1.3-.25,1.85-.15,2.43-.27l3.18-.63c.32-.06.48,0,.54.35l.45,2.29c.07.34,0,.46-.36.52l-.52.1c-.33.07-.42.21-.37.49.45,2.25-.91,4-3.64,4.52a10.13,10.13,0,0,1-1.35.15.29.29,0,0,0-.26.35.45.45,0,0,0,.47.4,10.39,10.39,0,0,0,2.45-.3c3.12-.61,4.53.25,4.91,2.2.53,2.69-1.6,4.08-5,4.76-3.22.63-5.43.19-5.8-1.68a2.38,2.38,0,0,1,.6-2.13.29.29,0,0,0-.05-.48,2.41,2.41,0,0,1-.84-1.37,2.19,2.19,0,0,1,.65-2.06.3.3,0,0,0-.06-.5,3,3,0,0,1-1.37-2m20.39,2.26c0,.32-.05.48-.37.52l-2.43.38c-.31.05-.46-.07-.5-.39l-2-12.93c-.05-.31.05-.47.37-.52l2.43-.37c.32-.05.45,0,.5.38l.54,3.46c0,.2.13.33.31.3a1.22,1.22,0,0,0,.41-.21,4.1,4.1,0,0,1,1.59-.61c2.07-.32,3.55.73,4,3.38l.89,5.73c.05.32-.05.47-.36.52l-2.43.38c-.32.05-.46-.07-.51-.39l-.7-4.51c-.13-.87-.52-1.66-1.43-1.52s-1.11.94-1,1.89Zm12.89-7.32c.38-.07.28-.34.08-.53a2.18,2.18,0,0,0-2.94.37c-.15.24-.18.52.2.49Zm-2.41,2.26c-.36,0-.3.36-.08.53a2,2,0,0,0,1.47.3,2.08,2.08,0,0,0,1.34-.71.51.51,0,0,1,.69-.13l2.08,1.17a.34.34,0,0,1,.13.51,5,5,0,0,1-3.9,2.32,4.94,4.94,0,0,1-5.76-4.45,5.15,5.15,0,1,1,10.2-1.39l.08.6c0,.32-.06.47-.38.51Zm12.67-3a.35.35,0,0,1-.43-.36c-.05-.48-.29-.7-.67-.66s-.69.39-.61,1.15l.5,5.11c0,.32-.07.47-.39.51l-2.45.24c-.32,0-.45-.1-.48-.42l-.89-9c0-.32.07-.47.39-.51l1.91-.18c.34,0,.48,0,.66.21a.33.33,0,0,0,.3.17,1,1,0,0,0,.39-.18,4,4,0,0,1,1.62-.7c1.63-.16,2.73.84,3,3.13l.08.77c0,.32-.08.47-.4.5Zm10.92-.32a1.76,1.76,0,1,0-1.62,1.94,1.73,1.73,0,0,0,1.62-1.94m3.49-.25a5.26,5.26,0,1,1-5.61-4.81,5,5,0,0,1,5.61,4.81" style="fill:#e03c31;fill-rule:evenodd"></path><path id="hotdog-graphic-a" d="M266.57,738.15a.92.92,0,0,1-.14-1.17c.15-.24.36-.52.57-.88s.31-.6.5-.94.19-.67.36-1,.5-.53.66-.86.32-.63.47-1,.14-.7.28-1,.18-.67.31-1,.3-.64.42-1,.13-.69.24-1,.37-.63.47-1,.32-.64.41-1,.11-.7.19-1.05.2-.68.26-1,.06-.69.12-1,.19-.67.23-1-.14-.71-.11-1.05,0-.68.06-1,0-.68,0-1,.23-.68.23-1,.05-.69,0-1-.25-.67-.29-1-.09-.67-.14-1-.07-.68-.13-1,0-.7-.08-1-.41-.61-.49-.93,0-.7-.15-1-.05-.71-.16-1-.4-.58-.53-.9-.27-.62-.42-.93-.21-.66-.36-1-.32-.61-.49-.91-.47-.51-.65-.8-.27-.63-.46-.92-.34-.59-.54-.87-.53-.46-.74-.73-.33-.6-.55-.87-.43-.53-.67-.78-.57-.4-.8-.65-.34-.62-.58-.86-.56-.4-.82-.64a.71.71,0,0,1,0-1c.32-.36.14-.52.46-.88s.37-.33.69-.69a.82.82,0,0,1,1.14,0c.25.24.47.51.72.75s.58.39.82.64.41.56.64.81.42.55.65.8.65.36.86.62.36.61.57.88.27.65.47.93.63.41.82.69.13.74.3,1,.4.57.56.87.54.5.69.8.08.73.22,1,.23.65.36,1,.43.57.55.89.26.64.37,1,.05.71.14,1,.28.64.37,1,.25.65.32,1,0,.71.06,1,.25.66.29,1,.17.68.21,1-.2.71-.18,1,.16.68.18,1,.19.69.19,1-.19.68-.2,1,.06.69,0,1-.27.67-.31,1-.06.68-.11,1,.1.7.05,1-.3.65-.37,1,0,.71,0,1-.12.69-.2,1-.06.7-.15,1-.4.6-.49.93,0,.71-.15,1-.46.57-.57.89-.14.69-.25,1-.34.61-.47.93-.16.68-.29,1-.21.66-.35,1-.46.55-.6.85-.08.74-.23,1-.56.5-.71.78,0,.79-.19,1.06-.65.49-.79.73a.56.56,0,0,1-.91.16c-.39-.28-.48-.15-.88-.43S267,738.43,266.57,738.15Zm-10.23-34.08a.8.8,0,0,1-.8-.77c0-.51.07-.51.1-1s0-.51,0-1,.13-.51.16-1,0-.51,0-1,.1-.5.12-1,0-.51,0-1,0-.51.08-1,0-.51.07-1,.07-.51.09-1-.12-.52-.09-1,.15-.5.17-1,.05-.5.08-1-.1-.51-.07-1a.79.79,0,0,1,.84-.66c.52,0,.52-.07,1-.08s.53,0,1.05,0l1.05,0c.53,0,.53.08,1.05.08s.52-.08,1-.09.53,0,1.05,0,.52,0,1.05,0,.52,0,1.05,0,.52-.09,1-.1.52.16,1,.16.53-.11,1.05-.11.52.09,1,.09a.71.71,0,0,1,.78.69v1c0,.48-.06.48-.05,1a.66.66,0,0,1-.7.7c-.52,0-.52.06-1,.06s-.52,0-1,0-.52,0-1,0-.52-.05-1,0-.51.08-1,.09-.52-.07-1-.06h-1c-.52,0-.52.09-1,.09s-.52,0-1,0a.75.75,0,0,0-.75.73c0,.5-.08.49-.11,1s0,.5,0,1,0,.49,0,1-.15.49-.17,1l-.06,1c0,.5.14.51.11,1s-.17.48-.2,1l-.06,1c0,.5,0,.5,0,1s0,.49-.05,1a.81.81,0,0,1-.79.8c-.48,0-.48-.17-1-.2S256.82,704.09,256.34,704.07Z" style="fill:#e03c31;fill-rule:evenodd"></path><path d="M365.81,554.13c-6.84-10.26-17.77.43-32.14,12.29s-26.73,20.41-19.9,30.67,17.78-.42,32.15-12.28,26.73-20.41,19.89-30.68" style="fill:#e03c31;fill-rule:evenodd"></path><path d="M377.58,639.14c3.82-5.6-3.88-9-12.87-13.82s-15.9-9.39-19.71-3.8,3.88,9,12.88,13.82,15.89,9.39,19.7,3.8" style="fill:#e03c31;fill-rule:evenodd"></path><path d="M124.22,628.41c-8.4-9-17.48,3.26-29.76,17.28s-23.12,24.42-14.73,33.46,17.47-3.27,29.76-17.28,23.12-24.43,14.73-33.46" style="fill:#e03c31;fill-rule:evenodd"></path><path d="M321.71,479.8c5.29-11.38,10.49-20.24,1.65-23.8s-12.2,6-17.49,17.42-10.49,20.24-1.64,23.81,12.2-6,17.48-17.43" style="fill:#e03c31;fill-rule:evenodd"></path><path d="M113.61,597.13c-4.67-9.34-11-4.12-19.41,1.12s-15.71,8.5-11,17.85,11,4.12,19.4-1.12,15.71-8.5,11-17.85" style="fill:#e03c31;fill-rule:evenodd"></path><path d="M108.92,500.22c9-5.38,3.26-11.28-2.61-19.26s-9.69-15-18.65-9.64-3.26,11.28,2.61,19.26,9.7,15,18.65,9.64" style="fill:#e03c31;fill-rule:evenodd"></path><path d="M288.11,553.45c6.48,4.82,9-1,13-7.53s7.85-11.33,1.37-16.15-9,1-13,7.53-7.86,11.34-1.38,16.15" style="fill:#e03c31;fill-rule:evenodd"></path></svg> 