<?xml version="1.0" encoding="UTF-8"?> <svg xmlns="http://www.w3.org/2000/svg" id="Layer_1" data-name="Layer 1" viewBox="0 0 400 183"><title>Whole Grain Wide Slice</title><path d="M41.64,46.26A2.79,2.79,0,0,1,45,45,41.16,41.16,0,0,1,69.26,69.58C72.43,78.2,67.28,85,59,88.08S42.27,89.3,39.1,80.68A41.12,41.12,0,0,1,41.64,46.26ZM75.07,147.8c-6.47,1.84-12.91-.83-15.26-9.11-3.22-11.29-2.14-22.87,2.36-31.29a1.82,1.82,0,0,1,2.62-.75c8.26,4.79,15.27,14.08,18.48,25.37C85.62,140.3,81.55,146,75.07,147.8Zm150.22-9.39c-8.85-.62-15.71-5.73-15.07-14.89a41.14,41.14,0,0,1,16.44-30.35,2.79,2.79,0,0,1,3.58.25,41.17,41.17,0,0,1,12,32.34C241.65,134.92,234.15,139,225.29,138.41ZM49,186.37c-7.33.89-13.84-3.1-15-12.47-1.55-12.77,1.59-25.12,7.91-33.46a2,2,0,0,1,3-.36c8.13,6.6,14.12,17.84,15.66,30.61C61.74,180.06,56.37,185.48,49,186.37Zm289.87-76.93c-5.16-2.11-8-7.13-5.3-13.73,3.67-9,10.28-16,17.52-19.2a1.51,1.51,0,0,1,2.09.85c2.94,7.34,2.77,17-.91,26C349.62,109.94,344.08,111.55,338.91,109.44Zm50.16-36.66c-8.51-2.5-14.12-9-11.53-17.77a41.12,41.12,0,0,1,22.54-26.13,2.79,2.79,0,0,1,3.45,1,41.15,41.15,0,0,1,4.85,34.17C405.79,72.87,397.59,75.28,389.07,72.78ZM134.5,142.47c-5.59,7.29-14.1,6.58-21.15,1.19s-10-13.43-4.38-20.73a41.17,41.17,0,0,1,30.43-16.28,2.79,2.79,0,0,1,2.85,2.18A41.13,41.13,0,0,1,134.5,142.47Zm59.21,13.64c-.64,9.16-8.14,13.26-17,12.64S161,163,161.64,153.86a41.13,41.13,0,0,1,16.44-30.35,2.8,2.8,0,0,1,3.58.25A41.18,41.18,0,0,1,193.71,156.11ZM9.57,7.56c7.82,6.44,13.56,17.37,15,29.75,1,9.07-4.19,14.29-11.29,15.1S-.13,49.32-1.17,40.25C-2.59,27.87.53,15.93,6.7,7.89A1.94,1.94,0,0,1,9.57,7.56ZM290,117c-8.33,3.07-16.68,1.22-19.85-7.4a41.12,41.12,0,0,1,2.54-34.42A2.79,2.79,0,0,1,276.06,74a41.13,41.13,0,0,1,24.26,24.56C303.5,107.13,298.34,113.94,290,117Zm73.63,7.24c5,12.19,4.86,28.25-1.13,43.3-4.39,11-13.6,13.81-22.24,10.37s-13.44-11.77-9-22.81c6-15.06,16.91-26.83,28.93-32.25A2.51,2.51,0,0,1,363.64,124.25Zm-91.81,43.06c1.25,10.35-4.68,16.34-12.78,17.32s-15.28-3.43-16.54-13.77c-1.7-14.11,1.76-27.75,8.74-37a2.2,2.2,0,0,1,3.27-.4C263.5,140.78,270.12,153.2,271.83,167.31Zm-245-48.22c-.65,9.16-8.15,13.26-17,12.64S-5.84,126-5.2,116.84A41.13,41.13,0,0,1,11.24,86.49a2.79,2.79,0,0,1,3.57.25A41.15,41.15,0,0,1,26.87,119.09ZM416.72,129c-.77,11-9.72,15.84-20.3,15.1s-18.76-6.83-18-17.78a49.18,49.18,0,0,1,19.63-36.25,3.35,3.35,0,0,1,4.28.3A49.16,49.16,0,0,1,416.72,129Z" style="fill:#946037;fill-rule:evenodd"></path></svg> 