<svg data-name="Layer 1" xmlns="http://www.w3.org/2000/svg" viewBox="0 0 158.97 157.35"><path d="M159 72.69c0 55.44-39.39 90.88-85.46 83.75C20.6 148.25.39 121.01 0 73.97S34.19.39 79.31 0 159 25.65 159 72.69"/><path d="M33.7 67.01a.33.33 0 0 0 .31-.35.67.67 0 0 0-.59-.66c-.2 0-.27.21-.27.38 0 .39.17.63.55.63zm-9.87 8.26c-.11-2.31.34-5.81.1-9.34-.07-1 .1-2 0-3a16.38 16.38 0 0 1 0-3.43c.11-1.29.59-1.57 1.27-1.57.44 0 .85.07 1.3.07h1.09c.72 0 1 .91 1.16 1.47 1.02 4.11 1.7 6.6 2.25 8.1a15.86 15.86 0 0 1 .68 2.5c.07.28.14.56.41.56s.31-.32.31-.49a40.74 40.74 0 0 0 .24-4.09c0-.77-.17-1.51-.17-2.94v-4.13c0-.66.31-.84.79-.84a7 7 0 0 0 .89-.21c.47 0 1-.11 1.16.39a12.33 12.33 0 0 1 .17 2.44v4.52c0 .94-.17 1.54-.17 2.24 0 .48.13.94.13 1.33 0 .55-.07 1-.07 1.6 0 1.37.11 2.84.11 4.27v1.65c0 .8-.11 4.54-.11 4.93 0 .84-.4 1.19-1.39 1.19s-1.88.07-2.16-.81a24 24 0 0 1-1.19-3.81c-.38-1.71-1-3.32-1.4-5.14-.28-1.4-.86-2.84-1.2-4.27-.07-.35-.37-1.15-.68-1.15s-.35.43-.35.76c-.1 1.68 0 3.4-.07 5.11s.11 3.46 0 5.07c-.07 1 0 1.93 0 2.91s-.38 1.33-1.06 1.33h-.92c-.65 0-1.13-.35-1.09-1.58a42.42 42.42 0 0 0-.03-5.64zM71.37 81a.55.55 0 0 0 .54-.38c.07-.21-.1-.46-.24-.32-.3.32-.47.21-.47.53 0 .14 0 .17.17.17zm-.55-2.52c0-.66.1-1.29.1-2.1 0-2-.17-4.19-.17-6.26 0-2.48.07-4.82.07-7.2 0-.77-.2-1.65-1-1.61s-1.33-.07-2-.07a1 1 0 0 1-1.09-1 8.06 8.06 0 0 1 0-1.3c.07-.59.34-.9.79-.9 1.26 0 2.08-.11 3.17-.07 1.27 0 2.56-.14 3.83 0a21 21 0 0 0 2.86 0c.52 0 .69.45.72.84a6.06 6.06 0 0 1-.24 1.67c0 .46-.44.67-.88.67a20.81 20.81 0 0 0-2.09 0 .75.75 0 0 0-.78.77 30.18 30.18 0 0 1 0 3.92c-.2 1.53.24 4.12.11 6.43-.11 1.51.1 3.08 0 4.52-.14 1.74.13 3.28 0 4.86a.92.92 0 0 1-.89.87 16.86 16.86 0 0 1-1.81-.14.77.77 0 0 1-.62-.77c.02-.54-.08-2.71-.08-3.13zm43.34-8.85a2.45 2.45 0 0 0 1.09-.38c1.5-1 1.33-1.89 1.47-3.5 0-.14.17-.7.17-.94 0-1.12-.14-3.64-2-3.64-1.7 0-2.08.14-2.15 1.33a16.11 16.11 0 0 0-.06 2.87c.13 1 0 2.1.06 3.14.02.74.36 1.12 1.42 1.12zm-4.48-1.08c.24 0 .45 0 .45-.35 0-.18-.21-.32-.45-.32s-.2.14-.2.32c0 .35 0 .35.2.35zm-.54 7.38v-1.08c0-.67.11-1.3.11-1.89 0-.14-.07-2-.07-3.5 0-.56 0-1.12.07-1.71.06-1.37-.11-2.91 0-4.48.07-1.26.1-2.42.1-3.61 0-.94.31-1.57 1.88-1.71 1.23-.1 2.56.07 3.9 0a7.67 7.67 0 0 1 2.18.42 5.1 5.1 0 0 1 2.91 4.44 20.1 20.1 0 0 1 0 3.47 8.07 8.07 0 0 1-1 3c-.27.45-.82.94-.82 1.36s.44.56.92 1.37a9.33 9.33 0 0 1 .82 4.09v4.58c0 .42.44.88.24 1.37s-1.68.38-2.12.38c-1.47 0-1.5-1-1.5-1.92 0-5.42 0-8.12-2.6-8.12-.85 0-1.37 0-1.37.81 0 1.64-.24 3.18-.1 4.79a30.57 30.57 0 0 1 .1 3.25c0 1-.61 1.19-2 1.19-.79 0-1.5-.31-1.57-1.05-.22-1.78-.01-3.63-.08-5.45zm-81.42 31a3.37 3.37 0 0 0 3-.84 12.59 12.59 0 0 0 .28-3.34c0-2-1-2.72-2.29-2.72-.86 0-1.56-.1-1.62 1 0 .75-.06 2.18-.06 2.44s.06 2.25.06 2.74a.77.77 0 0 0 .63.7zM29 90.82c-.49 0-.85-.06-1.25 0a.76.76 0 0 0-.7.72c-.18 1.72.09 3.06 0 4.72 0 .75.73.78 1.25.78 2 0 2.29-1.31 2.29-3v-1.31c0-.85-.67-1.91-1.59-1.91zm4.52 12.53c.24 0 .52.69.52 1.13a6.32 6.32 0 0 1-1 3.56 11.2 11.2 0 0 1-.89 1c-.82.84-3 .84-4.08.84s-2.05-.12-3.12-.12c-1.28 0-1.16-1.6-1.16-2.35 0-.59.1-.87.1-1.53 0-1.5-.1-3-.1-4.53 0-1 .1-1.91.1-3 0-.87-.1-1.72-.1-2.59 0-1.63.1-2.81.1-4.41 0-.75-.1-1.44-.1-2.19 0-.93.86-1.31 1.68-1.31 1.22 0 2.23-.06 3.54-.06 2 0 4.73 1.22 4.73 4.28a9.88 9.88 0 0 1-.55 4.31c-.33.72-1 1.38-1 1.85s.43.69.68 1.09a5.59 5.59 0 0 1 1.13 2.69c0 1.09-.15.72-.7.72-.09 0-.15 0-.15.15a.41.41 0 0 0 .4.47zm11.13-.65c-.21 0-.49.15-.49.34s.06.28.22.28a.41.41 0 0 0 .42-.47c.03-.12.03-.15-.12-.15zm-3.81.37c1 0 2.22.16 2.22-.94a35.49 35.49 0 0 0-.54-4.5c-.19-1.31-.34-3.68-1-3.68-.27 0-.4.28-.43.56-.15 1-.3 1.81-.55 2.94a3.65 3.65 0 0 0-.24.9v.66c0 1.16-.34 2.06-.34 3.12.04.6.36.94.91.94zm-4.43 4.12c0-1.21.58-2.21.58-3.18a17.33 17.33 0 0 1 .31-2.47c.52-4.41 1.1-7 1.55-9.84s-.27-3.85 2.23-3.85c2.66 0 3.17.22 3.17 1.53 0 .57 1 5.63 1.35 9.06.21 1.94.85 4.54 1.19 7 .06.5.39 2.75.39 3.18 0 .78-.09 1.1-2.25 1.1-1 0-.8-1.88-1-3-.31-1.53-2.62-1.06-3.82-1.06s-.91 2.56-1.37 3.5c-.24.53-.43.65-1.46.65-.61 0-1.07-.34-1.07-.87.02-.74.23-.81.23-1.75zm15-.71c.13 0 .19 0 .19-.16a.17.17 0 0 0-.19-.19.15.15 0 0 0-.15.16c.07.15.13.19.22.19zm-1.49 0c0-.41.15-.75.15-1.47s-.18-2.78-.18-3.82v-1.84c0-.31.21-.87.21-1.53s-.1-1.12-.1-1.94c-.09-1.06.15-2.06 0-3.56-.09-.81 0-2.78 0-3.37a1 1 0 0 1 .73-1.07 5.64 5.64 0 0 1 1.25-.06c.52 0 1 .31 1 .78a5.85 5.85 0 0 1 .02 1.13 5.87 5.87 0 0 0 0 1.65 21.81 21.81 0 0 1 .09 2.75 8.53 8.53 0 0 0 0 1.75c.06.38.18.6.4.6s.52-.41.61-.66a9.4 9.4 0 0 1 .85-2c.09-.09.21-.16.28-.22s.06-.53.39-1.18c.09-.19.46-.82.8-1.63.18-.41.79-1.75 1.09-2.22a1.46 1.46 0 0 1 .86-.72 6.08 6.08 0 0 1 1.65 0 .53.53 0 0 1 .55.6 5.5 5.5 0 0 1-.65 1.84l-2.36 4.78c-.16.28-.52 1.47-.74 2-.48 1.09.09 2.56.52 3.56.67 1.56 1.31 2.85 1.65 4 .43 1.5.85 2.38 1.09 3.07a3.66 3.66 0 0 1 .37 1.56c-.12.88-1.16.53-2.07.53s-1.19-.82-1.47-1.66c-.15-.5-.42-1-.57-1.5-.46-1.44-1.1-2.59-1.53-4.19-.09-.41-.28-.84-.61-.84-.49 0-1 .94-1.1 1.37-.06.66-.09 1.35-.09 1.88 0 .34.09 1.59.09 2.62a10.58 10.58 0 0 1 0 1.69c-.15.91-1.52.75-2 .75s-1.1-.34-1.1-1.28v-2.15zm18.64-7.32c.15 0 .15-.09.15-.18a.29.29 0 0 0-.24-.28c-.09 0-.09.06-.09.15s.1.31.25.31zm2.26-8.37H68c-1.44 0-1.68.22-1.68 2 0 1 .06 1.81.06 2.75v.81c0 .88.49 1 1.16 1h2.41a.83.83 0 0 1 1 .84c0 .32-.19.69-.19 1 0 .88-.15 1-2 1-1.68 0-2.26 0-2.26.82v2.37a12 12 0 0 0 0 2.59c.12 1.13 1 1 1.86 1 1.35 0 2 .1 2.5.07 1.35-.1 1.47.4 1.47 1.37 0 .41.12 1.25-1.1 1.41a29.22 29.22 0 0 1-4 0c-.67 0-1.1-.06-1.8-.06h-.88c-.83 0-1.13-.6-1.22-1.57-.15-1.68.15-3.53 0-5.53a38.76 38.76 0 0 1 .12-7.28c0-.93-.12-1.65-.12-2.5s.09-2.62.09-3.47c0-1.28.91-1.59 2.47-1.59.31 0 1.59.09 1.8.09a27.88 27.88 0 0 1 3.54 0c1 .13 1.13.63 1.13 1.82s-.83 1.06-1.47 1.06zm12 10.75c.12 0 .33-.28.33-.5s-.21-.28-.33-.28-.34.12-.34.25.27.53.43.53zm-8 3.37c.09-1.4-.12-3.06-.06-4.59.09-1.94 0-4.78 0-7.22a14.71 14.71 0 0 1 .18-2.56c.07-.34 0-1.41.1-1.84.15-.78 1.31-.78 1.83-.78s.88.37 1 1 .13 4.62.13 5.46v1.41c0 1.41.13 1.59 2.23 1.47s1.97-.19 1.97-3.19c0-.56-.06-1.12-.06-2.78 0-1.19-.36-3.16 1.1-3.16.4 0 .7-.25 1.19-.25.86 0 .89.91.89 1.47 0 1.25.06 2.53 0 3.88-.1 1.69 0 3.37 0 5.09 0 1.47-.19 3.06-.19 5.38 0 .75.19 2.37.19 3.81 0 .81.18 2.22-1.1 2.22-.4 0-.8-.16-1.19-.16-1 0-.86-1.19-.89-1.66a12.62 12.62 0 0 1 0-2.37 20.85 20.85 0 0 0 0-2.5 11.77 11.77 0 0 0 0-1.88c-.15-1-.33-1.09-1.4-1.09-.67 0-1.31.1-2 .13s-.64.43-.64 1.25c0 1.15.06 2.28 0 3.46-.09 1.38.07 2.69 0 3.91-.06.94-.7 1-1.22 1s-1.67.06-1.8-.78a9.88 9.88 0 0 1-.15-1.81c-.08-.79-.08-1.54-.02-2.32zm20.81-4.31a.38.38 0 0 0 .24-.31.31.31 0 0 0-.27-.34c-.15 0-.28 0-.28.31s.22.4.4.34zm-4.3 3.28c0 1.63.21 3.19 1.92 3.19 1.25 0 1.8-1.09 1.8-2.19 0-1.5-.12-3-.12-4.46a2.43 2.43 0 0 1 .09-.82 4.73 4.73 0 0 0 .09-2v-4.53c0-1.25-.46-2.72-1.89-2.72s-2 1.28-2 2.5v4.5a20.86 20.86 0 0 1 .09 2.22 11.27 11.27 0 0 1-.28 2.41c.17.78.39 1.21.39 1.9zm-3 0c0-.34.12-.65.12-1s-.12-.78-.12-3.24c0-2.66.09-3.13.09-3.54 0-1.12-.09-2.25-.09-3.37 0-3 1.49-5 3.72-5 .73 0 1-.25 1.71-.25a3.72 3.72 0 0 1 2.53.81 5.26 5.26 0 0 1 1.86 4.38c-.09 1.84.15 3.68 0 5.5-.15 2.4.15 4.15 0 7.18a5.89 5.89 0 0 1-1.58 3.5 5.17 5.17 0 0 1-3.42 1.13c-2 0-4.46-1.41-4.7-3.84.04-.82.01-1.79.01-2.23zM102 90.7c.09 0 .12-.1.12-.19s-.06-.19-.18-.31-.12 0-.12.12.03.38.18.38zm-.85 12.71a37.94 37.94 0 0 1 .06-5.87 25.87 25.87 0 0 0 0-3.41 19.56 19.56 0 0 1-.06-2.34c0-.81.24-.78.24-1.13s-.21-1-.21-1.71c0-.47.21-1 .79-1s.76-.1 1.44-.1a.77.77 0 0 1 .85.69c0 .16.06.84.06 1.06 0 1.16-.06 2.35-.06 3.75 0 .28.06.56.06.88v7.25c0 .59 0 3.37.09 4.18a1.77 1.77 0 0 0 1.71 1.6 1.85 1.85 0 0 0 1.83-1.79c.06-1-.15-1.56-.09-2.49.12-2.07-.18-4-.06-6.28a21 21 0 0 0 0-2.38c-.12-1.75.15-3.47 0-4.72s.33-1.62 1-1.62a7.23 7.23 0 0 1 1.16-.07c.42 0 .79.5.76 1.19-.12 3.72.15 6.69 0 8.06-.09 1 .09 2 0 3-.15 1.93.12 3.34 0 5.12a7.68 7.68 0 0 1-.46 1.75 4.72 4.72 0 0 1-.67 1.37 5.82 5.82 0 0 1-4.27 1.6 2.77 2.77 0 0 1-1.22-.22 3.92 3.92 0 0 1-1.38-.63 4.86 4.86 0 0 1-1.58-4 16.42 16.42 0 0 0 .04-1.74zm20.32 2.29c.33 0 .36-.16.36-.41s-.09-.41-.36-.41a.45.45 0 0 0-.46.44c-.01.25.21.38.49.38zm-7.57-.41c0-.34-.12-.69-.12-1 0-1.69.45-1.75 1.4-1.75.31 0 1.13 0 1.13.9v1.35c.09 1.43.85 2.4 2 2.4s1.83-.87 1.83-2.12a5.71 5.71 0 0 0-1.61-3.91c-.37-.43-1.1-.87-1.38-1.25a11.79 11.79 0 0 0-1.52-1.56 7.89 7.89 0 0 1-2-4.66 8.87 8.87 0 0 1 .68-3.81 4.87 4.87 0 0 1 3.84-2.22c1.31 0 3.39.41 4.15 1.76a5.92 5.92 0 0 1 .52 1.46 8.38 8.38 0 0 1 .46 2.16c0 .53-.06.81-.67.94a10.24 10.24 0 0 0-1 .22 1 1 0 0 1-1.22-1c0-1.54-.31-2.72-2.17-2.72a1.09 1.09 0 0 0-1.13.81 2.46 2.46 0 0 0-.36 1.47c0 2.81 1.64 3.47 3 5 .33.34.67 1.06 1.1 1.53s1.58 1.15 1.58 2.31a3.08 3.08 0 0 0 0 .91c.15.53.49.46.7.84a2.79 2.79 0 0 1 .16 1.25c0 2.44-1.1 5.47-4.37 5.47h-1a5.3 5.3 0 0 1-2.16-.78 4.11 4.11 0 0 1-1.83-2.88c-.04-.34.02-.71.02-1.12zm17.63-6.13c.15 0 .15-.09.15-.18a.29.29 0 0 0-.24-.28c-.09 0-.09.06-.09.15s.06.31.21.31zm2.26-8.37h-2.9c-1.43 0-1.68.22-1.68 2 0 1 .06 1.81.06 2.75v.81c0 .88.49 1 1.16 1h2.41a.83.83 0 0 1 .95.84c0 .32-.18.69-.18 1 0 .88-.16 1-2 1-1.67 0-2.25 0-2.25.82v2.37a12.27 12.27 0 0 0 0 2.59c.13 1.13 1 1 1.86 1 1.35 0 2 .1 2.51.07 1.34-.1 1.46.4 1.46 1.37 0 .41.12 1.25-1.1 1.41a29.07 29.07 0 0 1-4 0c-.67 0-1.1-.06-1.8-.06h-.89c-.82 0-1.13-.6-1.22-1.57-.15-1.68.15-3.53 0-5.53a38.76 38.76 0 0 1 .12-7.28c0-.93-.12-1.65-.12-2.5s.09-2.62.09-3.47c0-1.28.92-1.59 2.47-1.59.31 0 1.59.09 1.8.09a27.88 27.88 0 0 1 3.54 0c1 .13 1.13.63 1.13 1.82s-.75 1.06-1.39 1.06zM97.57 50.33a.25.25 0 0 0 .13-.18.15.15 0 0 0-.14-.17c-.08 0-.14 0-.14.19s.06.2.15.16zm-.25-4.12c.2 0 .37-.1.55-.13s.4 0 .58 0 .38-.1.56-.14.37-.16.54-.21.4 0 .57-.1.38-.12.55-.19.32-.24.48-.33a4.72 4.72 0 0 0 .5-.3 2.7 2.7 0 0 0 .41-.42 2.84 2.84 0 0 0 .25-.53 3.61 3.61 0 0 0 .12-.57 2.33 2.33 0 0 0 .09-.55 1.71 1.71 0 0 0-.13-.54 1.38 1.38 0 0 0-.36-.43 1.56 1.56 0 0 0-.5-.25 1.9 1.9 0 0 0-.54 0 3.31 3.31 0 0 0-.55.05 3.2 3.2 0 0 0-.52.18 2.39 2.39 0 0 0-.53.19c-.16.1-.25.29-.38.42a3.78 3.78 0 0 0-.4.4 5.37 5.37 0 0 0-.35.45c-.09.16-.18.33-.26.51s-.08.37-.15.55a4.9 4.9 0 0 0-.24.52 5.21 5.21 0 0 0-.08.57c0 .18-.13.36-.16.55s-.18.16-.05.3zM80.47 42.5c0-.3 0-.3.06-.6a.33.33 0 0 0-.32-.41c-.28 0-.28-.05-.57-.05h-1.7c-.28 0-.28.06-.56.06h-1.69a.38.38 0 0 0-.35.31c0 .29-.08.29-.12.57s0 .29-.09.58 0 .29-.07.58-.09.28-.14.56l-.1.57-.1.57c0 .29-.06.29-.11.57s0 .29-.07.58-.07.28-.12.57 0 .29-.06.57 0 .29-.07.58-.06.37-.07.54a3.25 3.25 0 0 0 0 .55 1.7 1.7 0 0 0 .17.51 1.34 1.34 0 0 0 .26.49 1.45 1.45 0 0 0 .5.24 1.9 1.9 0 0 0 .54 0 2.24 2.24 0 0 0 .58-.06 2.87 2.87 0 0 0 .54-.24 3.73 3.73 0 0 0 .48-.33 3.91 3.91 0 0 0 .49-.34 5.92 5.92 0 0 0 .41-.45c.11-.15.21-.33.33-.5s.15-.37.25-.55.26-.28.37-.48.19-.34.28-.53.13-.38.2-.57.08-.39.14-.58.11-.39.15-.58 0-.21 0-.3c.06-.3.08-.3.15-.6s.08-.3.13-.6 0-.31.08-.61.14-.31.2-.62zm-6.44 1c0 .08 0 .09.08.08a.31.31 0 0 0 .28-.23c0-.11 0-.23-.12-.15s-.27.12-.27.28zm.38-3.56c-.2 0-.2.16-.2.33 0 .34 0 .34.2.32s.43 0 .43-.4c0-.19-.2-.3-.43-.27zm-6.34 11.22a.19.19 0 0 0 .16-.2.3.3 0 0 0-.3-.31c-.1 0-.13.12-.13.22s.08.31.27.29zm-9.26-6.68c.18.06.32 0 .36-.18a.2.2 0 0 0-.17-.23.3.3 0 0 0-.39.19c.02.12.12.19.2.22zm1.62-.92c0 .3-.15.29-.19.59 0 .11.17.19.24.1s.27-.28.38-.44.21-.32.32-.48.14-.37.24-.54.22-.31.31-.49.22-.32.31-.49l.24-.53c.08-.18.17-.35.24-.54s.08-.38.15-.57.23-.32.3-.5.06-.39.13-.58.11-.37.17-.55.21-.35.26-.53 0-.4.08-.58l.15-.56c.05-.19.16-.37.2-.55s0-.4.07-.58.09-.39.12-.57.07-.4.1-.59 0-.4 0-.59.1-.39.12-.58.06-.4.07-.59 0-.41 0-.59a4 4 0 0 0 0-.59 1.7 1.7 0 0 0-.14-.58.55.55 0 0 0-.49-.33.93.93 0 0 0-.51.23 2.05 2.05 0 0 0-.37.43 4.87 4.87 0 0 0-.25.51 4.8 4.8 0 0 0-.26.51c-.06.16-.14.34-.2.53s-.1.36-.15.55-.17.35-.21.54-.06.38-.09.57 0 .38 0 .58-.13.29-.19.59 0 .32 0 .62-.07.29-.11.6-.08.29-.13.59-.07.3-.12.59 0 .31-.07.61-.07.29-.12.59 0 .31-.06.61 0 .3-.05.6-.11.29-.16.59 0 .3 0 .6-.13.29-.17.59 0 .3-.06.6-.06.3-.1.6zm5.11-13.37a.3.3 0 0 0-.39.18c0 .11.07.18.16.21s.32 0 .36-.17a.2.2 0 0 0-.13-.22zm16.64 7.82a.28.28 0 0 0-.24.26c0 .13.1.18.24.17s.18-.11.18-.24-.04-.21-.18-.19zm7.3 5.66c0 .3 0 .3-.08.6 0 .11.11.15.18.07s.31-.25.42-.41.16-.35.27-.52.18-.33.28-.5.26-.3.35-.47.1-.38.19-.56.19-.34.27-.51.19-.34.27-.52l.22-.54c.08-.18.11-.37.18-.55s.22-.34.28-.52 0-.4.11-.58.15-.36.21-.54.12-.37.17-.56 0-.39.09-.57.15-.37.19-.56.1-.37.14-.56 0-.39.07-.58.07-.39.1-.59.11-.38.14-.58 0-.4 0-.59.08-.4.1-.59 0-.4 0-.59a4.71 4.71 0 0 0-.06-.58 1.55 1.55 0 0 0-.16-.56.49.49 0 0 0-.44-.32.81.81 0 0 0-.53.18 2 2 0 0 0-.4.41 5.11 5.11 0 0 0-.25.52c-.08.16-.12.34-.2.53a5 5 0 0 0-.26.52c-.06.17 0 .38-.09.57s-.18.34-.22.54 0 .38-.07.57-.07.37-.1.57-.07.3-.12.6-.08.29-.12.6 0 .31 0 .61-.15.28-.19.59 0 .3-.05.6 0 .3-.08.6-.09.29-.14.59 0 .31 0 .61-.09.3-.14.59-.07.3-.12.6 0 .3-.07.6 0 .31 0 .61-.1.28-.14.58-.15.29-.2.59zm4.75-7.37c-.09 0-.2.09-.2.17s.11.29.2.28a.42.42 0 0 0 .19-.31c0-.09-.13-.15-.19-.14zm.42-3.23c-.05.24 0 .6.24.67s.31 0 .34-.13a.55.55 0 0 0-.38-.66c-.13 0-.17-.01-.2.12zm12.62 15.09c.1.25.12.24.22.48a.33.33 0 0 1-.06.37c-.16.14-.35.23-.5.36s-.31.3-.46.42-.39.18-.55.3-.31.27-.48.39l-.51.33-.51.35c-.17.11-.31.29-.48.4v-.07c-.16.09-.31.19-.48.27s-.31.18-.49.25-.34.14-.51.19-.36.06-.54.1-.37 0-.55 0l-.54.06c-.19 0-.36.09-.54.1h-1.16a5.08 5.08 0 0 1-.59-.15 3.94 3.94 0 0 1-.61-.06 2.8 2.8 0 0 1-.57-.22 3.94 3.94 0 0 1-.55-.26 3.66 3.66 0 0 1-.44-.44 3 3 0 0 1-.45-.42.25.25 0 0 0-.39-.06 3.64 3.64 0 0 1-.45.43 4.63 4.63 0 0 1-.48.4 4 4 0 0 1-.6.39c-.19.09-.4.13-.59.2a5.76 5.76 0 0 1-.59.18 4.21 4.21 0 0 1-.62 0h-.61a5.19 5.19 0 0 1-.56 0 3.9 3.9 0 0 1-.58.05 5 5 0 0 1-.56-.11 4.29 4.29 0 0 1-.54-.19 5 5 0 0 1-.53-.23 4.91 4.91 0 0 1-.5-.28 3.25 3.25 0 0 1-.32-.42 3.89 3.89 0 0 1-.38-.43 4.06 4.06 0 0 1-.26-.51.33.33 0 0 0-.49-.11c-.14.14-.25.3-.39.43s-.26.3-.41.42a5 5 0 0 1-.47.33c-.16.11-.34.2-.5.29s-.34.19-.51.27-.36.12-.54.19-.36.14-.53.19-.38.11-.56.14a3.46 3.46 0 0 1-.56 0 3.63 3.63 0 0 1-.58 0 3.27 3.27 0 0 1-.56-.1 2.77 2.77 0 0 1-.53-.2 2.34 2.34 0 0 1-.45-.37 1.92 1.92 0 0 1-.36-.44 2.48 2.48 0 0 1-.31-.5.4.4 0 0 0-.68-.11 6.14 6.14 0 0 1-.43.45 5.85 5.85 0 0 1-.47.4c-.17.12-.36.2-.53.31a16.81 16.81 0 0 1-1.11.52c-.2 0-.4.08-.6.11a4.28 4.28 0 0 1-.62 0 5.25 5.25 0 0 1-.57 0 4.42 4.42 0 0 1-.55-.14 3.05 3.05 0 0 1-.53-.2 2.1 2.1 0 0 1-.46-.32 2.32 2.32 0 0 1-.38-.44 2.76 2.76 0 0 1-.3-.5.37.37 0 0 0-.65-.1c-.13.15-.28.27-.41.41s-.31.23-.45.35a4.94 4.94 0 0 1-.45.35 3.5 3.5 0 0 1-.49.29 34.44 34.44 0 0 1-1.08.37 5.48 5.48 0 0 1-.57 0 2.92 2.92 0 0 1-.54-.08 2 2 0 0 1-.51-.17 1.76 1.76 0 0 1-.47-.25 1.52 1.52 0 0 1-.31-.44 2 2 0 0 1-.26-.48 2.85 2.85 0 0 1-.13-.54c0-.3-.32-.49-.53-.28s-.23.37-.37.5a6 6 0 0 1-.49.36 5.5 5.5 0 0 1-.45.42 1.89 1.89 0 0 1-1.09.48 4.16 4.16 0 0 1-.6.13l-.61.05H60.8a4.9 4.9 0 0 1-.55-.13 4.68 4.68 0 0 1-.53-.17 3.26 3.26 0 0 1-.48-.27 4 4 0 0 1-.5-.28 3.45 3.45 0 0 1-.29-.5 3.88 3.88 0 0 1-.32-.47c-.07-.17-.18-.34-.24-.53s-.27-.31-.4-.17a5.9 5.9 0 0 1-.39.46 4.4 4.4 0 0 1-.52.3 5.9 5.9 0 0 1-.47.37c-.17.1-.36.17-.53.25s-.38.13-.56.2-.38.12-.56.19-.35.21-.53.26-.4 0-.58.1-.38.18-.55.22a4.76 4.76 0 0 1-.59.06c-.3.08-.46.14-.52-.26s-.11-.25-.16-.52 0-.28 0-.54.11-.43.4-.48a4.85 4.85 0 0 0 .59-.1c.18 0 .4-.06.6-.13s.37-.17.56-.25.36-.19.55-.28.38-.13.56-.23l.54-.3c.18-.1.37-.16.55-.27s.35-.21.52-.33l.48-.37a6.09 6.09 0 0 0 .44-.44c.15-.14.31-.27.45-.42a.19.19 0 0 0 0-.08c0-.27.09-.55.14-.85s.07-.3.12-.6 0-.3.09-.6 0-.31 0-.61.08-.3.14-.6 0-.3 0-.6 0-.3.08-.6l.1-.6c.05-.3.14-.28.19-.58s0-.31 0-.61.14-.28.19-.58 0-.3.09-.6 0-.3.09-.6.05-.29.11-.59 0-.3.09-.6 0-.3.06-.6.08-.29.13-.59l.1-.59c.05-.3.07-.29.12-.59l.1-.59c.05-.3 0-.3.07-.6s.05-.4.1-.59a5.61 5.61 0 0 1 .13-.59c0-.2.19-.36.25-.55s.13-.38.21-.56l.24-.54c.09-.18.16-.38.25-.54s.23-.33.34-.49a5.66 5.66 0 0 1 .4-.44c.13-.15.23-.33.37-.47a3.86 3.86 0 0 1 .44-.38 5 5 0 0 1 .49-.35 3.14 3.14 0 0 1 .56-.2 2.33 2.33 0 0 1 .59 0 2.21 2.21 0 0 1 .58 0 2 2 0 0 1 .53.25 1.82 1.82 0 0 1 .41.42 2.2 2.2 0 0 1 .35.48 4.08 4.08 0 0 1 .22.56 5.35 5.35 0 0 1 .06.59c0 .2.07.39.09.59s.11.38.12.59-.08.39-.09.59 0 .4 0 .6v.59c0 .19-.08.39-.12.59s0 .4 0 .6l-.12.6c0 .2-.13.38-.18.58s0 .41-.08.61-.19.37-.24.56-.05.41-.1.61l-.18.58c-.06.2-.07.41-.14.6s-.15.37-.22.57-.15.37-.23.56-.12.39-.2.58-.18.36-.26.55-.19.35-.28.54-.22.33-.32.51-.14.39-.24.56-.19.36-.3.53h-.09c-.09.16-.12.38-.24.56s-.26.29-.38.46l-.39.46c-.12.15-.22.32-.36.48l-.4.44c-.13.15-.27.29-.41.44s-.25.31-.39.45-.27.29-.42.43-.33.22-.47.36 0 .06 0 .09a3.7 3.7 0 0 0 0 .59 2.44 2.44 0 0 0 0 .6 2.17 2.17 0 0 0 .22.56 1.4 1.4 0 0 0 .42.42 1.86 1.86 0 0 0 .55.2 2.62 2.62 0 0 0 .56.21 3 3 0 0 0 .59 0c.18 0 .38 0 .59-.05a1.83 1.83 0 0 0 .64-.23 3.27 3.27 0 0 0 .55-.4c.14-.12.3-.28.52-.45s.27-.28.43-.42.26-.29.4-.45.28-.27.41-.43.24-.32.35-.49.24-.33.34-.52.16-.37.23-.56.08-.4.15-.6.13-.38.18-.59a5.63 5.63 0 0 0 .08-.61c.06-.31.13-.29.19-.6s0-.32 0-.63.1-.3.15-.61.06-.31.11-.61.08-.31.14-.61.05-.31.11-.61 0-.31.08-.62.08-.3.14-.61.12-.34.28-.34c.35 0 .35.08.69.08s.35-.07.7-.07a.36.36 0 0 1 .3.45c-.05.29 0 .29-.07.58s-.12.28-.17.58 0 .29-.08.58-.07.28-.12.57 0 .3-.08.58 0 .3 0 .59l-.1.58c-.05.29-.05.28-.11.57s-.05.29-.1.58 0 .29-.08.58-.07.28-.12.57-.08.29-.13.57l-.1.58v.59c0 .29 0 .28-.1.57a4.34 4.34 0 0 0-.07.58 2.09 2.09 0 0 0 0 .58.88.88 0 0 0 .3.51 1.14 1.14 0 0 0 .58.06 1.27 1.27 0 0 0 .52-.12 1.8 1.8 0 0 0 .5-.25 4.83 4.83 0 0 0 .41-.39c.12-.13.21-.31.34-.47s.2-.32.32-.49.2-.33.31-.5.28-.28.38-.45.17-.36.25-.54.14-.37.21-.56a4.74 4.74 0 0 0 .15-.57c0-.19 0-.38.09-.59s.14-.26.19-.54 0-.27.09-.55 0-.28.07-.56 0-.28.06-.56 0-.28.07-.55.09-.27.14-.55a.35.35 0 0 0-.31-.43h-.52c-.26 0-.26-.08-.51-.08h-.52a.36.36 0 0 1-.35-.42c.06-.35.13-.34.2-.69s0-.37 0-.72a.41.41 0 0 1 .37-.33h1.19c.29 0 .29-.08.59-.08a.34.34 0 0 0 .37-.25c.05-.28 0-.28.05-.56s.09-.28.14-.56 0-.29 0-.57.09-.27.13-.55l.1-.55v-.57a.38.38 0 0 1 .39-.27h1.36a.35.35 0 0 1 .31.43v.63c0 .31-.1.3-.16.61s0 .31-.08.62l-.1.62c0 .31 0 .31-.11.61s.08.46.29.46h1.13c.28 0 .28.06.57.06h2.25c.28 0 .29-.05.57-.05a.3.3 0 0 0 .3-.28c0-.28.13-.26.18-.54s0-.3 0-.58l.1-.56c0-.28.06-.27.11-.55s0-.28.07-.56.1-.27.15-.55a.31.31 0 0 1 .32-.28c.34 0 .34-.07.68-.07h.68a.39.39 0 0 1 .32.47c-.06.31-.06.31-.11.62s0 .32-.06.63-.13.29-.18.6 0 .32 0 .63-.14.29-.19.6a.43.43 0 0 0 .37.49h.54c.28 0 .28-.06.55-.06h1.63a.34.34 0 0 1 .3.43c-.06.35 0 .37-.06.72s-.14.34-.2.69c0 .18-.14.34-.3.34h-1.19c-.3 0-.29.11-.59.11s-.29-.1-.59-.1-.29.09-.58.09a.29.29 0 0 0-.29.27c-.05.29-.13.28-.18.56s0 .29-.09.58-.07.28-.12.57l-.1.57v.59c0 .29-.13.27-.18.55s0 .3 0 .59-.07.28-.12.57-.1.27-.15.56 0 .28-.09.57 0 .29-.08.57-.06.38-.07.55a3.21 3.21 0 0 0 0 .55 2.06 2.06 0 0 0 .11.55 1.37 1.37 0 0 0 .34.44 1.41 1.41 0 0 0 .51.18 1.73 1.73 0 0 0 .52.14 2.05 2.05 0 0 0 1.08-.54 2.94 2.94 0 0 0 .53-.27 10 10 0 0 0 .79-.9 4.43 4.43 0 0 0 .38-.46c.11-.16.24-.3.35-.49s0-.08 0-.08.18-.31.28-.5.17-.33.25-.51.2-.33.27-.52a4.87 4.87 0 0 0 .21-.53c.06-.19.09-.38.13-.57s0-.3 0-.59 0-.29.07-.58.12-.28.17-.56 0-.3.05-.59.13-.27.18-.56-.06-.3 0-.59.09-.28.14-.56.11-.28.15-.57 0-.29.08-.58.06-.28.11-.57 0-.3 0-.59.08-.28.13-.56l.1-.57c0-.29.07-.28.12-.57s0-.29.09-.57l.1-.57c.05-.29.07-.29.12-.57s0-.28.1-.57 0-.29.06-.57a5.79 5.79 0 0 1 .07-.6 5.49 5.49 0 0 1 .2-.57c0-.2.11-.39.17-.57s.13-.38.21-.56.17-.37.26-.54.19-.35.29-.52.2-.35.31-.51a5.36 5.36 0 0 1 .34-.49 5.66 5.66 0 0 1 .4-.44 4.68 4.68 0 0 1 .49-.33 3.64 3.64 0 0 1 .48-.35 2.34 2.34 0 0 1 .55-.22 1.92 1.92 0 0 1 .58-.07 2.13 2.13 0 0 1 .58.11 2 2 0 0 1 .55.2 2.12 2.12 0 0 1 .44.41 3.82 3.82 0 0 1 .24.54 3 3 0 0 1 .26.54 5 5 0 0 1 .12.58c0 .19 0 .39.06.59s0 .39 0 .59.09.4.08.6 0 .4 0 .6-.08.39-.11.58a5.6 5.6 0 0 1-.07.59c0 .2-.09.39-.13.59s-.1.38-.14.58-.09.38-.13.58 0 .41-.06.61-.08.39-.13.58-.18.37-.23.56-.06.4-.12.59-.17.37-.23.56 0 .4-.12.59a5.36 5.36 0 0 1-.26.54c-.07.19-.13.38-.21.56s-.15.37-.24.56-.15.36-.24.54-.24.33-.33.5-.16.37-.26.54-.19.35-.3.52l-.33.51c-.11.16-.18.36-.3.52s-.32.25-.44.41-.22.33-.35.49-.24.31-.37.46-.3.26-.45.4-.26.3-.4.43l-.46.38c-.15.13-.27.3-.43.42a1.65 1.65 0 0 0 0 .56 3.73 3.73 0 0 0 .13.59 3.32 3.32 0 0 0 .2.58 2.8 2.8 0 0 0 .38.47 1.75 1.75 0 0 0 .47.37 2.1 2.1 0 0 0 .54.27 3.5 3.5 0 0 0 .59.08 3.79 3.79 0 0 0 .6.07 5.25 5.25 0 0 0 .59-.16 2.36 2.36 0 0 0 .57 0 3.49 3.49 0 0 0 .53-.24 3.41 3.41 0 0 0 .49-.32 3.33 3.33 0 0 0 .4-.43 3.44 3.44 0 0 0 .31-.51 3.09 3.09 0 0 0 .29-.51c.07-.17.11-.37.17-.57s0-.41 0-.62 0-.41.07-.62.1-.39.14-.6 0-.41.06-.6.08-.4.13-.59.14-.38.2-.57.12-.38.2-.57.17-.36.25-.54.12-.39.21-.56.23-.34.33-.5.26-.31.37-.47.27-.29.4-.44a5.33 5.33 0 0 1 .4-.42c.15-.14.24-.35.39-.46a4.52 4.52 0 0 1 .53-.28 5.21 5.21 0 0 1 .52-.28 5 5 0 0 1 .53-.23 8.46 8.46 0 0 0 1.13-.34 4.12 4.12 0 0 1 .59.07c.21 0 .41-.07.6 0a5.09 5.09 0 0 1 .59.14 3.16 3.16 0 0 1 .57.17 2.49 2.49 0 0 1 .5.35 2.46 2.46 0 0 1 .41.44 2.41 2.41 0 0 1 .33.5 2.79 2.79 0 0 1 .18.58 3.76 3.76 0 0 1 .1.6 4.1 4.1 0 0 1 0 .62 5.26 5.26 0 0 1-.15.6 4 4 0 0 1-.1.6 4.68 4.68 0 0 1-.23.56 4 4 0 0 1-.23.57 4.33 4.33 0 0 1-.38.47 3.47 3.47 0 0 1-.45.4 3.49 3.49 0 0 1-.43.43 4.4 4.4 0 0 1-.52.3c-.17.1-.35.17-.54.27l-.55.24c-.18.08-.33.23-.53.31s-.36.15-.56.21-.39.07-.59.12-.39.06-.59.11-.38.14-.58.19l-.59.11a.39.39 0 0 0-.3.46c.06.2.13.4.2.57a3 3 0 0 0 .34.49 2.78 2.78 0 0 0 .39.44 2.93 2.93 0 0 0 .48.33 2.79 2.79 0 0 0 .55.2 3.68 3.68 0 0 0 .58.08h.59a5.27 5.27 0 0 0 .57-.14 4.74 4.74 0 0 0 .57-.15 5.81 5.81 0 0 0 .55-.2 5.57 5.57 0 0 0 .53-.23 4.83 4.83 0 0 0 .53-.25c.12-.07.27-.19.45-.31s.32-.16.49-.26.29-.23.45-.33.35-.14.5-.24l.46-.31c.16-.11.29-.24.43-.34s.34-.25.44-.33.34 0 .41.18.19.2.29.44zm-39-11.44a1.27 1.27 0 0 1-.17-.57 2 2 0 0 1 0-.59 2.09 2.09 0 0 1 .14-.52 1.55 1.55 0 0 1 .59-.86 1.72 1.72 0 0 1 .48-.26 1.84 1.84 0 0 1 .52 0 1.68 1.68 0 0 1 .6 0 1 1 0 0 1 .43.41 1.31 1.31 0 0 1 .14.58 2.08 2.08 0 0 1 0 .6 2.67 2.67 0 0 1-.12.66 1.94 1.94 0 0 1-.43.51 1.68 1.68 0 0 1-.51.42 1.71 1.71 0 0 1-.65.08 1.44 1.44 0 0 1-.6-.07 1.06 1.06 0 0 1-.46-.35zm-23 42.72c.55 0 1.35-1.13 1.41-1.73a17.14 17.14 0 0 0 .03-2.64c0-.5.25-.89.25-1.31s-.21-.85-.25-1.37c0-.71-.17-4.56-.17-5.34s.14-2 .14-2.93c0-1.23-.38-3.07-2.07-3.07a1.85 1.85 0 0 0-1.79 1.87c-.14 2.12.17 4.73 0 6.5a33.45 33.45 0 0 0 0 3.81c0 .39.1.81.1 1.2a17.88 17.88 0 0 0-.1 3.11 2.24 2.24 0 0 0 2.41 1.94zM40 78.95c.1 0 .17-.11.17-.21a.29.29 0 0 0-.27-.28c-.11 0-.11.07-.11.18s.03.31.21.31zm-.84-3.88V73.8c0-.42-.17-1-.17-1.91s.13-3.11.13-4.62c0-.5 0-1-.07-1.52a10.16 10.16 0 0 1 .83-5.37 4.49 4.49 0 0 1 4.48-2.9c.76 0 3 .36 3.31 1.42a1.25 1.25 0 0 0 .73.88c.79.49.83.92 1.14 2.08a12.91 12.91 0 0 1 .48 3.78v2.83c0 1.44.07 4.13.07 6.14s0 4.8-1.58 6.67c-.93 1.13-3.07 1.48-4.11 1.48a5 5 0 0 1-5-4.3 18.07 18.07 0 0 1-.24-3.39zM134 60.56c.11 0 .21-.07.24-.24s.17-.28 0-.28a.69.69 0 0 0-.41.28c-.02.14.05.24.17.24zm-4.4 15.51c-.27-1.18-.71-2.22-1-3.33-.14-.52-.24-1-.41-1.53a17 17 0 0 1-.64-2.75c0-.17-.17-.55-.48-.55s-.41.59-.41 1c0 2.08.24 3.09.24 4.55 0 .62-.1 1.22-.1 1.88 0 2.18-.14 4-.14 5.76 0 .56-.27.9-.64.94s-.61.31-1.15.31c-.85 0-1.26-.24-1.29-1s-.07-2.71-.07-6c0-.84.07-1.46.07-2.16 0-1.67-.14-3.3-.14-5.24 0-.7.07-1.36.07-2.05 0-.38.1-2.26.1-2.71 0-1.36.14-2.88.14-3.79a1.27 1.27 0 0 1 1.29-1.32h2c.54 0 1.05.38 1.22 1.21.23 1.25.67 2.4.95 3.62.33 1.49.67 2.43.81 3.23.1.55.47 1.21.64 1.8s.14 1.74.72 1.74a.36.36 0 0 0 .37-.38c0-2 .1-3.62.07-5-.07-2.08.13-3 0-4.58-.1-1.32.44-1.5.92-1.63s.84 0 1.25 0a1 1 0 0 1 1.15 1.14c0 .8-.2 1.56-.2 2.4 0 .52.14 1.22.1 1.7-.13 2.68.1 3.55 0 5-.23 3.26.1 6 0 8.48a39.62 39.62 0 0 0 0 4.41 1.07 1.07 0 0 1-1.12 1.21c-1.25 0-2.24.28-3-1.25-.74-1.79-.64-2.79-1.32-5.11zm-71.36-6.91c3 0 2.68-3 2.68-5a4 4 0 0 0-1.08-2.82c-.42-.39-1-.29-2-.29-.77 0-.91.36-.84 1.15a50.08 50.08 0 0 1-.07 5.46c-.02 1.5.26 1.5 1.31 1.5zm-4.89 10.32c.07-1.75-.1-3.47 0-5.65a9.31 9.31 0 0 0 .11-1.1c0-.39-.11-.65-.11-1 0-1 .18-2 .18-3.11v-2c0-.53.1-1.28.1-1.82a7.06 7.06 0 0 1-.24-2.07c.1-1.28 0-2.25 0-3.39s.94-1.5 2-1.61c1.43-.14 2.72.07 4.22.07 2.26 0 4.08.93 4.53 3.32a7.83 7.83 0 0 1 .35 1.86c-.1 1.68.18 2.75-.24 4.43a6.15 6.15 0 0 1-.59 1.61c-.32.5-.95 1-.95 1.46s.32.64.95 1.43a6.34 6.34 0 0 1 .87 3.89c0 1.4.1 2.68 0 4.15a17.14 17.14 0 0 0 .07 2 .69.69 0 0 1-.7.82 10 10 0 0 1-1.81 0c-.74-.14-1.12-.71-1.12-1.75v-2.14c0-1-.07-3.11-.07-3.58a2.72 2.72 0 0 0-2.65-2.78c-1.19 0-1.26.54-1.26 1.39v6.75c0 .57.07 1.75-.91 1.93a5.56 5.56 0 0 1-1.81.18 1 1 0 0 1-.91-.93 13.64 13.64 0 0 1-.01-2.36zm35.4-4.64c.11-1.23.14-2.82-1-3s-1.76.07-2.75 0c-.72 0-.83.46-.9 1.09-.13 1.23 0 2.29-.1 3.56s.1 2.29.1 3.45c0 .85.21 2.43-1.13 2.43a2.62 2.62 0 0 1-.86.14c-1 0-1.55-.35-1.51-1.27.07-1.72-.28-5.56-.07-8.06.1-1.13.07-2.22.07-3.38v-3.7a15.61 15.61 0 0 1 .14-2.32c.07-.71-.14-3-.14-4.37 0-1.13.55-1.51 1-1.55a4.6 4.6 0 0 1 1.69 0 1.21 1.21 0 0 1 .79 1 24.53 24.53 0 0 1 0 3.7c-.1 1.69 0 3.59 0 4.89 0 .88.28 1.13 1.34 1 .49 0 1.18.07 2.07.07 1.13 0 1.24-.64 1.24-1.52 0-1.26-.11-2.5-.11-3.59 0-.7.07-4 .07-4.54 0-1 .9-1.09 1.52-1.09 1.23 0 2 .14 2 1.37 0 2.57-.21 5.6-.21 7.08 0 .53-.07 1-.07 1.65s.21 1 .25 2.5c.06 2.08 0 4.51 0 7.5a16.36 16.36 0 0 1-.14 1.8c0 .63.14 1.26.14 1.93 0 .43-.21.92-.72.92-.66 0-1.07-.11-1.72-.11s-1.17-.1-1.07-1.76-.09-3.89.08-5.82zm7.32 4.79c0-1.43.07-2.82.07-4.15a61.73 61.73 0 0 1 .17-6.89c0-1-.14-2.09-.14-3.42 0-.24-.1-2.3-.1-2.57v-3.35a1.1 1.1 0 0 1 1.05-1.18c.58 0 1.53-.14 2-.14s1.36.1 1.53.1c1.5 0 2.69-.1 4.18 0 .68 0 .89.32.92 1a9.88 9.88 0 0 1 .14 1.22c0 .38-.14 1-.69 1-2.37.17-3 0-4.45.14-1.22.1-1.29 1-1.29 1.88 0 .56.1 1.18.1 1.67v2.4c0 1 .2 1 2 1 .34 0 1.12.07 1.43.07s.58-.07.85-.07c1.06 0 .89 1.11.89 1.53 0 1.12.13 1.78-.89 1.78-.41 0-1-.07-1.39 0a12.26 12.26 0 0 1-2 0 .56.56 0 0 0-.68.59c0 .84-.14 1.64-.1 2.55.06 1.74.06 2.54.06 3.17a1 1 0 0 0 1 1c.68 0 1.33.07 2 0a16 16 0 0 1 1.83 0c.68 0 1.37.17 1.37 1 0 .48-.21 1-.21 1.57a.74.74 0 0 1-.78.8c-1 .07-2-.11-3 0-1.33.11-2.69 0-4 0-.88 0-1.77-.36-1.77-1.26-.07-.61-.1-.78-.1-1.44z" fill="#fff" fill-rule="evenodd"/></svg>