<svg data-name="Layer 1" xmlns="http://www.w3.org/2000/svg" viewBox="0 0 105 153"><defs><mask id="a" x="28.22" y="12.27" width="60.12" height="62.13" maskUnits="userSpaceOnUse"><path fill="#fff" fill-rule="evenodd" d="M28.22 29.74l41.16-17.47 18.96 44.66L47.17 74.4 28.22 29.74z"/></mask></defs><g mask="url(#a)"><path d="M47.33 68.47c2.15-.56 3.21-.89 4.28-1.18s2.14-.6 4.28-1.16 3.22-.82 4.29-1.13 2.1-.74 4.25-1.29 3.28-.56 4.37-.78 2.15-.56 4.3-1.11 3.22-.86 4.3-1.12 2.18-.42 4.32-1a2.83 2.83 0 0 0 1.82-3.48c-.59-2-.93-3-1.26-4.06s-.67-2-1.25-4.06-.89-3.06-1.14-4.09-.43-2.09-1-4.13-.86-3.07-1.19-4.08-.75-2-1.33-4a2.49 2.49 0 0 0-1.27-1.68 7.47 7.47 0 0 1-1.1-.54 2.85 2.85 0 0 1-.84-4.44 2.33 2.33 0 0 0 .62-2.36A7.81 7.81 0 0 0 72 19.7a7 7 0 0 0-2.87-2 6.52 6.52 0 0 0-3.48-.48c-2.49.44-2.47.56-5 1a38.09 38.09 0 0 0-4.12 1c-1.36.39-2.69.88-4 1.27s-2.76.63-4.12 1-2.66.95-4 1.48c-2.34.94-2.37.88-4.71 1.82a7.12 7.12 0 0 0-3 2 8.26 8.26 0 0 0-1.29 6.88 2.9 2.9 0 0 0 1.93 1.95 2.71 2.71 0 0 1 1.87 4c-.33.52-.52.39-.85.91a2.82 2.82 0 0 0-.36 2.21c.5 2 .68 3 1 4a37.71 37.71 0 0 1 1.16 3.92c.49 2 .74 3 1 4s.49 2 1 4a37.66 37.66 0 0 1 .81 4c.15 1 .43 2 .93 4a2.85 2.85 0 0 0 3.45 1.88" fill="#fff" fill-rule="evenodd"/></g></svg>