<svg data-name="Layer 1" xmlns="http://www.w3.org/2000/svg" viewBox="0 0 105 153"><path d="M81 110.58c-1.08 0-1.08.09-2.16.09h-4.33c-1.08 0-1.08.09-2.16.09s-1.08-.16-2.17-.16h-2.16c-1.08 0-1.08.12-2.17.12s-1.08-.09-2.16-.09-1.08-.06-2.17-.06h-4.35c-1.08 0-1.09.1-2.17.1s-1.08-.16-2.17-.16h-2.16c-1.09 0-1.09.09-2.17.09s-1.09-.12-2.17-.12h-4.34c-1.09 0-1.08.06-2.16.06h-2.17c-1.08 0-1.09.06-2.17.06s-1.09-.17-2.17-.17-1.09.12-2.18.12h-4.35a.47.47 0 0 1-.48-.53c0-1.49-.09-1.49-.09-3a.56.56 0 0 1 .57-.55h2.16c1.08 0 1.08-.12 2.17-.12s1.08.07 2.16.07 1.08.09 2.17.09h4.32c1.09 0 1.09-.19 2.17-.19s1.08.29 2.17.29h6.5c1.08 0 1.08-.13 2.16-.13h2.17c1.08 0 1.08.07 2.17.07h2.17c1.09 0 1.08.16 2.17.16s1.08-.15 2.16-.15h2.17c1.08 0 1.08.13 2.17.13s1.08-.07 2.16-.07h6.52c1.09 0 1.09-.08 2.18-.09s1.09.14 2.17.14c.31 0 .52.14.52.44 0 1.5-.06 1.5-.06 3 0 .25-.15.47-.44.47zm-54.91-7.8c0-1.5.22-1.5.22-3 0-.3.2-.65.5-.65 1.08 0 1.08.13 2.16.13h6.5c1.08 0 1.08.06 2.16.06s1.08-.09 2.16-.09h6.5c1.09 0 1.09.12 2.17.12h2.17c1.09 0 1.08-.1 2.16-.1s1.09.1 2.17.1 1.09-.13 2.17-.13 1.08.11 2.17.11h2.17c1.09 0 1.08.17 2.16.17s1.09-.17 2.17-.17 1.08.1 2.17.1 1.08-.06 2.17-.06 1.08-.1 2.17-.1 1.08.12 2.17.12 1.08-.15 2.17-.15 1.09.17 2.18.17h2.18c.3 0 .68.15.68.45v3a.73.73 0 0 1-.64.66h-2.16c-1.08 0-1.08-.11-2.16-.11h-2.17c-1.09 0-1.08.14-2.16.14s-1.08-.24-2.16-.24h-2.17c-1.08 0-1.08-.05-2.16-.05s-1.09.17-2.17.17h-4.4c-1.09 0-1.09-.18-2.17-.18s-1.08.12-2.17.12-1.08-.06-2.17-.06-1.08.21-2.16.21-1.09-.18-2.17-.18-1.09-.11-2.17-.11-1.08.15-2.16.15h-4.34c-1.08 0-1.09-.1-2.17-.1s-1.09.15-2.17.15h-4.34c-1.08 0-1.09-.11-2.18-.1h-2.18c-.3-.05-.72-.25-.72-.55zm75.9 26a.6.6 0 0 0-.41-.14c-1.12 0-1.12-.1-2.24-.1s-1.13.07-2.25.07a.55.55 0 0 1-.53-.52c-.08-1-.07-1-.15-2s0-1-.12-2-.24-1-.32-2 .09-1 0-2-.22-1-.3-2-.15-1-.24-2-.11-1-.19-2 0-1-.06-2 .07-1 0-2-.24-1-.32-2 0-1-.06-2a16.46 16.46 0 0 0-.31-2.14 14.54 14.54 0 0 0-.66-2.06 16.3 16.3 0 0 0-1-1.91 16.31 16.31 0 0 0-.87-2 14.94 14.94 0 0 0-1.45-1.63 15.91 15.91 0 0 0-1.7-1.34A15.27 15.27 0 0 0 87 93.58a14.25 14.25 0 0 0-1.9-1 14.94 14.94 0 0 0-2-.78 16.44 16.44 0 0 0-2.1-.34 16.64 16.64 0 0 0-2.12-.3h-2.14c-1.07 0-1.07.21-2.14.21s-1.07-.15-2.13-.15-1.07.1-2.14.1-1.06-.11-2.13-.11-1.07-.21-2.14-.21h-2.14c-1.06 0-1.06.32-2.13.32S60.72 91 59.65 91s-1.07.09-2.14.09-1.07.07-2.14.07S54.3 91 53.23 91s-1.06.1-2.13.09-1.07 0-2.14 0-1.07-.12-2.14-.12h-2.14c-1.07 0-1.07.09-2.14.09s-1.07.11-2.14.11-1.07-.23-2.14-.23-1.07.11-2.14.11-1.07.17-2.14.17-1.07-.1-2.14-.11-1.08-.2-2.15-.2-1.08.24-2.15.24a17.41 17.41 0 0 0-2.16 0 15.12 15.12 0 0 0-2.13.41 15.32 15.32 0 0 0-2 .74 16.69 16.69 0 0 0-1.91 1 15.54 15.54 0 0 0-1.81 1.17A14.91 14.91 0 0 0 16 96.18a14.51 14.51 0 0 0-1.39 1.64 16.89 16.89 0 0 0-1.06 1.86 16.64 16.64 0 0 0-1.08 1.88 15.69 15.69 0 0 0-.5 2.1 16.3 16.3 0 0 0-.31 2.13c-.08 1-.18 1-.27 2s-.07 1-.15 2l-.13 2.21c-.09 1-.16 1-.25 2s0 1-.13 2.06.08 1 0 2.07-.06 1-.14 2.06-.16 1-.25 2 .11 1 0 2.08-.17 1-.26 2l-.08 2.14c-.08 1-.26 1-.34 2.05s0 1-.08 2.06.06 1 0 2.08-.3 1-.39 2 0 1-.11 2.07a7.06 7.06 0 0 0 .19 1.89 7.13 7.13 0 0 0 .54 1.81 7.22 7.22 0 0 0 1.14 1.51 6.48 6.48 0 0 0 1.44 1.23 6.76 6.76 0 0 0 1.73.73 6.54 6.54 0 0 0 1.87.25c.33 0 .48-.22.57.09.31 1.12 0 1.13 0 2.29 0 .3.32.49.63.49 1 0 1 .06 2 .06h4c1 0 1 .13 2 .13s1-.08 2-.08 1-.07 2-.07 1 .05 2 .06 1 0 2 0a.49.49 0 0 0 .55-.48v-1.75c0-.31.29-.38.6-.38 1 0 1-.18 2.1-.18s1.05-.1 2.1-.1 1.05.09 2.1.09h2.1c1.1 0 1-.18 2.1-.18h2.1c1.1 0 1.05.24 2.1.24s1.05-.12 2.11-.12 1.05.16 2.1.16h2.1c1 0 1-.11 2.1-.11s1-.14 2.1-.14 1.05.1 2.1.1 1.06-.11 2.11-.11 1 .24 2.1.24 1-.17 2.11-.17H70c1 0 1 .07 2.11.07.3 0 .45.25.45.55 0 .88.07.88.07 1.76a.52.52 0 0 0 .58.48c1 0 1 .19 2 .19h4c1 0 1-.27 2-.27s1 .09 2 .09h6a.52.52 0 0 0 .56-.49c0-1.16-.43-1.23-.11-2.35.09-.31.43-.16.76-.16a6.61 6.61 0 0 0 1.84-.18 7.5 7.5 0 0 0 1.83-.57 6.89 6.89 0 0 0 1.48-1.29 7 7 0 0 0 1.11-1.55 12.16 12.16 0 0 0 .85-3.73c-.08-.91-.36-.88-.43-1.79s.08-.93 0-1.84-.15-.9-.22-1.81a.69.69 0 0 1 .59-.71h2c1 0 1 .1 2 .1.11 0 .13 0 .21-.11a22.31 22.31 0 0 0 .2-3.83" fill="blue" fill-rule="evenodd"/></svg>