<svg data-name="Layer 1" xmlns="http://www.w3.org/2000/svg" viewBox="0 0 1655 751"><path d="M99.18 385a46.64 46.64 0 0 0 60.55-28l3.09-8.76a3.33 3.33 0 0 0-2-4.2 46.64 46.64 0 0 0-60.55 28l-3.09 8.77a3.32 3.32 0 0 0 2 4.19M45.11 246.8c6.66-25.79 32.43-41.07 57.56-34.13l8.93 2.47a3.34 3.34 0 0 1 2.29 4.06c-6.66 25.8-32.43 41.07-57.56 34.13l-8.93-2.47a3.33 3.33 0 0 1-2.29-4.06m139 100c6.66-25.79 32.43-41.07 57.56-34.13l8.93 2.47a3.33 3.33 0 0 1 2.29 4.06c-6.66 25.79-32.43 41.07-57.56 34.13l-8.93-2.47a3.33 3.33 0 0 1-2.29-4.06m-45.78-84.46c11.46 23.6 39.51 33.36 62.66 21.79l8.23-4.11a3.28 3.28 0 0 0 1.45-4.36c-11.46-23.6-39.51-33.36-62.67-21.79l-8.22 4.13a3.28 3.28 0 0 0-1.45 4.36m373.25 411.22c17.25-30.13 55.22-40.52 84.79-23.2l10.52 6.16a4.32 4.32 0 0 1 1.53 5.88c-17.25 30.13-55.22 40.52-84.8 23.2l-10.51-6.16a4.32 4.32 0 0 1-1.53-5.88m-393-505c17.25-30.13 55.22-40.52 84.8-23.2l10.51 6.16a4.32 4.32 0 0 1 1.53 5.88c-17.25 30.13-55.22 40.52-84.8 23.2l-10.51-6.16a4.32 4.32 0 0 1-1.53-5.88m344.28 258.06c-33.39-9.88-68 8.79-77.38 41.71l-3.32 11.7a4.34 4.34 0 0 0 3 5.31c33.39 9.88 68-8.79 77.38-41.71l3.32-11.7a4.34 4.34 0 0 0-3-5.31M354.82 455a46.64 46.64 0 0 0-60.55 28l-3.09 8.76a3.33 3.33 0 0 0 2 4.2 46.64 46.64 0 0 0 60.55-28l3.09-8.76a3.33 3.33 0 0 0-2-4.2m62.07-208.2c-6.66-25.79-32.43-41.07-57.56-34.13l-8.93 2.47a3.34 3.34 0 0 0-2.29 4.06c6.66 25.79 32.43 41.07 57.56 34.13l8.93-2.47a3.33 3.33 0 0 0 2.29-4.06m-84.22 48.86c-11.46-23.6-39.51-33.36-62.66-21.79l-8.23 4.13a3.28 3.28 0 0 0-1.45 4.36c11.46 23.6 39.51 33.36 62.66 21.79l8.23-4.11a3.28 3.28 0 0 0 1.45-4.36M476 466.23A46.48 46.48 0 0 1 538.08 490l3.66 8.51a3.32 3.32 0 0 1-1.7 4.3A46.48 46.48 0 0 1 477.92 479l-3.66-8.51a3.32 3.32 0 0 1 1.7-4.3m191.69-320a46.43 46.43 0 0 1 38.82-53.78l9.15-1.41a3.3 3.3 0 0 1 3.73 2.72 46.43 46.43 0 0 1-38.82 53.83l-9.15 1.45a3.3 3.3 0 0 1-3.73-2.72m-8.32 158.42c11.46-23.6 39.51-33.36 62.66-21.79l8.23 4.11a3.28 3.28 0 0 1 1.45 4.36c-11.46 23.6-39.51 33.36-62.66 21.79l-8.23-4.17a3.28 3.28 0 0 1-1.45-4.36m-155-67c11.46-23.6 39.51-33.36 62.66-21.79l8.23 4.11a3.28 3.28 0 0 1 1.45 4.36c-11.46 23.6-39.51 33.36-62.65 21.79l-8.24-4.11a3.28 3.28 0 0 1-1.45-4.36m161.5 132.17c28.23-20.26 66.94-13.85 86.47 14.32l6.94 10a4.36 4.36 0 0 1-1.07 6c-28.23 20.26-66.94 13.85-86.47-14.32l-6.94-10a4.36 4.36 0 0 1 1.07-6M531.31 140.05c12.79-32.7 48.93-48.57 80.69-35.44l11.31 4.67a4.39 4.39 0 0 1 2.38 5.72c-12.79 32.65-48.93 48.52-80.69 35.39l-11.31-4.67a4.39 4.39 0 0 1-2.35-5.67M256 384.78c-2.82-2.34-2.9-6.89-.18-10.16s7.21-4 10-1.69 2.89 6.89.17 10.17-7.21 4-10 1.68m4.17 48.66c-1.45-1.55-16.87-15.84-9.53-25.13 6-7.57 11.66-9.55 20.38-20.42 5.4-6.74 5.23-15.68-.39-21.05l-.32-.23-.29-.26c-6.47-4.32-15.23-2.54-20.63 4.2-8.71 10.87-9.46 16.81-15.49 24.34-7.86 9.81-24.65-2.69-26.58-3.82-8.51-5.45-21.3-2.08-28.64 7.08l-55.25 69c-7.78 9.71-7.19 23.13 1.33 29.95l49.93 40c8.51 6.83 21.73 4.49 29.51-5.23l55.26-68.95c7.32-9.15 7.85-22.35.71-29.47m303.2 21.31a4.74 4.74 0 0 0 1.65 5.83c15.9 10.83 37.2 14.48 57.5 8.69 14.88-4.25 19-18.08 15-32.5s-14.88-24-29.77-19.76c-20.29 5.79-36.5 20.13-44.34 37.74M302.68 135.61a4.74 4.74 0 0 0-1.05 6c9.61 16.71 27.24 29.31 48.07 33 15.28 2.7 25.07-7.91 27.68-22.68s-2.95-28.1-18.23-30.8c-20.83-3.69-41.71 2.11-56.47 14.51m477 305a4.74 4.74 0 0 0-1 6c9.61 16.71 27.23 29.31 48.07 33 15.28 2.7 25.07-7.91 27.68-22.68s-3-28.1-18.23-30.8c-20.83-3.69-41.7 2.11-56.47 14.51m-304.41-159a3.5 3.5 0 0 0-.8 4.45c7.24 12.45 20.52 21.85 36.21 24.6 11.51 2 18.89-5.9 20.85-16.91s-2.22-20.95-13.72-23c-15.7-2.75-31.42 1.57-42.54 10.82M334.86 364c16.41 0 24.14 11.06 24.14 23.66S353.12 413 336.71 413 307 402.79 307 390.19 318.45 364 334.86 364M246.47 62.48c10.37 20.25 1.73 36.64-13.67 44.46s-34.7 8.47-45.07-11.77-6.28-43 9.12-50.8 39.26-2.13 49.62 18.11m-167 372c10.37 20.25 1.73 36.64-13.67 44.46s-34.71 8.47-45.07-11.77-6.28-43 9.12-50.8 39.26-2.13 49.62 18.11m362-112c10.37 20.25 1.73 36.64-13.67 44.46s-34.71 8.47-45.07-11.77-6.28-43 9.12-50.8 39.26-2.13 49.62 18.11m426 10c10.37 20.25 1.73 36.64-13.67 44.46s-34.7 8.47-45.07-11.77-6.28-43 9.12-50.8 39.26-2.13 49.62 18.11m-329-295c10.37 20.25 1.73 36.64-13.67 44.46s-34.7 8.47-45.07-11.77-6.28-43 9.12-50.8 39.26-2.13 49.62 18.11m-297.35 144c16.48-5.06 27.54 3.69 31.29 16.37s1.65 27.34-14.83 32.4-32.87-1.11-36.63-13.8 3.69-29.91 20.17-35m376.4 11.42c14.79-17.33 33.22-15.55 46.29-4.22s21 29 6.21 46.35-37.36 22.21-50.43 10.87-16.85-35.66-2.07-53M734 216.05c9.29-10.84 20.88-9.72 29.09-2.64s13.2 18.14 3.9 29-23.48 13.88-31.69 6.8-10.6-22.29-1.3-33.13m-44.48 236.8c14.79-17.34 33.22-15.55 46.29-4.22s21 29 6.21 46.35-37.36 22.21-50.43 10.87-16.85-35.66-2.07-53M421.31 87.92c-2.63 1.47-6.25 0-8.09-3.28S412 77.51 414.64 76s6.25 0 8.09 3.28 1.2 7.13-1.42 8.6M457.65 94c-9.38-1.87-20.23 5.72-24-1.38-2.89-5.46-3.34-14-8.75-19.38-7.4-7.3-20.42-1.43-18.47 9.34 1.36 7.45 9.42 12.43 12.13 18 3.31 6.78-5.15 10.59-10.06 18.64-9.28 13.69-5.93 34.45 3.49 53 14.32 28.1 36.73 43.14 70.73 24.83 26.79-14.43 31.47-39.91 13.75-71.31-9.87-17.57-22.83-30.19-38.82-31.74M1550 509.11c-1.15 34.61-29.71 61.4-63.8 59.82l-12.12-.56a4.32 4.32 0 0 1-4.08-4.48c1.15-34.61 29.71-61.4 63.8-59.82l12.12.55a4.33 4.33 0 0 1 4.08 4.49M454.23 650.1c10.13 33.21-8.41 67.84-41.39 77.35l-11.74 3.38a4.36 4.36 0 0 1-5.34-2.93c-10.12-33.21 8.42-67.84 41.4-77.35l11.73-3.38a4.35 4.35 0 0 1 5.34 2.93m871.47-174.36c-5.12 34.41 18.43 66 52.59 70.59l12.15 1.63a4.36 4.36 0 0 0 4.86-3.7c5.12-34.41-18.43-66-52.59-70.59l-12.15-1.67a4.36 4.36 0 0 0-4.86 3.7m-89.56-373.34c33.39 9.88 68-8.79 77.38-41.71l3.32-11.7a4.34 4.34 0 0 0-3-5.31c-33.39-9.88-68 8.79-77.38 41.71l-3.32 11.7a4.34 4.34 0 0 0 3 5.31m192.51 340.4a46.43 46.43 0 0 0 38.82 53.83l9.15 1.37a3.3 3.3 0 0 0 3.73-2.72 46.43 46.43 0 0 0-38.82-53.83l-9.15-1.37a3.3 3.3 0 0 0-3.73 2.72m-73.54-176.56c6.66 25.79 32.43 41.07 57.56 34.13l8.93-2.47a3.33 3.33 0 0 0 2.29-4.06c-6.66-25.79-32.43-41.07-57.56-34.13l-8.93 2.47a3.33 3.33 0 0 0-2.29 4.06m85.22-48.86c11.46 23.6 39.51 33.36 62.66 21.79l8.23-4.11a3.28 3.28 0 0 0 1.45-4.36c-11.46-23.6-39.51-33.36-62.66-21.79l-8.23 4.11a3.28 3.28 0 0 0-1.45 4.36m-440.27 44.28c21.47 15.38 26.37 44.73 10.94 65.63l-5.49 7.44a3.31 3.31 0 0 1-4.57.69C979.47 320 974.57 290.65 990 269.75l5.49-7.44a3.31 3.31 0 0 1 4.57-.69m71.61-57.28c-11.46 23.6-39.51 33.36-62.66 21.79l-8.23-4.13a3.28 3.28 0 0 1-1.45-4.36c11.46-23.6 39.51-33.36 62.66-21.79l8.23 4.11a3.28 3.28 0 0 1 1.45 4.36m197 71c-11.46 23.6-39.51 33.36-62.66 21.79l-8.23-4.11a3.28 3.28 0 0 1-1.45-4.36c11.46-23.6 39.51-33.36 62.65-21.79l8.24 4.11a3.28 3.28 0 0 1 1.45 4.36m-161.5-132.15c-28.23 20.26-66.94 13.83-86.47-14.32l-6.94-10a4.36 4.36 0 0 1 1.07-6c28.23-20.28 66.94-13.85 86.47 14.3l6.94 10a4.36 4.36 0 0 1-1.07 6M1241.69 373c-12.79 32.7-48.93 48.57-80.72 35.44l-11.31-4.67a4.39 4.39 0 0 1-2.35-5.67c12.79-32.7 48.93-48.57 80.72-35.44l11.31 4.67a4.39 4.39 0 0 1 2.35 5.67M1517 156.22c2.81 2.34 2.89 6.89.17 10.16s-7.21 4-10 1.69-2.89-6.89-.17-10.17 7.21-4 10-1.68m-4.18-48.66c1.45 1.55 16.87 15.84 9.53 25.13-6 7.57-11.66 9.55-20.37 20.42-5.41 6.74-5.24 15.68.38 21l.32.23.29.26c6.46 4.33 15.22 2.54 20.62-4.2 8.71-10.88 9.46-16.81 15.49-24.34 7.86-9.81 24.65 2.69 26.58 3.82 8.51 5.45 21.3 2.08 28.64-7.09l55.25-68.95c7.78-9.71 7.19-23.12-1.33-29.95l-49.93-40c-8.51-6.83-21.73-4.49-29.51 5.23l-55.25 69c-7.33 9.15-7.86 22.35-.72 29.47m-304.2-49.31a4.74 4.74 0 0 0-1.65-5.83c-15.9-10.83-37.2-14.48-57.5-8.69-14.88 4.25-19 18.07-15 32.51s14.88 24 29.77 19.75c20.29-5.79 36.5-20.13 44.34-37.74m260.73 319.14a4.74 4.74 0 0 0 1-6c-9.61-16.71-27.23-29.31-48.07-33-15.28-2.7-25.07 7.91-27.68 22.68s3 28.1 18.23 30.8c20.83 3.69 41.71-2.11 56.47-14.51m-476-305a4.74 4.74 0 0 0 1-6c-9.61-16.71-27.23-29.31-48.07-33-15.28-2.7-25.07 7.91-27.68 22.68s3 28.1 18.23 30.8c20.83 3.69 41.7-2.11 56.47-14.51m338.41 167a3.49 3.49 0 0 0 .8-4.45c-7.25-12.45-20.52-21.85-36.21-24.6-11.51-2-18.88 5.9-20.85 16.91s2.22 20.95 13.72 23c15.7 2.75 31.42-1.57 42.54-10.82m106.53-90.4c-16.41 0-24.14-11.06-24.14-23.66s5.88-25.34 22.29-25.34 29.71 10.21 29.71 22.81-11.45 26.19-27.86 26.19m75.39 301.52c-10.37-20.25-1.73-36.64 13.67-44.46s34.7-8.47 45.07 11.77 6.28 43-9.12 50.8-39.26 2.13-49.62-18.11m-574 244c-10.37-20.25-1.73-36.64 13.67-44.46s34.71-8.47 45.07 11.77 6.28 43-9.12 50.8-39.26 2.13-49.62-18.11m385-531c-10.37-20.25-1.73-36.64 13.67-44.46s34.71-8.47 45.07 11.77 6.28 43-9.12 50.8-39.26 2.13-49.62-18.11m-420 17c-10.37-20.25-1.73-36.64 13.67-44.46s34.7-8.47 45.07 11.77 6.28 43-9.12 50.8-39.26 2.13-49.62-18.11m330 295c-10.37-20.25-1.73-36.64 13.67-44.46s34.7-8.47 45.07 11.77 6.28 43-9.12 50.8-39.26 2.13-49.62-18.11m297.35-144c-16.48 5.06-27.54-3.69-31.29-16.37s-1.65-27.34 14.83-32.4 32.87 1.11 36.63 13.8-3.69 29.91-20.17 35m-376.4-11.42c-14.79 17.34-33.22 15.55-46.29 4.22s-21-29-6.21-46.35 37.36-22.21 50.43-10.87 16.85 35.66 2.07 53M934 277c-9.29 10.84-20.88 9.72-29.09 2.64s-13.2-18.14-3.9-29 23.48-13.88 31.69-6.8 10.6 22.29 1.3 33.13m-45-57c-9.29 10.83-20.88 9.72-29.09 2.64s-13.2-18.14-3.91-29 23.49-13.88 31.7-6.8 10.6 22.29 1.3 33.13m462.68 205.13c2.63-1.47 6.25 0 8.09 3.28s1.21 7.13-1.42 8.6-6.25 0-8.09-3.28-1.2-7.13 1.42-8.6m-36.33-6.07c9.38 1.87 20.23-5.72 24 1.39 2.89 5.45 3.34 14 8.75 19.37 7.4 7.3 20.42 1.43 18.47-9.34-1.36-7.45-9.42-12.43-12.13-18-3.31-6.79 5.15-10.6 10.06-18.65 9.28-13.69 5.93-34.45-3.49-53-14.32-28.1-36.73-43.14-70.73-24.83-26.79 14.43-31.47 39.91-13.75 71.31 9.87 17.5 22.83 30.12 38.82 31.67M550 559.11c-1.15 34.61-29.71 61.4-63.8 59.82l-12.12-.56a4.32 4.32 0 0 1-4.08-4.48c1.15-34.61 29.71-61.4 63.8-59.82l12.12.55a4.33 4.33 0 0 1 4.08 4.49m-373.3 52.63c-5.12 34.41 18.43 66 52.59 70.6l12.15 1.66a4.36 4.36 0 0 0 4.86-3.7c5.12-34.41-18.43-66-52.59-70.59L181.56 608a4.36 4.36 0 0 0-4.86 3.7m52-55a46.43 46.43 0 0 0 38.82 53.83l9.15 1.37a3.3 3.3 0 0 0 3.73-2.72 46.43 46.43 0 0 0-38.82-53.83l-9.2-1.35a3.3 3.3 0 0 0-3.73 2.72m159.67 95.63a4.74 4.74 0 0 0 1.05-6c-9.61-16.71-27.23-29.31-48.07-33-15.28-2.7-25.07 7.91-27.68 22.68s2.95 28.1 18.23 30.8c20.83 3.69 41.7-2.11 56.47-14.51m-309.79-70.8c-10.37-20.25-1.73-36.64 13.67-44.46s34.7-8.47 45.07 11.77 6.28 43-9.12 50.8-39.26 2.13-49.62-18.11m320-20c-10.37-20.25-1.73-36.64 13.67-44.46s34.7-8.47 45.07 11.77 6.28 43-9.12 50.8-39.26 2.13-49.62-18.11m-49.65 20c-16.48 5.06-27.53-3.69-31.29-16.37s-1.65-27.34 14.83-32.4 32.87 1.11 36.63 13.8-3.69 29.91-20.17 35m311.81 46.54c2.63-1.47 6.25 0 8.09 3.28s1.21 7.13-1.42 8.6-6.25 0-8.09-3.28-1.2-7.13 1.42-8.6M624.35 622c9.38 1.87 20.23-5.72 24 1.39 2.89 5.45 3.34 14 8.75 19.37 7.4 7.3 20.42 1.43 18.47-9.34-1.36-7.45-9.42-12.43-12.13-18-3.31-6.78 5.15-10.59 10.06-18.64 9.28-13.69 5.93-34.45-3.49-52.95-14.32-28.1-36.73-43.14-70.73-24.83-26.79 14.43-31.47 39.91-13.75 71.31 9.87 17.5 22.83 30.12 38.82 31.67m227.23 3.58c17.25-30.13 55.22-40.52 84.8-23.2l10.51 6.16a4.32 4.32 0 0 1 1.53 5.88c-17.25 30.13-55.22 40.52-84.8 23.2l-10.51-6.16a4.32 4.32 0 0 1-1.53-5.88M715 583.89c1.15-34.61 29.71-61.4 63.8-59.82l12.12.55a4.33 4.33 0 0 1 4.08 4.49c-1.15 34.61-29.71 61.4-63.8 59.82l-12.12-.56a4.32 4.32 0 0 1-4.08-4.48m447.3-97.63c5.12-34.41-18.43-66-52.59-70.6l-12.15-1.66a4.36 4.36 0 0 0-4.86 3.7c-5.12 34.41 18.43 66 52.59 70.6l12.15 1.62a4.36 4.36 0 0 0 4.86-3.7m-102.95 33a46.43 46.43 0 0 0-38.82-53.83l-9.15-1.39a3.3 3.3 0 0 0-3.73 2.72 46.43 46.43 0 0 0 38.82 53.83l9.15 1.37a3.3 3.3 0 0 0 3.73-2.72m-29.7-129a46.43 46.43 0 0 1 38.82-53.83l9.15-1.37a3.3 3.3 0 0 1 3.73 2.72 46.43 46.43 0 0 1-38.82 53.83l-9.15 1.45a3.3 3.3 0 0 1-3.73-2.72m-239-102a46.43 46.43 0 0 1 38.82-53.83l9.15-1.37a3.3 3.3 0 0 1 3.73 2.72 46.43 46.43 0 0 1-38.82 53.83l-9.15 1.37a3.3 3.3 0 0 1-3.73-2.72m578 333a46.43 46.43 0 0 1 38.82-53.83l9.15-1.37a3.3 3.3 0 0 1 3.73 2.72 46.43 46.43 0 0 1-38.82 53.83l-9.15 1.37a3.3 3.3 0 0 1-3.73-2.72m-202.34 70.81c12.79-32.7 48.93-48.57 80.72-35.44l11.31 4.67a4.39 4.39 0 0 1 2.35 5.67c-12.79 32.7-48.93 48.57-80.72 35.44l-11.31-4.67a4.39 4.39 0 0 1-2.35-5.67M980.68 588.61a4.74 4.74 0 0 0-1 6c9.61 16.71 27.24 29.31 48.07 33 15.28 2.7 25.07-7.91 27.68-22.68s-3-28.1-18.23-30.8c-20.83-3.69-41.71 2.11-56.47 14.51M806 609.86a4.73 4.73 0 0 0-3.54-4.91c-18.61-4.72-39.86-.86-57 11.51-12.53 9.07-11.74 23.47-3 35.61s22.13 17.43 34.67 8.36c17.09-12.37 27.43-31.36 28.82-50.57m167.48-98.38c10.37 20.25 1.73 36.64-13.67 44.46s-34.71 8.47-45.07-11.77-6.28-43 9.12-50.8 39.26-2.13 49.62 18.11m363 67c10.37 20.25 1.73 36.64-13.67 44.46s-34.7 8.47-45.07-11.77-6.28-43 9.12-50.8 39.26-2.13 49.62 18.11m-255.35 65c16.48-5.06 27.54 3.69 31.29 16.37s1.65 27.34-14.83 32.4-32.87-1.11-36.63-13.8 3.69-29.91 20.17-35m-239-127c16.48-5.06 27.54 3.69 31.29 16.37s1.65 27.34-14.83 32.4-32.87-1.11-36.63-13.8 3.69-29.91 20.17-35m372 23.85c-1.47-2.63 0-6.25 3.28-8.09s7.13-1.21 8.6 1.42 0 6.25-3.28 8.09-7.13 1.2-8.6-1.42m-6.08 36.38c1.87-9.38-5.72-20.23 1.39-24 5.45-2.89 14-3.34 19.37-8.75 7.3-7.4 1.43-20.42-9.34-18.47-7.45 1.36-12.43 9.42-18 12.13-6.79 3.31-10.6-5.15-18.65-10.06-13.69-9.28-34.45-5.93-53 3.49-28.1 14.32-43.14 36.73-24.83 70.73 14.43 26.79 39.91 31.47 71.31 13.75 17.5-9.87 30.12-22.83 31.67-38.82M493.56 403.7a3.79 3.79 0 0 1-1.17 5.33 3.88 3.88 0 0 1-5.38-1.31 3.75 3.75 0 0 1 1.4-5.24 3.6 3.6 0 0 1 5.15 1.22m.46 10.58c6.53-4.29 14-9.45 19.48-13.12a8.63 8.63 0 0 1 12.19 2.7c5.19 8.52 3.19 5.77 8.08 13.82a9 9 0 0 0 12.36 3c14.64-9 11.66-7.17 26.22-16.09s14.71-8.63 29.24-17.54 14.65-8.71 28.92-17.45a9.45 9.45 0 0 0 3.12-12.94c-9.7-16-7.71-12.15-17.42-28.11s-7.15-12.59-16.59-28.12a9.24 9.24 0 0 0-12.69-3.08c-14.53 8.91-14.76 8.53-29.3 17.44s-14.51 9-29 17.85-11.55 7.21-26.08 16.11a9.36 9.36 0 0 0-3.08 12.8c4.9 8.05 3.22 5 8.55 13.75a8.71 8.71 0 0 1-3.17 12.11c-5.55 3.09-13.56 7.3-20.21 11a7.07 7.07 0 0 0-2.67 9.66l2.17 3.78a7 7 0 0 0 9.92 2.39m777.38-260.07c-1.22-3.5 1-7.43 4.9-8.78s8.08.39 9.3 3.88-1 7.43-4.9 8.78-8.08-.39-9.3-3.88m-35.88 64.23c8.35-4.71 13.45-11.26 15.94-18.86 5-12.57.72-28.89 9.63-32 6.64-2.3 20.29.23 27.11-5.25 9.32-7.5 4.11-25.28-8.56-25.47-8.77-.13-15.47 8.64-22.2 10.69-9 2.73-18.51-9.09-28.38-17.44-4.4-3.7-10.91-6.49-20.72-4.54-19.57 3.89-48.91 7.18-66.84 20.32s-10.44 43.19-7.36 52.87c3.13 9.88 19.6 44.18 44.82 39.78a172.71 172.71 0 0 0 56.54-20.21M27.5 628.77c-2.59 2.66-7.1 2.48-10.08-.4s-3.3-7.38-.71-10 7.11-2.49 10.09.4 3.29 7.38.7 10m73.81 3c-8-5.32-16.16-6.91-24.11-5.7-13.53 1.22-26.25 12.4-33 5.85-5.05-4.89-8.93-18.19-16.92-21.8-10.93-4.92-24.54 7.74-19 19.13 3.83 7.87 14.72 9.89 19.59 15 6.51 6.8.17 20.59-2.88 33.16-1.35 5.6-.92 12.65 5.25 20.52 12.3 15.7 28.47 40.36 48.33 50.41s43.51-10.28 50.81-17.34c7.46-7.26 30.83-37.42 15.53-57.91a172.48 172.48 0 0 0-43.6-41.28M764 166.27a4.29 4.29 0 0 1 0 6.09 4.35 4.35 0 0 1-6.12 0 4.27 4.27 0 0 1 0-6.09 4.35 4.35 0 0 1 6.12 0m-5.08-46.4L769.37 138a8.61 8.61 0 0 1-1.87 10.83l-16.32 14a6.22 6.22 0 0 0-.34 9.14l7.23 7.19a6.3 6.3 0 0 0 9.23-.38l13.8-16.23a8.71 8.71 0 0 1 10.9-1.84l18.69 10.61a22.56 22.56 0 0 0 27.62-4.19l45.5-48.25c14.56-15.6 8.17-33.95-7-49L861 54.08c-15.14-15-33.59-21.41-49.27-6.92L763.16 92.4a22.27 22.27 0 0 0-4.22 27.47M130 45.66a4.31 4.31 0 0 1 .27-6.08 4.3 4.3 0 0 1 6.08.26 4.31 4.31 0 0 1-.27 6.09 4.3 4.3 0 0 1-6.08-.27m3 46.6l-9.57-18.6a8.66 8.66 0 0 1 2.33-10.75l16.86-13.26a6.25 6.25 0 0 0 .74-9.12L136.49 33a6.23 6.23 0 0 0-9.18 0L112.9 48.63A8.65 8.65 0 0 1 102 50L83.9 38.6a22.31 22.31 0 0 0-27.61 3L9 87.85c-15.14 15-9.59 33.58 4.78 49.28l15.1 16.48c14.37 15.7 32.42 22.85 48.63 9l50.16-43.08a22.39 22.39 0 0 0 5.38-27.27m781.23 229.12a4.1 4.1 0 1 1-2.11 5.39 4.09 4.09 0 0 1 2.11-5.39zm-3.61-4.5a8 8 0 0 0-4 10.89l6.74 13.75A9.37 9.37 0 0 1 911 353c-27.6 22.91-19.8 54.82-9.72 77.82 11.44 26.12 28.47 28.13 66.05 11.68s47.67-30.36 36.21-56.5c-10.08-23-28.24-50.38-63.81-45.64a9.36 9.36 0 0 1-10.05-6l-5.54-14.27a8 8 0 0 0-10.71-4.45zm605.84 285.25a4.08 4.08 0 1 1-5.74.39 4.08 4.08 0 0 1 5.74-.39zM1519 597a8 8 0 0 0-11.47 1l-9.49 11.91a9.3 9.3 0 0 1-11.31 2.68c-32.26-15.12-57.61 5.46-74 24.3-18.62 21.4-13.22 37.58 17.47 64.43s47.4 30 66 8.63c16.39-18.84 33.28-46.83 14-76.83a9.36 9.36 0 0 1 1.12-11.6l10.47-11a8 8 0 0 0-.53-11.54z" fill="#00a499" fill-opacity=".3" fill-rule="evenodd"/></svg>