<svg data-name="Layer 1" xmlns="http://www.w3.org/2000/svg" viewBox="0 0 105 153"><path d="M105 149.45c0 .82-4.7 1.94-12.51 2.52-3.74.27-8.24.25-13.22.43-4.08.15-8.54-.32-13.23-.24-4.22.07-8.64.48-13.21.48s-9-.17-13.2-.24c-4.7-.07-9.2.73-13.28.58-5-.18-9.43-.78-13.17-1C5.37 151.35 0 150.27 0 149.45s5.35-2 13.16-2.62c3.74-.28 8.22-.6 13.2-.78 4.07-.15 8.55.11 13.24 0 4.22-.07 8.66.55 13.23.55s9-.32 13.21-.25c4.7.08 9.18-.45 13.26-.3 5 .19 9.34 1.27 13.08 1.55 7.81.57 12.62 1 12.62 1.82" fill="#00a499" fill-rule="evenodd"/></svg>