<?xml version="1.0" encoding="UTF-8"?> <svg id="Layer_1" data-name="Layer 1" xmlns="http://www.w3.org/2000/svg" xmlns:xlink="http://www.w3.org/1999/xlink" viewBox="0 0 296 90"><defs><mask id="mask" x="52.61" y="54.7" width="12.44" height="12.62" maskUnits="userSpaceOnUse"><g id="mask-2" data-name="mask"><g id="note-dairy-free-b"><polygon id="note-dairy-free-a" points="52.65 54.72 65.06 54.72 65.06 67.22 52.65 67.22 52.65 54.72" style="fill:#fff;fill-rule:evenodd"/></g></g></mask><mask id="mask-3" x="66.43" y="52.03" width="13.98" height="18.96" maskUnits="userSpaceOnUse"><g id="mask-2-2" data-name="mask-2"><g id="note-dairy-free-d"><polygon id="note-dairy-free-c" points="66.44 52.05 80.38 52.05 80.38 70.99 66.44 70.99 66.44 52.05" style="fill:#fff;fill-rule:evenodd"/></g></g></mask><mask id="mask-4" x="230.9" y="57.93" width="12.45" height="12.57" maskUnits="userSpaceOnUse"><g id="mask-3-2" data-name="mask-3"><g id="note-dairy-free-f"><polygon id="note-dairy-free-e" points="230.94 57.93 243.35 57.93 243.35 70.47 230.94 70.47 230.94 57.93" style="fill:#fff;fill-rule:evenodd"/></g></g></mask></defs><title>note-dairy-free</title><g style="mask:url(#mask)"><path d="M60.39,59.59c.44-.09.32-.41.06-.64a2.36,2.36,0,0,0-1.81-.36,2.41,2.41,0,0,0-1.64,1c-.17.29-.19.64.26.59Zm-2.75,2.82c-.42.07-.34.45-.06.65a2.39,2.39,0,0,0,1.77.29,2.52,2.52,0,0,0,1.58-.92.63.63,0,0,1,.82-.18l2.5,1.34a.4.4,0,0,1,.21.54.16.16,0,0,1,0,.07,6.37,6.37,0,0,1-11.61-1.73c0-.14-.05-.28-.07-.42a6.06,6.06,0,0,1,4.68-7.17l.4-.07a6,6,0,0,1,7,4.74,2.38,2.38,0,0,1,.06.37l.11.71c.07.38,0,.57-.43.63Z" style="fill:#de7c00;fill-rule:evenodd"/></g><g style="mask:url(#mask-3)"><path d="M71.34,66.43a.39.39,0,0,0-.42.47c.09.62,1,.88,3.13.59,1.91-.26,2.42-.57,2.35-1.07s-.41-.55-2.81-.22c-.86.11-1.58.14-2.25.23m2.78-9.36c-.1-.74-.78-1.11-2-.94s-1.79.7-1.69,1.44.78,1.1,2,.94,1.79-.71,1.69-1.44m-7.64,1c-.37-2.74,1.26-4.85,5.07-5.36,1.57-.21,2.22-.06,2.93-.16L78.34,52c.38,0,.56.07.61.45l.38,2.79c.06.4-.07.54-.47.59l-.62.09c-.41,0-.53.21-.49.55.37,2.73-1.37,4.71-4.68,5.16a12.62,12.62,0,0,1-1.63.08.34.34,0,0,0-.33.34v.06c0,.22.11.45.53.51a12.58,12.58,0,0,0,3-.18c3.78-.51,5.41.63,5.72,3,.45,3.26-2.21,4.78-6.35,5.34-3.9.53-6.51-.16-6.82-2.42a2.87,2.87,0,0,1,.87-2.51.36.36,0,0,0,0-.58,2.87,2.87,0,0,1-.9-1.7,2.64,2.64,0,0,1,.94-2.42.37.37,0,0,0,.1-.5.47.47,0,0,0-.1-.1,3.62,3.62,0,0,1-1.5-2.49" style="fill:#de7c00;fill-rule:evenodd"/></g><path d="M86.14,64.59a.4.4,0,0,0-.44.46c.07.62.94.92,3.11.69,1.91-.2,2.44-.49,2.39-1s-.4-.57-2.81-.32c-.86.09-1.58.1-2.25.16m3.07-9.26c-.08-.74-.75-1.13-2-1S85.4,55,85.47,55.7s.75,1.13,2,1,1.81-.64,1.74-1.38m-7.66.79c-.29-2.74,1.4-4.8,5.22-5.2,1.58-.16,2.22,0,2.94-.06l3.87-.4c.38,0,.56.09.6.47l.29,2.79c0,.41-.09.54-.5.58l-.62.07c-.4,0-.53.2-.5.53.29,2.75-1.52,4.67-4.83,5a11.22,11.22,0,0,1-1.64,0,.37.37,0,0,0-.35.37v0a.55.55,0,0,0,.52.52,12.55,12.55,0,0,0,3-.09c3.79-.39,5.38.8,5.63,3.16.34,3.27-2.36,4.7-6.51,5.13-3.92.41-6.5-.36-6.74-2.63a2.87,2.87,0,0,1,.95-2.48c.2-.19.2-.36,0-.58A2.89,2.89,0,0,1,82,61.6a2.69,2.69,0,0,1,1-2.4.35.35,0,0,0,0-.6,3.63,3.63,0,0,1-1.42-2.53M108.75,51a1,1,0,0,0,.51-.31,2,2,0,0,0,.74-1.48,1.1,1.1,0,0,0-1.16-1.07h0a1.22,1.22,0,0,0-1.16,1.27v0a1.86,1.86,0,0,0,.63,1.28.56.56,0,0,0,.5.26m-.14,6.19a.46.46,0,0,0,.19-.63.58.58,0,0,0-.11-.15l-1-1.09a.5.5,0,0,0-.63-.07c-.69.5-1.12,1-1.09,1.6a1,1,0,0,0,1.1.88h0a3.85,3.85,0,0,0,1.53-.54m11.24-8.48c.48,0,.63.11.66.62l.12,2.79c0,.48-.11.63-.58.66-2.52.14-2.42,1.53-4.71,3.55-.21.18-.26.42,0,.6a3.27,3.27,0,0,0,1.69.48,1.36,1.36,0,0,0,1.47-1.24,1.15,1.15,0,0,0,0-.37c0-.6.11-.78.66-.81l2.42-.13c.57,0,.75.13.78.73.15,2.8-1.2,5.35-4.57,5.53a8.87,8.87,0,0,1-5.14-1.28c-.45-.26-.62-.3-1.06,0a9.25,9.25,0,0,1-5.14,1.86c-2.75.15-4.92-1.31-5.07-4.07-.12-2.08,1-3.56,2.94-4.68.39-.23.43-.45.19-.85a5.69,5.69,0,0,1-.86-2.65,4.94,4.94,0,0,1,4.74-5.12h.15c3-.17,5.13,1.54,5.28,4.44A5,5,0,0,1,111.38,53a.4.4,0,0,0-.11.55.43.43,0,0,0,.11.12l.33.35c.26.27.55.21.82-.1,2.29-2.38,2.49-4.89,7.31-5.16m17.36,5.69a2.11,2.11,0,1,0-2.13,2.17,2.06,2.06,0,0,0,2.1-2,1.15,1.15,0,0,0,0-.19m-.79-5.75a.83.83,0,0,0,.4.11c.22,0,.31-.17.31-.43V44.13c0-.38.13-.55.52-.55h3c.38,0,.53.16.53.55l.14,15.7c0,.38-.14.55-.52.55h-2.23c-.41,0-.65,0-.82-.3s-.22-.26-.36-.26a1.36,1.36,0,0,0-.43.14,5,5,0,0,1-2.45.7c-3.14,0-5.61-2.4-5.64-6.19s2.39-6.26,5.53-6.29a4.88,4.88,0,0,1,2.1.46m14.17,8c0-.65-.6-1.09-1.63-1.11s-1.67.4-1.68,1,.6,1.09,1.63,1.11,1.67-.4,1.68-1m-7.37,0c0-2.4,1.9-4,4.57-4a4.82,4.82,0,0,1,2.17.55,1.42,1.42,0,0,0,.5.2c.14,0,.2-.14.2-.3,0-.61-.91-1.18-2.43-1.21a8.5,8.5,0,0,0-2.5.32c-.27.06-.6.08-.69-.31l-.58-2.45c-.08-.37,0-.6.38-.67a17.07,17.07,0,0,1,4.21-.44c3.74.07,5.63,1.74,5.55,5.7l-.12,6.12c0,.39-.15.53-.54.52h-2.16c-.48,0-.69-.06-.83-.33s-.19-.27-.36-.27a2.52,2.52,0,0,0-.77.29,4.77,4.77,0,0,1-2.24.46,4,4,0,0,1-4.36-4.16m14.38-12.07c0-.39.16-.55.55-.53l3,.11c.38,0,.52.19.5.57l-.09,2.4c0,.39-.16.55-.55.53l-3-.11c-.39,0-.52-.19-.51-.58Zm-.19,4.79c0-.38.16-.54.55-.53l3,.12c.38,0,.52.19.5.57L161,60.38c0,.39-.16.55-.54.53l-3-.11c-.38,0-.52-.19-.5-.58ZM170,54.73a.42.42,0,0,1-.45-.38v-.12c0-.58-.22-.88-.67-.91s-.89.34-.94,1.25l-.33,6.11c0,.39-.17.54-.56.52L164.14,61c-.39,0-.52-.2-.5-.58l.6-10.86c0-.38.18-.54.56-.52l2.3.14a.7.7,0,0,1,.75.38.41.41,0,0,0,.32.26,1.32,1.32,0,0,0,.49-.14,4.84,4.84,0,0,1,2-.53c2,.11,3.08,1.5,2.92,4.25v.94c0,.38-.18.54-.56.52Zm9.55,12.51a.93.93,0,0,1-1.08.56l-3-.26c-.45,0-.55-.36-.35-.68l3.46-5.63a.63.63,0,0,0,.13-.35.58.58,0,0,0,0-.32l-3.92-10.28c-.11-.32,0-.62.53-.58l2.94.25a.94.94,0,0,1,1,.76l1.9,5a.36.36,0,0,0,.47.2.33.33,0,0,0,.2-.2l2.73-4.65a1,1,0,0,1,1.09-.59l3,.26c.5,0,.52.38.35.68Zm27.06-17.65-1.38,2.2c-.21.34-.42.34-.76.15a6,6,0,0,0-2-.78c-.47-.06-1.1-.06-1.17.53-.05.38.12.57.5.62l3.45.42c.39,0,.54.21.5.59l-.36,2.88c0,.39-.24.51-.61.46l-3.5-.43c-.39,0-.54.11-.59.49l-.85,6.87c0,.38-.21.53-.59.48l-2.92-.35c-.39,0-.51-.23-.47-.62l.84-6.88c0-.38-.07-.57-.45-.61l-1.36-.17c-.38,0-.53-.21-.48-.59L194.8,52c0-.38.23-.5.61-.46l1.36.17c.38,0,.54-.1.59-.49.39-3.26,2.21-4.25,5.16-3.88a8.82,8.82,0,0,1,4,1.52c.33.24.4.41.19.75m6.12,9.61a.43.43,0,0,1-.43-.43.25.25,0,0,1,0-.12c.08-.57-.14-.89-.59-1s-.91.26-1,1.16l-.89,6.1c-.06.38-.22.53-.61.47l-2.92-.43c-.38,0-.49-.24-.44-.62l1.51-10.73c.06-.38.22-.52.6-.47l2.28.34c.42,0,.58.13.72.44a.42.42,0,0,0,.3.29,1.24,1.24,0,0,0,.5-.1,4.8,4.8,0,0,1,2.09-.35c2,.29,2.94,1.77,2.53,4.5l-.13.92c-.06.38-.23.53-.61.47Zm12.75,1.64c.45.06.44-.29.27-.58a2.63,2.63,0,0,0-3.5-.61c-.26.22-.38.54.06.64ZM222,62.59c-.42-.08-.46.31-.27.58a2.43,2.43,0,0,0,1.58.86,2.5,2.5,0,0,0,1.79-.35.64.64,0,0,1,.84.1l2,2.07a.41.41,0,0,1,.06.58l-.06,0A6.39,6.39,0,0,1,217.52,61l.06-.37a6.18,6.18,0,1,1,12.2,2l-.12.71c-.07.38-.24.52-.62.45Z" style="fill:#de7c00;fill-rule:evenodd"/><g style="mask:url(#mask-4)"><path d="M239.09,63.45c.45.07.45-.27.29-.57a2.59,2.59,0,0,0-3.48-.71c-.26.21-.4.53,0,.64Zm-3.61,1.64c-.42-.08-.48.3-.29.58a2.36,2.36,0,0,0,1.56.9,2.53,2.53,0,0,0,1.8-.29.62.62,0,0,1,.83.12l1.92,2.13a.42.42,0,0,1,0,.59l0,0a6.06,6.06,0,0,1-5.33,1.14A5.93,5.93,0,0,1,231,63.5a4.1,4.1,0,0,1,.1-.48,6.18,6.18,0,1,1,12.14,2.35h0l-.15.7c-.07.38-.25.52-.62.44Z" style="fill:#de7c00;fill-rule:evenodd"/></g><path d="M206.53,4a.91.91,0,0,1-1.06.51c-.28-.06-.61-.17-1-.24l-1.05-.17a6.49,6.49,0,0,0-1.08,0c-.37,0-.66-.31-1-.35a8.86,8.86,0,0,0-1.09-.12c-.4,0-.72.1-1.08.07s-.7,0-1.07,0-.68-.07-1.06-.07-.69.1-1,.11-.71-.11-1.07-.11-.71-.09-1.07-.06-.7.12-1,.16a7.85,7.85,0,0,0-1.07.09c-.36.09-.67.17-1,.22a5.37,5.37,0,0,0-1,.11,9.18,9.18,0,0,1-.95.44c-.33.08-.66.19-1,.28s-.65.2-1,.3-.72,0-1,.12-.67.18-1,.31-.55.46-.86.6-.61.31-.92.46-.61.29-.91.46-.65.23-1,.41-.43.58-.72.77-.64.27-.91.47-.65.27-.92.48-.42.57-.68.8l-.75.69c-.25.23-.55.41-.78.66s-.47.5-.7.76-.33.6-.55.87-.51.47-.71.74-.46.51-.65.8-.27.64-.45.93-.47.51-.64.8-.36.58-.53.88-.19.67-.35,1-.48.52-.63.83-.19.66-.33,1a.73.73,0,0,1-1,.32h0c-.45-.18-.54,0-1-.15a7.94,7.94,0,0,1-.88-.43.83.83,0,0,1-.32-1.11c.14-.32.33-.61.47-.92s.2-.68.34-1,.4-.58.56-.88.38-.57.55-.87.13-.73.31-1,.45-.53.64-.82.53-.47.73-.75.18-.73.39-1,.65-.36.87-.62.42-.56.63-.81.3-.67.54-.92.67-.3.91-.54.54-.43.8-.66.4-.58.66-.8.52-.46.79-.67.66-.27.93-.47.52-.47.8-.66.54-.45.83-.63.66-.22,1-.39.55-.45.85-.6.59-.38.9-.53.72,0,1.05-.17a8.21,8.21,0,0,1,.91-.5c.32-.12.58-.41.91-.52s.71,0,1-.14a5.33,5.33,0,0,1,1-.37,4.1,4.1,0,0,1,1.05,0,5.33,5.33,0,0,0,1-.23c.34-.07.64-.32,1-.38s.71.07,1,0a8.43,8.43,0,0,1,1-.3c.34,0,.68-.11,1-.15s.68-.17,1-.2.7.19,1,.17.69-.19,1-.2.7.25,1,.25.69-.09,1-.08.69.12,1,.14a5.57,5.57,0,0,1,1,0,4.18,4.18,0,0,0,1,0c.3,0,.67.26,1,.3s.73-.17,1.05-.12.65.36,1,.42.76-.23,1.07-.17.67.45.94.51a.56.56,0,0,1,.5.61,1.05,1.05,0,0,1-.05.19c-.14.47,0,.51-.12,1S206.64,3.5,206.53,4ZM177.64,24.73a.75.75,0,0,1-.44,1h0c-.49.14-.5.1-1,.24l-1,.29c-.49.14-.51,0-1,.18a6.9,6.9,0,0,1-1,.34c-.53.14-.5.08-1,.21s-.46.22-1,.36-.49.11-1,.25l-1,.26c-.49.14-.5.1-1,.24s-.44.29-.93.43-.53,0-1,.16l-1,.25c-.48.14-.44.26-.93.4a.78.78,0,0,1-.89-.58c-.18-.5-.25-.47-.42-1s-.2-.48-.39-1-.19-.49-.36-1-.09-.52-.26-1-.25-.47-.42-1-.16-.5-.34-1-.2-.49-.37-1-.14-.51-.31-1-.26-.47-.43-1,0-.55-.19-1-.27-.46-.45-1-.08-.53-.25-1a.7.7,0,0,1,.3-1l.1,0,.92-.31c.46-.17.48-.11.94-.27a.63.63,0,0,1,.84.33,1,1,0,0,1,0,.1c.18.49.23.47.4,1s.2.48.38,1,.18.49.36,1,.13.5.3,1,.25.46.42.94.1.51.28,1,.16.48.33,1,.25.46.43.94.12.51.29,1a.74.74,0,0,0,.94.47c.48-.13.49-.08,1-.22s.47-.16,1-.3.46-.18.94-.31.51,0,1-.15l1-.27c.48-.14.43-.29.91-.43s.51,0,1-.13l1-.26c.47-.14.46-.17.94-.3l1-.27a.81.81,0,0,1,1,.48c.13.47,0,.51.12,1A7.54,7.54,0,0,0,177.64,24.73Z" style="fill:#de7c00;fill-rule:evenodd"/></svg>