<?xml version="1.0" encoding="UTF-8"?> <svg id="Layer_1" data-name="Layer 1" xmlns="http://www.w3.org/2000/svg" viewBox="0 0 292.97 90"><title>note-non-gmo</title><path d="M14.82,45.85l1.86,6.44a.45.45,0,0,1-.35.66l-2.77.77c-.37.11-.54,0-.65-.37l-1.45-5.08c-.29-1-.85-1.84-1.89-1.55S8.42,48,8.72,49l1.47,5.09c.1.35,0,.56-.35.65l-2.77.79c-.36.09-.54,0-.64-.38L3.47,45c-.1-.35,0-.55.35-.64l2.09-.6c.52-.15.66-.11.92.13a.39.39,0,0,0,.34.1,1.72,1.72,0,0,0,.49-.36,4.64,4.64,0,0,1,2.07-1.19c2.2-.61,4.17.27,5.06,3.36M25,44.7a2.08,2.08,0,0,0-2.56-1.41A2,2,0,0,0,21,45.82a2.07,2.07,0,0,0,2.49,1.43A2,2,0,0,0,25,44.82l0-.12m4-1A5.78,5.78,0,0,1,25,50.94a5.29,5.29,0,0,1-.54.13,5.87,5.87,0,0,1-7.33-3.82c-.05-.17-.1-.35-.14-.53a5.8,5.8,0,0,1,3.94-7.21l.54-.13A5.86,5.86,0,0,1,28.8,43.2a4.58,4.58,0,0,1,.14.53M41,39.58l1.48,6.56c.08.36,0,.55-.39.63l-2.81.62c-.37.08-.54,0-.62-.41l-1.16-5.16c-.22-1-.74-1.94-1.78-1.66s-1.23,1.17-1,2.26l1.16,5.16c.08.37,0,.56-.39.64l-2.79.66c-.37.09-.54,0-.63-.41l-2.3-10.33c-.08-.36,0-.55.39-.62L32.35,37c.52-.11.65-.06.9.19a.35.35,0,0,0,.34.11,1.36,1.36,0,0,0,.5-.33A4.85,4.85,0,0,1,36.23,36c2.24-.49,4.14.52,4.88,3.64m10.13,0c.07.36,0,.55-.41.62l-6.21,1.2c-.37.07-.54-.07-.6-.43l-.52-2.39c-.07-.37,0-.55.41-.62l6.21-1.2c.37-.07.53.06.6.43Zm16,2.72c-.4.07-.6.1-.81-.13-.37-.4-.66-.12-1.06.13a7.26,7.26,0,0,1-2.79,1,8.05,8.05,0,0,1-9.4-6.36l-.09-.56a8,8,0,0,1,6.71-9.55,7.76,7.76,0,0,1,7.72,2.9c.31.43.44.78,0,1.08l-2.42,1.7c-.32.23-.54.28-.84,0a4,4,0,0,0-3.72-1.25,3.87,3.87,0,0,0-3.22,4.43s0,.06,0,.09a4,4,0,0,0,4.4,3.46l.29,0a4.77,4.77,0,0,0,2.53-1.09c.3-.28.32-.46.24-1l-.42-2.51c-.06-.37,0-.55.42-.61l2.93-.48c.36-.06.53.08.6.44l1.22,7.41c.05.37,0,.55-.42.61Zm16.41-9.53c0-.36-.45-.35-.6-.08L80.39,37a.46.46,0,0,1-.6.25.45.45,0,0,1-.19-.15l-3.69-3.59c-.21-.24-.6-.19-.55.23l.83,6.69c0,.38-.06.55-.44.6l-2.93.37c-.38,0-.54-.1-.59-.47l-1.92-15c0-.36.07-.55.44-.6l2-.23c.53-.07.71.08,1.09.49l5,4.95a.47.47,0,0,0,.63.12.5.5,0,0,0,.16-.22l3.64-6c.27-.5.41-.67,1-.74l1.95-.23c.37,0,.53.1.58.46L88.59,39c0,.36-.06.54-.44.59l-2.92.36c-.38.05-.53-.09-.58-.46ZM94.1,30.81a3.92,3.92,0,1,0,3.59-4.18,3.9,3.9,0,0,0-3.59,4.18m-4.27.39a8.2,8.2,0,0,1,16.3-1.88c0,.16,0,.32,0,.48a8.2,8.2,0,0,1-16.29,1.87c0-.15,0-.31,0-.47m27.22.4a2.06,2.06,0,0,0,4.12-.17h0a2.06,2.06,0,0,0-4.12.17m1,5.53a1.14,1.14,0,0,0-.4-.11c-.2,0-.3.16-.29.41l.21,5c0,.36-.12.54-.5.55l-2.87.12c-.38,0-.52-.14-.54-.51L113,26.5c0-.37.12-.54.49-.55l2.18-.1c.4,0,.63,0,.81.27s.21.26.36.25a1.29,1.29,0,0,0,.41-.16,5,5,0,0,1,2.36-.75c3.07-.13,5.56,2.13,5.71,5.8s-2.13,6.12-5.2,6.25a5,5,0,0,1-2-.38m15.29-6.61a.42.42,0,0,1-.47-.36v-.09c0-.56-.27-.83-.72-.83s-.84.38-.82,1.26l.09,6c0,.38-.13.54-.5.54l-2.93,0c-.37,0-.52-.15-.52-.52L127.28,26c0-.37.13-.53.5-.54H130c.4,0,.55,0,.75.32a.39.39,0,0,0,.33.22,1.11,1.11,0,0,0,.47-.17,4.7,4.7,0,0,1,1.95-.65c2,0,3.12,1.22,3.17,3.86v.9c0,.37-.13.54-.51.54Zm13,.66a2.06,2.06,0,1,0-2.06,2,2,2,0,0,0,2.06-2m4.1,0a6.16,6.16,0,0,1-12.32-.12h0a6.16,6.16,0,0,1,12.32.12" style="fill:#de7c00;fill-rule:evenodd"/><path d="M152.67,21.38c0-.38.15-.53.53-.52l2.88.09c.37,0,.5.17.49.55l-.06,2.32c0,.36-.16.52-.53.51l-2.93-.09c-.38,0-.52-.17-.51-.55ZM156.08,38c-.1,3.28-1.89,4.91-5,4.83-2.81-.08-4.66-1.62-4.58-4.16,0-.38.17-.56.59-.55l2.83.11c.33,0,.48.11.52.44.06.49.26.82.79.84s.9-.28,1-1.4l.36-12.07c0-.37.16-.52.54-.51l2.88.08c.37,0,.51.18.5.54Zm10-7.27c.44,0,.39-.33.2-.59a2.57,2.57,0,0,0-3.47-.17c-.22.24-.31.56.14.61Zm-3.25,2.09c-.42,0-.42.36-.19.6a2.39,2.39,0,0,0,1.63.64,2.55,2.55,0,0,0,1.7-.54.61.61,0,0,1,.82,0L169,35.29a.4.4,0,0,1,.07.55l-.07.06a5.89,5.89,0,0,1-5,1.87,5.83,5.83,0,0,1-5.71-5.94c0-.12,0-.23,0-.34a6,6,0,0,1,12.06.49v.7c0,.36-.17.52-.55.5Zm15.49-6.24a6.06,6.06,0,0,1,4.76,2.59.42.42,0,0,1-.12.59l-.05,0-2.42,1.51a.68.68,0,0,1-1-.07l-.06-.08a2.09,2.09,0,0,0-1.47-.65,2,2,0,0,0-2.21,1.84v.09a2,2,0,0,0,1.77,2.25h.11a2,2,0,0,0,1.51-.43.69.69,0,0,1,1,0l2.16,1.86a.42.42,0,0,1,.12.57l-.05.06a6.1,6.1,0,0,1-5.08,1.85,5.82,5.82,0,0,1-5.71-5.94,3.48,3.48,0,0,1,0-.55,5.83,5.83,0,0,1,6.06-5.58,5.29,5.29,0,0,1,.56.05m6.53,4.6c-.38,0-.53-.2-.49-.56l.29-2.8c0-.36.2-.49.59-.45l1.33.14c.37,0,.52-.11.56-.48l.37-3.55c0-.37.2-.52.57-.48l2.87.29c.37,0,.5.22.46.58l-.37,3.56c0,.37.08.54.46.58l2.65.27c.38,0,.53.19.49.56l-.29,2.79c0,.38-.22.49-.59.46l-2.65-.27c-.39,0-.54.1-.58.48L189.86,39c0,.36-.2.51-.57.47l-2.87-.29c-.37,0-.49-.21-.45-.58l.69-6.67c0-.37-.08-.55-.46-.59Zm19.8,10.1a.87.87,0,0,1-.91-.76l-3.53-10.91c-.09-.32,0-.65.46-.59l2.93.41a.93.93,0,0,1,.91.78l1.59,5a.34.34,0,0,0,.4.27.35.35,0,0,0,.25-.19L209.7,31a1,1,0,0,1,1.1-.52l2.93.42c.44.06.48.37.28.7l-6.44,9.52a.89.89,0,0,1-1.09.49Zm16.79-4.36c.45.05.43-.28.26-.57a2.55,2.55,0,0,0-3.41-.57c-.26.21-.38.52.05.62ZM218,38.64c-.41-.07-.45.3-.26.57a2.35,2.35,0,0,0,1.55.82,2.55,2.55,0,0,0,1.75-.35.6.6,0,0,1,.81.1l1.95,2a.39.39,0,0,1,.05.56l-.05.05a6,6,0,0,1-5.16,1.27,5.75,5.75,0,0,1-5-6.4c0-.16,0-.31.08-.47a6,6,0,0,1,11.92,1.88h0l-.12.68c-.06.36-.22.51-.59.44Zm15.45,1a.41.41,0,0,1-.39-.44.36.36,0,0,1,0-.1c.11-.54-.09-.87-.52-1s-.91.2-1.07,1.06L230.31,45c-.06.36-.24.49-.6.42l-2.83-.55c-.37-.07-.48-.25-.4-.62l2.05-10.33c.07-.36.23-.49.6-.42l2.21.42c.39.08.55.16.67.47a.34.34,0,0,0,.28.29,1.17,1.17,0,0,0,.49-.07,4.55,4.55,0,0,1,2.07-.18c1.89.36,2.79,1.84,2.27,4.46l-.18.88c-.07.37-.24.5-.6.42Zm7-8c.08-.35.25-.49.62-.41l2.82.61c.37.07.46.26.39.63l-.5,2.26c-.08.36-.25.49-.62.41l-2.81-.6c-.37-.07-.47-.27-.39-.63Zm-1,4.54c.08-.36.26-.5.62-.42l2.82.61c.36.08.47.26.39.63L241,47.23c-.07.35-.25.48-.62.4l-2.81-.6c-.37-.07-.47-.27-.39-.62Zm17.51.14-1.58,1.93c-.25.3-.45.27-.77.06a6,6,0,0,0-1.88-1c-.46-.1-1.06-.17-1.2.39a.48.48,0,0,0,.27.62.8.8,0,0,0,.15,0l3.31.77c.36.09.49.26.41.62L255,42.44c-.08.36-.28.46-.64.37L251,42c-.36-.09-.54,0-.62.4L248.82,49c-.08.35-.26.48-.62.4l-2.81-.65c-.36-.09-.46-.28-.37-.64l1.55-6.52c.09-.37,0-.56-.38-.64l-1.3-.31c-.36-.09-.49-.25-.4-.62l.65-2.73c.08-.36.28-.46.64-.37l1.31.3c.36.09.53,0,.62-.4.73-3.09,2.61-3.86,5.43-3.19a8.65,8.65,0,0,1,3.69,1.94c.3.26.35.44.12.74m1.73-.48c.09-.36.27-.49.64-.39l2.78.72c.36.08.46.28.37.63L261.88,39c-.09.36-.27.49-.64.39l-2.78-.71c-.36-.09-.46-.28-.37-.65Zm-1.18,4.49c.1-.36.28-.48.64-.39l2.79.71c.36.1.46.29.36.65l-2.67,10.14c-.09.36-.27.48-.63.4l-2.79-.73c-.37-.08-.46-.28-.37-.63Zm12.2,7.6c.43.1.45-.23.32-.54a2.56,2.56,0,0,0-3.34-1c-.27.19-.43.48,0,.62Zm-3.6,1.28c-.41-.12-.49.25-.33.53a2.32,2.32,0,0,0,1.45,1A2.55,2.55,0,0,0,269,50.5a.61.61,0,0,1,.8.18l1.71,2.19a.39.39,0,0,1,0,.56l-.05,0a5.92,5.92,0,0,1-5.28.71,5.73,5.73,0,0,1-4.31-6.9,4,4,0,0,1,.13-.46,6,6,0,0,1,7.4-4.2A6,6,0,0,1,273.6,50l-.18.68c-.11.36-.29.47-.65.37Zm16.59,3.71a2.06,2.06,0,1,0-2.6,1.39A2,2,0,0,0,282.64,53a1,1,0,0,0,.05-.16m1-5.53a.71.71,0,0,0,.34.23c.2.06.34-.06.42-.3l1.22-3.87c.12-.36.3-.47.65-.36l2.76.86c.36.12.44.31.33.67l-4.62,14.49c-.12.36-.3.48-.65.36L282,58.77c-.38-.11-.6-.21-.68-.52s-.11-.31-.25-.35a1.09,1.09,0,0,0-.44,0,5.08,5.08,0,0,1-2.48-.08c-2.93-.92-4.49-3.87-3.37-7.39s4.11-5,7-4.12a5.06,5.06,0,0,1,1.81,1" style="fill:#de7c00;fill-rule:evenodd"/><path d="M96.27,82.9a.89.89,0,0,1,1.11-.31c.24.11.56.26,1,.41l1,.33c.31.11.68.08,1,.2a9.84,9.84,0,0,0,1,.5c.39.11.65.21,1,.3s.7,0,1,.12a9.18,9.18,0,0,0,1,.13c.34.07.66.19,1,.26s.69,0,1,.07.66.26,1,.3.66.21,1,.24.69,0,1,0,.68.09,1,.11.67,0,1,0,.68.07,1,.06.65-.24,1-.26.67-.06,1-.09.65-.09,1-.13.69.12,1,.06.69-.06,1-.13.6-.33,1-.42.63-.19,1-.28.64-.18,1-.29.66-.11,1-.23.52-.48.82-.61.67-.15,1-.29.67-.16,1-.31.5-.47.78-.65l.84-.53c.28-.18.59-.3.87-.49l.8-.61c.26-.21.42-.52.67-.74s.57-.35.81-.59.53-.4.76-.64.36-.56.59-.81.54-.41.75-.66.45-.49.65-.75.31-.6.51-.87.55-.41.74-.68.31-.6.49-.88a.72.72,0,0,1,1-.14c.4.27.53.07.93.32s.37.3.77.55a.79.79,0,0,1,.12,1.1c-.18.28-.42.53-.6.79s-.29.62-.5.88-.47.48-.68.74-.46.48-.68.74-.24.67-.46,1a9.12,9.12,0,0,1-.76.67c-.22.24-.59.36-.83.59s-.29.67-.54.89-.69.23-1,.44-.49.47-.75.67-.4.58-.67.78-.7.17-1,.36-.6.32-.88.49-.48.49-.77.66-.58.35-.87.5-.67.15-1,.29-.57.37-.87.49-.59.34-.9.47-.69.1-1,.21a9.8,9.8,0,0,1-.92.42,9.24,9.24,0,0,1-1,.35c-.35.08-.72-.07-1,0s-.63.25-1,.32-.63.29-1,.34-.69-.08-1,0a6,6,0,0,1-1,.19c-.32,0-.7-.15-1-.13h-1c-.34,0-.66.19-1,.19s-.67-.18-1-.19-.68.13-1,.11-.68,0-1,0h-1c-.29,0-.64-.3-1-.33s-.7.06-1,0a9.29,9.29,0,0,0-1-.42,8.92,8.92,0,0,1-1-.09c-.3-.08-.64-.23-1-.3a5.05,5.05,0,0,1-1-.12,7.94,7.94,0,0,0-1-.2c-.3-.08-.6-.35-.91-.44s-.73,0-1-.07-.57-.45-.86-.56-.77.09-1.06,0-.56-.54-.82-.65a.53.53,0,0,1-.38-.65.76.76,0,0,1,.09-.18c.2-.42.07-.49.27-1S96.06,83.32,96.27,82.9ZM127.58,68a.75.75,0,0,1,.6-.87h0a4.53,4.53,0,0,0,1-.07l1-.1a6.28,6.28,0,0,0,1,0c.47,0,.49-.11,1-.16a6.28,6.28,0,0,1,1,0,7.2,7.2,0,0,0,1-.17c.5,0,.49,0,1-.08l1-.08c.49,0,.49,0,1-.06s.48-.21,1-.25.49.06,1,0,.49,0,1-.09a6.73,6.73,0,0,1,1-.21.75.75,0,0,1,.77.69c.08.5.15.49.23,1s.13.49.21,1,.1.51.18,1,0,.52.09,1,.16.48.24,1,.07.5.15,1,.12.49.2,1a9.52,9.52,0,0,0,.12,1,8.55,8.55,0,0,1,.26,1c.08.48-.08.52,0,1s.18.47.26,1,0,.51.08,1a.7.7,0,0,1-.5.84h-.06l-1,.15c-.46.09-.47,0-1,.09a.6.6,0,0,1-.75-.43.5.5,0,0,1,0-.12c-.09-.49-.15-.49-.23-1s-.11-.49-.19-1-.1-.49-.19-1,0-.51-.12-1a8.6,8.6,0,0,1-.24-1c-.08-.49,0-.5-.1-1s-.08-.5-.15-1-.17-.47-.26-1,0-.5-.11-1a.72.72,0,0,0-.82-.6h-1a8.5,8.5,0,0,0-1,.13c-.5,0-.48.09-1,.14s-.5-.07-1,0l-1,.1c-.47,0-.46.2-1,.25s-.5-.09-1,0l-1,.08a6.87,6.87,0,0,0-1,.14l-1,.1a.79.79,0,0,1-.89-.63,3.5,3.5,0,0,0,0-1C127.24,68.34,127.63,68.45,127.58,68Z" style="fill:#de7c00;fill-rule:evenodd"/></svg>