<svg data-name="Layer 1" xmlns="http://www.w3.org/2000/svg" viewBox="0 0 694.9 561.68"><defs><mask id="a" x="633.9" y="440.45" width="61" height="62" maskUnits="userSpaceOnUse"><path fill="#fff" fill-rule="evenodd" d="M634 441.04h61v62h-61v-62z" transform="translate(-.1 -.59)"/></mask><mask id="b" x="588.98" y="352.68" width="89.29" height="72.18" maskUnits="userSpaceOnUse"><path fill="#fff" fill-rule="evenodd" d="M589.08 353.27h89.29v72.17h-89.29v-72.17z" transform="translate(-.1 -.59)"/></mask><mask id="c" x="64.27" y="5.53" width="74.96" height="75.73" maskUnits="userSpaceOnUse"><path fill="#fff" fill-rule="evenodd" d="M64.38 29.74l50.66-23.62 24.3 52.1-50.67 23.62-24.29-52.1z" transform="translate(-.1 -.59)"/></mask><mask id="d" x="-.43" y="-2.83" width="62.98" height="73.57" maskUnits="userSpaceOnUse"><path fill="#fff" fill-rule="evenodd" d="M3.37 71.33L-.32.86l59.29-3.11 3.69 70.47-59.29 3.11z" transform="translate(-.1 -.59)"/></mask><mask id="e" x="1.32" y="90.56" width="70.56" height="59.37" maskUnits="userSpaceOnUse"><path fill="#fff" fill-rule="evenodd" d="M1.42 91.15h70.56v59.37H1.42V91.15z" transform="translate(-.1 -.59)"/></mask></defs><g mask="url(#a)"><path d="M637.9 483.69c-9.16-17.68-1.52-32 12.09-38.82s30.68-7.4 39.84 10.27 5.56 37.54-8.06 44.37-34.7 1.9-43.87-15.82" fill="#de7c00" fill-rule="evenodd"/></g><path d="M619.78 561.68c-44.26-.71-79.11-36.61-77.85-80.19l.45-15.5a5.53 5.53 0 0 1 5.64-5.31c44.26.7 79.11 36.61 77.85 80.18l-.45 15.5a5.54 5.54 0 0 1-5.64 5.32" fill="#e4e2db" fill-rule="evenodd"/><g mask="url(#b)"><path d="M588.99 419.09c1.42-38.52 33.32-68.22 71.26-66.33l13.49.67a4.82 4.82 0 0 1 4.53 5c-1.43 38.52-33.33 68.22-71.27 66.33l-13.49-.67a4.81 4.81 0 0 1-4.52-5" fill="#e07c00" fill-rule="evenodd"/></g><g mask="url(#c)"><path d="M84.55 63.94c-14.54-11.31-13.81-26.3-5.17-37.3s22.58-18.1 37.11-6.8 19.32 29.4 10.69 40.41-28.09 15-42.63 3.69" fill="#de7c00" fill-rule="evenodd"/></g><g mask="url(#d)"><path d="M3.73.05c31.08-1.4 57.07 22.3 58.05 52.93l.35 10.9a3.89 3.89 0 0 1-3.72 4c-31.07 1.4-57.06-22.3-58-52.93L.01 4.02a3.89 3.89 0 0 1 3.72-4" fill="#e4e2db" fill-rule="evenodd"/></g><g mask="url(#e)"><path d="M71.9 94.72c-.22 31.11-25.25 55.82-55.89 55.2l-10.9-.22a3.89 3.89 0 0 1-3.77-3.93c.23-31.11 25.25-55.82 55.9-55.2l10.89.22a3.88 3.88 0 0 1 3.77 3.93" fill="#e4e2db" fill-rule="evenodd"/></g></svg>