<svg data-name="Layer 1" xmlns="http://www.w3.org/2000/svg" viewBox="0 0 440 440"><path d="M261.93 272.57c6.35-15.59 19.6-25 35.11-27.49a3.23 3.23 0 0 1 3.42 4.27c-3.1 10.94-7.95 17.77-6.37 17.34s10.56-8.07 16.15-19.66a3.41 3.41 0 0 1 3.42-2.1 62.12 62.12 0 0 1 12.21 3 3.28 3.28 0 0 1 2 3.61c-2.23 15.73-10.08 26.31-8.13 25.78 1.65-.45 10.92-8.33 16.48-20.29a3.24 3.24 0 0 1 4.71-1.54 61.62 61.62 0 0 1 7.48 5.92 3.53 3.53 0 0 1 1 3.05c-2.27 15.66-10.07 26.19-8.12 25.66 1.33-.36 7.71-5.68 13-14.09a3.08 3.08 0 0 1 5.4 0 46 46 0 0 1 2.31 39.59c-8.24 20.22-36.13 18.15-62 4.23-18.95-10.17-46.32-27.06-38.07-47.28m-7.36-121.71c-9-14.25-23.63-21.19-39.35-21a3.24 3.24 0 0 0-2.62 4.81c5 10.23 10.9 16.11 9.27 16s-11.79-6.11-19.31-16.56a3.41 3.41 0 0 0-3.74-1.46 63.07 63.07 0 0 0-11.5 5.05 3.31 3.31 0 0 0-1.38 3.91c4.94 15.11 14.5 24.17 12.49 24-1.69-.15-12.19-6.31-19.75-17.11a3.23 3.23 0 0 0-4.91-.7 60.49 60.49 0 0 0-6.33 7.13 3.47 3.47 0 0 0-.46 3.17c4.94 15 14.45 24 12.44 23.86-1.37-.13-8.57-4.25-15.28-11.61a3.09 3.09 0 0 0-5.32.95 46 46 0 0 0 4.65 39.38c11.63 18.49 38.73 11.6 61.82-6.6 16.89-13.32 40.91-34.69 29.28-53.18m49.88-23.46c5-10.63 14.56-16.68 25.46-17.87a2.26 2.26 0 0 1 2.22 3.11c-2.56 7.5-6.18 12.07-5.06 11.83s7.64-5.23 11.95-13.1a2.4 2.4 0 0 1 2.47-1.33 43.46 43.46 0 0 1 8.39 2.52 2.29 2.29 0 0 1 1.28 2.59c-2.13 10.87-8 18-6.6 17.66 1.16-.25 7.9-5.41 12.21-13.53a2.26 2.26 0 0 1 3.34-.9 44 44 0 0 1 5 4.39 2.42 2.42 0 0 1 .59 2.16c-2.15 10.83-8 17.87-6.59 17.58.94-.21 5.58-3.68 9.59-9.34a2.16 2.16 0 0 1 3.77.2 32.06 32.06 0 0 1 .12 27.66c-6.48 13.78-25.82 11.32-43.34.68-12.84-7.75-31.25-20.53-24.8-34.31" fill="#e4e2db" fill-opacity=".3" fill-rule="evenodd"/></svg>