<svg data-name="Layer 1" xmlns="http://www.w3.org/2000/svg" viewBox="0 0 440 440"><path d="M194.21 305.34c-.35 22.77 25.06 23.3 56.35 26.89s56.62 8.88 57-13.9-25-23.3-56.35-26.88-56.66-8.88-57 13.89zm-101.72-10c-1.86-16.1-1.71-29.15-17.65-29.06S62.08 279.38 64 295.47s1.72 29.16 17.65 29.07 12.71-13.14 10.84-29.24zm72.94-64.7c9.34-24.07 19.26-42.36-3.27-54.08s-27.74 9-37.08 33.1-19.26 42.34 3.27 54.04 27.75-9.03 37.08-33.1zm-88.78-97c-1.87-16.1-1.72-29.15-17.65-29.06s-12.76 13.14-10.9 29.23 1.72 29.16 17.65 29.07 12.76-13.22 10.9-29.32z" fill="#e4e2db" fill-opacity=".3" fill-rule="evenodd"/></svg>