<svg data-name="Layer 1" xmlns="http://www.w3.org/2000/svg" class="false" viewBox="0 0 1440 900"><path d="M101.77 79.05A3.44 3.44 0 0 0 99 80.61a.88.88 0 0 1-.22.21.9.9 0 0 1-.27.11A3.43 3.43 0 0 0 96 82.85c-2.19 4.81-1.5 11.43 2.24 17.15 4.66 7.14 10 6.73 16.07 4.61 4.38-4.69 6.91-9.43 2.25-16.56-3.74-5.74-9.53-9-14.79-9m356.37 195.72a3.42 3.42 0 0 0 2.18 2.32.87.87 0 0 1 .26.16 1.08 1.08 0 0 1 .18.24 3.43 3.43 0 0 0 2.47 2c5.19.91 11.44-1.36 16.1-6.38 5.8-6.24 4.1-11.34.58-16.7-5.6-3.11-10.81-4.43-16.61 1.82-4.66 5-6.46 11.43-5.16 16.53M103 746.39a3.42 3.42 0 0 0 2.18 2.32.82.82 0 0 1 .25.16.69.69 0 0 1 .18.24 3.41 3.41 0 0 0 2.48 2c5.18.92 11.44-1.35 16.1-6.37 5.8-6.25 4.1-11.34.58-16.7-5.61-3.12-10.82-4.43-16.61 1.82-4.66 5-6.46 11.43-5.16 16.53m288.13 69.39a3.42 3.42 0 0 0 2.18 2.32.87.87 0 0 1 .26.16 1.08 1.08 0 0 1 .18.24 3.43 3.43 0 0 0 2.47 2c5.19.91 11.45-1.36 16.1-6.38 5.8-6.25 4.11-11.34.58-16.7-5.6-3.11-10.81-4.43-16.61 1.82-4.66 5-6.46 11.43-5.16 16.53M848 173.87a3.44 3.44 0 0 0 2.19 2.32 1 1 0 0 1 .25.16.84.84 0 0 1 .18.24 3.43 3.43 0 0 0 2.47 2c5.19.91 11.45-1.36 16.1-6.38 5.8-6.25 4.11-11.34.58-16.7-5.6-3.11-10.81-4.43-16.61 1.82-4.66 5-6.45 11.43-5.16 16.53m-719.24-.09a3.43 3.43 0 0 0-2.78 1.55.84.84 0 0 1-.21.21 1 1 0 0 1-.28.12 3.41 3.41 0 0 0-2.54 1.91c-2.15 4.81-1.45 11.43 2.29 17.17 4.66 7.13 10 6.72 16.06 4.6 4.38-4.69 6.91-9.42 2.25-16.56-3.74-5.73-9.52-9-14.79-9m837.87 530.52a5.77 5.77 0 0 0-5.14-1.56 1.41 1.41 0 0 1-.5 0 1.52 1.52 0 0 1-.47-.2 5.75 5.75 0 0 0-5.3-.85c-8.36 3-15.6 11.6-18.2 22.86-3.23 14 3.54 20 13.2 24.92 10.81-.16 19.54-2.62 22.77-16.63 2.59-11.26-.16-22.15-6.36-28.52m-217.54-576a4.74 4.74 0 0 0 4.32-.86 1 1 0 0 1 .37-.18 1.2 1.2 0 0 1 .42 0 4.72 4.72 0 0 0 4.16-1.43c4.88-5.42 6.8-14.44 4.32-23.59-3.08-11.46-10.31-13.25-19.19-13-7.76 4.3-13.12 9.45-10 20.84 2.48 9.15 8.69 16 15.64 18.18m289.22 110a4.72 4.72 0 0 0 1.74 4 1.31 1.31 0 0 1 .25.33 1.42 1.42 0 0 1 .12.4 4.73 4.73 0 0 0 2.26 3.78c6.31 3.66 15.53 3.68 24-.63 10.51-5.37 10.72-12.8 8.69-21.45-5.81-6.71-12-10.89-22.46-5.52-8.45 4.31-13.83 11.79-14.57 19m205.32 166.74a4.74 4.74 0 0 0-1.7 4.08 1.14 1.14 0 0 1-.07.41.91.91 0 0 1-.2.36 4.74 4.74 0 0 0-1.18 4.25c1.7 7.09 8 13.78 17 16.92 11.13 3.91 16.66-1.06 21.52-8.49.85-8.84-.36-16.17-11.49-20.08-8.94-3.14-18.07-1.89-23.84 2.58m37.35-128.77a4.78 4.78 0 0 0-1.73 4.05 1.14 1.14 0 0 1-.07.41.91.91 0 0 1-.2.36 4.77 4.77 0 0 0-1.18 4.25c1.7 7.09 8.05 13.78 17 16.92 11.13 3.91 16.66-1.06 21.52-8.49.85-8.84-.36-16.17-11.49-20.08-8.94-3.14-18.07-1.89-23.84 2.58M115 563.29a6.57 6.57 0 0 0-1-6 1.64 1.64 0 0 1-.24-.52 1.42 1.42 0 0 1 0-.58 6.55 6.55 0 0 0-1.85-5.79c-7.31-6.92-19.67-9.88-32.36-6.78C63.67 547.5 61 557.41 61 569.66c5.68 10.86 12.61 18.43 28.4 14.57 12.69-3.11 22.28-11.43 25.56-20.94m1214.81 115.33a6.56 6.56 0 0 0-3.26 5.13 1.78 1.78 0 0 1-.18.55 1.58 1.58 0 0 1-.37.44 6.59 6.59 0 0 0-2.55 5.52c.72 10 7.84 20.57 19.3 26.85 14.26 7.81 22.89 2.29 31.17-6.75 3.14-11.85 3.14-22.11-11.12-29.92-11.45-6.28-24.15-6.61-33-1.82M1157 788.8a4.74 4.74 0 0 0-4 1.8 1 1 0 0 1-.33.25 1.12 1.12 0 0 1-.39.13 4.74 4.74 0 0 0-3.75 2.32c-3.56 6.36-3.45 15.57 1 24 5.52 10.43 13 10.54 21.56 8.38 6.63-5.9 10.72-12.11 5.21-22.54-4.44-8.38-12-13.66-19.26-14.29M316.07 677.39a5.87 5.87 0 0 0-4.69-2.78 1.44 1.44 0 0 1-.49-.14 1.58 1.58 0 0 1-.41-.31 5.84 5.84 0 0 0-5-2.12c-9 1-18.15 7.65-23.4 18.11-6.55 13-1.33 20.6 7 27.74 10.69 2.46 19.86 2.14 26.4-10.88 5.26-10.45 5.16-21.85.59-29.62m-137-327a3.46 3.46 0 0 0-1.93 2.53 1 1 0 0 1-.11.28.88.88 0 0 1-.21.22 3.42 3.42 0 0 0-1.57 2.76c-.06 5.27 3.21 11.07 8.92 14.85 7.11 4.69 11.86 2.18 16.57-2.17 2.16-6 2.6-11.39-4.51-16.09-5.72-3.77-12.33-4.5-17.16-2.38M348.92 119a11.33 11.33 0 0 0-6.11 1.56 2.2 2.2 0 0 1-.54.23 3 3 0 0 1-.58.11 11.39 11.39 0 0 0-6 2c-7.48 5.61-11.34 13.77-9.11 21.22 2.76 9.26 12.54 9.39 24.87 7.53 11.33-5.19 19.44-10.67 16.68-19.93-2.22-7.44-9.92-12.16-19.25-12.75m787.78-46.6a11.3 11.3 0 0 0-6.1 1.56 3 3 0 0 1-.55.23 2.87 2.87 0 0 1-.57.11 11.39 11.39 0 0 0-6 2c-7.48 5.61-11.33 13.77-9.11 21.21 2.76 9.27 12.55 9.4 24.87 7.54 11.33-5.2 19.44-10.67 16.68-19.93-2.22-7.44-9.92-12.16-19.25-12.75" fill="#de7c00" fill-rule="evenodd"/></svg>