<svg data-name="Layer 1" xmlns="http://www.w3.org/2000/svg" viewBox="0 0 1440 900"><defs><mask id="a" x="1323.01" y="563" width="37.78" height="67.42" maskUnits="userSpaceOnUse"><path fill="#fff" fill-rule="evenodd" d="M1323.01 563h37.78v67.42h-37.78V563z"/></mask><mask id="b" x="288.79" y="783.39" width="43.61" height="60.38" maskUnits="userSpaceOnUse"><path fill="#fff" fill-rule="evenodd" d="M288.8 783.39h43.61v60.38H288.8v-60.38z"/></mask><mask id="c" x="7.2" y="622.29" width="67.39" height="37.41" maskUnits="userSpaceOnUse"><path fill="#fff" fill-rule="evenodd" d="M7.2 622.29h67.39v37.41H7.2v-37.41z"/></mask></defs><path d="M76.59 186.41A32.69 32.69 0 0 1 33 169.77l-2.56-5.94a2.32 2.32 0 0 1 1.2-3 32.69 32.69 0 0 1 43.57 16.64l2.56 5.94a2.31 2.31 0 0 1-1.2 3M555.07 101a32.68 32.68 0 0 1-43.57-16.66l-2.56-5.94a2.32 2.32 0 0 1 1.2-3A32.69 32.69 0 0 1 553.71 92l2.56 6a2.3 2.3 0 0 1-1.2 3m762.38 108.89a32.69 32.69 0 0 1-43.57-16.64l-2.56-5.94a2.3 2.3 0 0 1 1.2-3 32.68 32.68 0 0 1 43.57 16.63l2.56 5.94a2.32 2.32 0 0 1-1.2 3m-84.69-85.18a32.69 32.69 0 0 1-14.09-44.46l3.06-5.7a2.3 2.3 0 0 1 3.09-.94 32.68 32.68 0 0 1 14.1 44.46l-3.06 5.7a2.32 2.32 0 0 1-3.1.94M868 797.44a32.69 32.69 0 0 1-31.59 34.32l-6.47.17a2.3 2.3 0 0 1-2.34-2.22 32.67 32.67 0 0 1 31.58-34.31l6.47-.18a2.3 2.3 0 0 1 2.35 2.22M247.06 679.61a32.68 32.68 0 0 1 7.21 46.08l-3.89 5.17a2.31 2.31 0 0 1-3.2.46 32.69 32.69 0 0 1-7.2-46.08l3.88-5.18a2.32 2.32 0 0 1 3.2-.45m-71.22-224a32.69 32.69 0 0 1-37.14 28.21l-6.4-1a2.31 2.31 0 0 1-1.92-2.6 32.68 32.68 0 0 1 37.14-28.21l6.4 1a2.32 2.32 0 0 1 1.92 2.61M967.35 104a32.67 32.67 0 0 1 13.82-44.54l5.77-2.94a2.31 2.31 0 0 1 3.07 1A32.67 32.67 0 0 1 976.19 102l-5.77 3a2.29 2.29 0 0 1-3.07-1M709.52 225a32.67 32.67 0 0 1 13.82-44.54l5.77-2.93a2.3 2.3 0 0 1 3.07 1A32.67 32.67 0 0 1 718.36 223l-5.77 3a2.31 2.31 0 0 1-3.07-1m-334-4.65a32.68 32.68 0 0 1 13.83-44.54l5.76-2.93a2.31 2.31 0 0 1 3.08 1 32.68 32.68 0 0 1-13.83 44.54l-5.76 2.94a2.32 2.32 0 0 1-3.08-1m822.27 80.35c-10-22.23-.23-48 21.8-57.56l7.83-3.4a3.05 3.05 0 0 1 4 1.57c10 22.23.23 48-21.8 57.56l-7.83 3.4a3 3 0 0 1-4-1.57m-1070.23 54c-23 8-47.83-4-55.4-26.83l-2.68-8.11a3 3 0 0 1 1.91-3.81c23-8 47.83 4 55.39 26.83l2.69 8.11a3 3 0 0 1-1.91 3.81m56.6-98.31c-5.28-23.8 9.51-47 33-51.95l8.36-1.73a3 3 0 0 1 3.56 2.34c5.28 23.79-9.51 47-33 51.94l-8.36 1.74a3 3 0 0 1-3.56-2.34" fill="#e4e2db" fill-rule="evenodd"/><g mask="url(#a)"><path d="M1352.52 564.28c14.17 19.83 9.69 47-10 60.73l-7 4.88a3 3 0 0 1-4.19-.76c-14.18-19.82-9.69-47 10-60.73l7-4.87a3 3 0 0 1 4.2.75" fill="#e4e2db" fill-rule="evenodd"/></g><path d="M614.51 759.53c3.51-24.12 25.58-40.62 49.3-36.85l8.43 1.34a3 3 0 0 1 2.51 3.45c-3.52 24.12-25.59 40.62-49.31 36.85L617 763a3 3 0 0 1-2.5-3.45m637.88-273.4c23-8 47.83 4.05 55.39 26.84l2.69 8.1a3.05 3.05 0 0 1-1.92 3.82c-23 8-47.83-4-55.39-26.84l-2.69-8.1a3.05 3.05 0 0 1 1.92-3.82m21.17 266.93c24.09 3.69 40.42 25.89 36.47 49.58l-1.4 8.42a3.06 3.06 0 0 1-3.48 2.48c-24.09-3.7-40.41-25.9-36.46-49.58l1.4-8.43a3 3 0 0 1 3.47-2.47m-226.77-112.89c23.75-5.46 47.12 9.14 52.2 32.61l1.81 8.35a3.05 3.05 0 0 1-2.32 3.59c-23.75 5.46-47.12-9.15-52.2-32.62l-1.8-8.34a3.05 3.05 0 0 1 2.31-3.59M354.18 649c23.75-5.46 47.12 9.14 52.2 32.61l1.8 8.35a3 3 0 0 1-2.31 3.58c-23.75 5.47-47.12-9.14-52.2-32.61l-1.81-8.34a3.05 3.05 0 0 1 2.32-3.59" fill="#e4e2db" fill-rule="evenodd"/><g mask="url(#b)"><path d="M329.91 785.45c8 23-3.93 47.84-26.7 55.45l-8.1 2.71a3 3 0 0 1-3.82-1.9c-8-23 3.93-47.84 26.7-55.46l8.1-2.71a3 3 0 0 1 3.82 1.91" fill="#e4e2db" fill-rule="evenodd"/></g><g mask="url(#c)"><path d="M74.31 634.1c-10.16 22.15-36 31.76-57.68 21.47l-7.72-3.67a3 3 0 0 1-1.43-4c10.16-22.15 36-31.76 57.69-21.46l7.71 3.66a3 3 0 0 1 1.43 4" fill="#e4e2db" fill-rule="evenodd"/></g></svg>