<svg data-name="Layer 1" xmlns="http://www.w3.org/2000/svg" viewBox="0 0 190.62 79.82"><path d="M35.11 35.43a.91.91 0 0 1-.61 1c-.26.1-.6.19-1 .35s-.62.27-1 .43-.57.41-.91.56-.72.11-1.05.28-.63.29-1 .46-.54.47-.85.64-.57.43-.88.61-.62.32-.93.52-.53.46-.83.66-.67.27-1 .48-.65.31-.93.53-.52.48-.79.71-.58.41-.85.65-.47.5-.72.73-.56.41-.81.65-.32.64-.55.89-.45.51-.68.77l-.64.78c-.22.27-.61.4-.81.67s-.47.51-.66.79-.22.69-.4 1-.34.59-.51.89-.36.58-.52.88-.42.55-.57.86-.05.72-.19 1-.39.57-.51.89-.39.59-.5.91 0 .7-.14 1-.17.66-.25 1-.23.65-.3 1-.12.68-.17 1 .05.69 0 1-.17.67-.19 1-.1.68-.12 1 .14.68.14 1-.11.68-.1 1 0 .68 0 1 .2.66.24 1-.13.7-.08 1 .2.67.25 1a.72.72 0 0 1-.66.81c-.48.09-.43.32-.91.41s-.49 0-1 .12a.81.81 0 0 1-.86-.74c-.06-.34-.07-.69-.11-1s-.22-.67-.25-1 0-.7 0-1v-1c0-.31-.29-.68-.3-1s.09-.69.1-1 .18-.68.2-1-.25-.71-.22-1.05.35-.66.39-1 0-.68.09-1-.11-.72-.05-1.06.4-.62.47-.95.22-.66.31-1 0-.72.12-1 .18-.67.3-1 .4-.59.52-.9.17-.68.31-1 .2-.67.35-1 .44-.55.6-.85.21-.67.38-1 .28-.63.46-.92.6-.44.79-.72.29-.64.49-.91.27-.67.48-.94.58-.42.8-.68.37-.59.6-.84.62-.36.86-.61l.71-.73c.25-.25.36-.62.61-.85s.64-.32.89-.55.41-.58.67-.8.52-.46.78-.67.48-.52.75-.73.69-.23 1-.42.47-.54.75-.73.71-.17 1-.35.52-.46.81-.63.64-.28.94-.44.54-.45.83-.61.58-.39.88-.54.7-.16 1-.3.52-.54.81-.68.75-.05 1-.17.52-.61.81-.72.81 0 1.07-.09a.55.55 0 0 1 .81.43c.14.46.29.42.44.88s.49.48.6.94zM22.19 68.59a.78.78 0 0 1 .15 1.14c-.33.39-.36.36-.7.75l-.66.77c-.34.38-.41.32-.75.7s-.28.43-.62.81-.38.33-.71.71-.27.44-.61.82-.35.36-.68.75l-.68.75c-.33.38-.36.35-.69.74s-.22.48-.55.86-.43.3-.76.68-.35.37-.68.75-.24.46-.57.84a.77.77 0 0 1-1.06 0c-.42-.32-.46-.27-.88-.59s-.44-.29-.86-.61-.43-.31-.84-.63-.37-.38-.78-.7-.46-.26-.88-.58-.4-.33-.82-.65-.43-.29-.84-.61-.39-.36-.81-.68-.46-.24-.88-.56-.31-.45-.73-.77-.47-.24-.89-.56-.35-.39-.77-.71a.7.7 0 0 1-.18-1l.6-.77c.29-.39.34-.35.64-.73a.64.64 0 0 1 1-.13c.41.32.44.27.85.59s.43.29.84.61l.83.61c.41.32.38.35.79.67s.46.24.87.56.36.37.77.68l.81.63c.41.32.47.25.87.56s.38.36.79.67a.75.75 0 0 0 1-.11c.33-.38.37-.34.7-.71s.3-.4.63-.78.29-.4.62-.77.42-.29.74-.67l.65-.74c.32-.37.2-.47.53-.84s.43-.28.76-.65.32-.37.65-.75.3-.39.63-.76l.64-.74a.8.8 0 0 1 1.11-.15c.37.32.27.43.64.75s.4.23.77.55zM11.28 1.51l-1 2.41c-.15.37-.36.4-.73.28a6.2 6.2 0 0 0-2.14-.41c-.48 0-1.1.14-1.06.74 0 .38.22.54.6.52l3.48-.2c.38 0 .56.11.58.49l.16 2.9c0 .39-.13.54-.52.56L7.13 9c-.38 0-.52.2-.49.58l.39 6.93c0 .38-.11.56-.5.58l-2.94.16c-.39 0-.54-.13-.56-.51l-.4-6.93c0-.38-.17-.54-.56-.52l-1.32.08c-.38 0-.56-.11-.58-.5L0 5.97c0-.38.14-.53.52-.56l1.37-.07c.38 0 .52-.2.49-.58C2.2 1.47 3.81.18 6.78.01a8.76 8.76 0 0 1 4.18.8c.37.17.47.33.32.7zm9.65 9a2.11 2.11 0 1 0-4.22.1 2.11 2.11 0 1 0 4.22-.1zm4.2-.11A6 6 0 0 1 19 16.83a6 6 0 0 1-6.49-6.1 6 6 0 0 1 6.16-6.39 6 6 0 0 1 6.46 6.1zm9.88.08a2.11 2.11 0 1 0-4.22 0 2.11 2.11 0 1 0 4.22 0zm4.2 0a6.05 6.05 0 0 1-6.38 6.25 6 6 0 0 1-6.25-6.31A6.05 6.05 0 0 1 33 4.25a6 6 0 0 1 6.21 6.31zm9.87.42a2.11 2.11 0 1 0-4.21-.19 2.11 2.11 0 1 0 4.21.19zm-.48-5.71a1.17 1.17 0 0 0 .4.14c.22 0 .32-.16.33-.42l.19-4.18c0-.39.17-.55.55-.53l3 .13c.38 0 .52.19.5.58l-.7 15.67c0 .39-.17.55-.55.53L50 17.02c-.41 0-.65-.05-.8-.35s-.21-.27-.35-.28a1.2 1.2 0 0 0-.44.13 5.15 5.15 0 0 1-2.47.56c-3.14-.14-5.48-2.7-5.31-6.48s2.72-6.12 5.86-6a4.76 4.76 0 0 1 2.11.59zm23.68-1.8L71 5.63c-.2.35-.42.35-.76.18a6.18 6.18 0 0 0-2.06-.72c-.48 0-1.11 0-1.16.57 0 .39.14.57.52.6l3.46.31c.38 0 .54.2.5.58l-.25 2.89c0 .38-.22.51-.6.48l-3.51-.31c-.39 0-.55.12-.58.5l-.61 6.91c0 .38-.2.53-.58.5l-2.94-.26c-.38 0-.51-.22-.48-.6l.62-6.91c0-.38-.1-.56-.48-.59l-1.36-.12c-.38 0-.54-.2-.5-.58l.25-2.89c0-.38.22-.51.6-.48l1.36.12c.39 0 .54-.12.58-.5.29-3.28 2.07-4.32 5-4.06a8.92 8.92 0 0 1 4 1.39c.37.23.46.4.26.75zm8.2 10.34a2.111 2.111 0 1 0-4.19-.52 2.111 2.111 0 1 0 4.19.52zm4.17.51a6.31 6.31 0 0 1-12.53-1.51 6.312 6.312 0 0 1 12.53 1.53zm8.22.58a.43.43 0 0 1-.4-.54c.09-.57-.13-.9-.58-1s-.91.25-1 1.15l-1 6.09c-.06.38-.23.53-.6.47l-2.92-.46c-.38 0-.5-.24-.44-.62L87.6 9.17c.06-.37.23-.52.61-.46l2.28.35c.4.07.56.14.7.45.06.13.13.27.3.29a1.12 1.12 0 0 0 .51-.07 4.94 4.94 0 0 1 2.09-.33c1.94.3 2.93 1.79 2.5 4.52l-.14.92c-.06.38-.23.52-.61.47zm10.27.37c-.38-.08-.52-.25-.44-.63l.57-2.85c.07-.37.24-.49.64-.41l1.34.27c.38.08.56-.06.63-.44l.72-3.62c.08-.38.25-.51.63-.44l2.89.58c.38.07.49.27.41.64l-.72 3.63c-.07.37 0 .57.41.64l2.68.54c.38.07.52.25.44.62l-.57 2.85c-.07.38-.26.49-.64.41l-2.68-.53c-.38-.08-.55.06-.63.43l-1.36 6.85c-.07.37-.25.51-.62.44l-2.9-.58c-.37-.08-.48-.27-.41-.65l1.36-6.8c.07-.38 0-.57-.41-.64zm13.44 10.47c-.09.38-.27.51-.65.42l-2.87-.67c-.37-.09-.47-.29-.39-.66l3.58-15.28c.09-.37.27-.5.64-.42l2.88.68c.37.08.48.26.39.66l-1 4.08c-.06.24 0 .42.21.47a1.64 1.64 0 0 0 .55 0 4.86 4.86 0 0 1 2 0c2.45.58 3.63 2.4 2.89 5.54l-1.59 6.77c-.08.37-.26.5-.64.42l-2.87-.68c-.37-.08-.48-.28-.39-.65l1.25-5.33c.24-1 .17-2.08-.91-2.33s-1.65.55-1.92 1.67zm18-1A2.11 2.11 0 1 0 132 26.2a2.08 2.08 0 0 0 2.57-1.55zm4.04 1.07a6.313 6.313 0 0 1-12.17-3.36 6.313 6.313 0 0 1 12.17 3.36zm1.38 2l2.12-6.63c.12-.37.31-.48.68-.37l2.81.9c.36.12.45.32.33.69l-1.66 5.21c-.33 1-.45 2 .6 2.36s1.58-.45 1.93-1.55l1.67-5.21c.12-.36.31-.48.67-.36l2.85.96c.37.12.46.33.34.69L149 34.73c-.12.37-.3.48-.67.37l-2.13-.68c-.39-.13-.59-.19-.67-.5s-.11-.36-.27-.41a2.31 2.31 0 0 0-.75.06 4.2 4.2 0 0 1-2-.08c-2.51-.76-3.51-2.5-2.51-5.76zm21 3.81c.26-.69-.17-1.34-1.34-1.77s-1.91-.21-2.17.48.17 1.35 1.34 1.77 1.88.26 2.17-.44zm-6.83 7c-.31-.12-.51 0-.59.22-.21.58.44 1.23 2.49 2 1.8.66 2.4.62 2.58.15s-.11-.68-2.39-1.52c-.85-.28-1.5-.6-2.13-.83zm-.4-9.63c1-2.59 3.38-3.7 7-2.37 1.48.55 2 1 2.66 1.24l3.57 1.36c.36.13.47.32.33.68l-1 2.64c-.14.38-.32.44-.7.3l-.59-.21c-.38-.15-.57-.06-.68.26-1 2.59-3.42 3.52-6.55 2.37a12.31 12.31 0 0 1-1.48-.7.36.36 0 0 0-.49.21.54.54 0 0 0 .23.7 12.82 12.82 0 0 0 2.7 1.22c3.58 1.31 4.49 3.08 3.67 5.31-1.13 3.09-4.19 3.19-8.11 1.75-3.69-1.36-5.68-3.19-4.89-5.33a2.83 2.83 0 0 1 1.94-1.81c.26-.09.34-.23.25-.53a2.74 2.74 0 0 1 0-1.92 2.65 2.65 0 0 1 1.95-1.71c.29-.07.36-.28.26-.54a3.58 3.58 0 0 1-.11-2.9zm15.21 13.38a.46.46 0 0 1-.7.3l-2.72-1.14c-.35-.15-.42-.36-.27-.71l6.07-14.47c.15-.36.35-.46.7-.31l2.73 1.14c.35.15.43.34.27.72l-1.67 3.91c-.09.22-.07.41.13.5a2.2 2.2 0 0 0 .55.05 4.76 4.76 0 0 1 2 .37c2.32 1 3.17 3 1.93 5.94L175.31 45c-.15.36-.35.46-.7.31l-2.73-1.15c-.35-.14-.42-.35-.27-.71l2.12-5c.41-1 .51-2-.51-2.45s-1.72.26-2.17 1.32zM180.32 39c-.35-.17-.44-.37-.27-.72l1.23-2.63c.16-.34.35-.41.72-.24l1.24.58c.35.16.55.07.71-.28l1.57-3.35c.16-.34.36-.43.71-.27l2.67 1.25c.35.16.41.37.25.72l-1.57 3.35c-.16.35-.1.56.25.72l2.47 1.16c.35.17.44.37.28.71l-1.23 2.63c-.16.35-.38.41-.72.25l-2.52-1.15c-.35-.16-.55-.07-.71.28l-2.94 6.28c-.16.34-.36.44-.71.27l-2.68-1.25c-.34-.16-.4-.37-.24-.72l2.94-6.28c.16-.35.1-.56-.25-.72z" fill="#de7c00" fill-rule="evenodd"/></svg>