<svg data-name="Layer 1" xmlns="http://www.w3.org/2000/svg" viewBox="0 0 440 440"><path d="M93.84 113.13c15.1-9.24 29.93-2.06 38.86 12.54s8.59 31.07-6.51 40.31c-20.6 12.61-45.19 15.16-66 8.15a5.38 5.38 0 0 1-3.61-5.9c3.2-21.75 16.66-42.49 37.26-55.1zm19 167.9c9.08 19-1.22 35.61-19.55 44.39s-37.75 6.36-46.83-12.61c-12.38-25.87-12.4-55.23-1.58-79a6.41 6.41 0 0 1 7.41-3.54c25.35 6.47 48.21 24.89 60.59 50.73zm94.91-36.29c-12.06 6.65-23.33.53-29.76-11.12s-5.57-24.45 6.49-31.1c16.46-9.07 35.66-10.18 51.62-4a4.2 4.2 0 0 1 2.59 4.71c-3.25 16.77-14.44 32.44-30.9 41.51z" fill="#e4e2db" fill-opacity=".3" fill-rule="evenodd"/></svg>