<svg data-name="Layer 1" xmlns="http://www.w3.org/2000/svg" viewBox="0 0 1800 1000"><path d="M1800 0v1000H595.43c187-207.28 184.37-369.38 116.5-543.26-19.13-49-48-67.67-8.45-102.33l160.9-140.08a70.44 70.44 0 0 0 5.37-102.6l-25.28-26.35a70.28 70.28 0 0 0-102.63 1.26l-147.17 154.1c-36.55 38.58-51.41 11.74-99.67-10.49-153.76-70.82-304.65-81.59-495 56.59V0z" fill="#f1f0ec" fill-rule="evenodd"/><path d="M825.76 128.51a44.17 44.17 0 0 1-1.25 62.42c-17.58 16.89-48.93 19.61-65.82 2s-12.91-48.82 4.67-65.71a44.12 44.12 0 0 1 62.4 1.29z" fill="#f1f0ec"/><path d="M1665.81 204.54a3.5 3.5 0 0 1-4.36 2.87c-17.86-4-36-17-48.35-35.78-9.06-13.79-4.87-26.46 5.92-33.55s24.09-5.91 33.15 7.88c12.35 18.81 17 40.6 13.64 58.58" fill="#f6be00" fill-rule="evenodd"/><path d="M1664.26 905.44a3.5 3.5 0 0 1-3.35-4c2-18.2 12.76-37.7 30-52.11 12.67-10.58 25.74-7.85 34 2.06s8.62 23.25-4 33.83c-17.27 14.41-38.39 21.56-56.64 20.23" fill="#de7c00" fill-rule="evenodd"/><path d="M1717 694.74a2.43 2.43 0 0 1-3.07 1.93c-12.34-3-24.74-12.3-33-25.54-6.08-9.7-3-18.44 4.6-23.2s16.81-3.75 22.9 6c8.3 13.23 11.24 28.42 8.62 40.86m-25.49-592.12a2.43 2.43 0 0 1-3.56-.67c-7.12-10.53-10.14-25.71-7.45-41.1 2-11.28 10.13-15.7 19-14.15s15 8.46 13 19.74c-2.69 15.39-10.68 28.65-21 36.13" fill="#f6be00" fill-rule="evenodd"/><path d="M1514.71 23.8a2.42 2.42 0 0 1-2.18-2.89c2-12.55 10.12-25.71 22.59-35.12 9.14-6.91 18.11-4.58 23.51 2.58s5.19 16.42-4 23.32c-12.47 9.41-27.35 13.65-40 12.11M1766 181.09c10.68-16.43 4.65-31.36-8-39.55s-29.17-10.6-39.85 5.83-9.12 36.38 3.48 44.57 33.63 5.57 44.32-10.85" fill="#de7c00" fill-rule="evenodd"/><path d="M1763 485.48c16 11.3 31.15 5.85 39.82-6.42s11.71-28.74-4.3-40.05-36-10.51-44.67 1.76-6.86 33.4 9.15 44.71" fill="#f6be00" fill-rule="evenodd"/><path d="M1406.16 1011.22c15.11 6.73 26.76-.27 31.93-11.85s5-25.72-10.13-32.45-31.53-2.81-36.7 8.78-.2 28.78 14.9 35.52" fill="#de7c00" fill-rule="evenodd"/><path d="M1528.13 885.7c7.94-3.55 18.45-2.24 28.22 1.6s19 10 27.92 16.42c4.38 3.14 8.82 6.42 12.26 10.6a33.35 33.35 0 0 1 7.47 22.5c-.37 7.36-3.21 13.78-6.84 19.43-2.61 4.08-5.69 7.89-9.88 10.37-13 7.73-34.17.46-48.43-12.91-11.31-10.61-20.9-25.9-25.29-39.68-4-12.72 4.16-23.69 14.57-28.33m229.39 87.89c-5.38-.27-10.82-3.94-15.14-8.81s-7.67-10.87-10.81-16.9a38.89 38.89 0 0 1-3.8-9.29 20.66 20.66 0 0 1 2.18-14.53 24.57 24.57 0 0 1 9.23-8.82 19.22 19.22 0 0 1 8.37-3c9.35-.62 19 9.33 23.13 20.72a61.52 61.52 0 0 1 2.84 29c-1.33 8.16-8.94 11.92-16 11.57m93.57-140.28c-32.79 15.62-71.5 1.92-86.46-30.58l-5.33-11.56a4.54 4.54 0 0 1 2.21-6c32.79-15.61 71.5-1.92 86.47 30.58l5.32 11.56a4.54 4.54 0 0 1-2.21 6m-348.22-777.4c-2 24.24-23 42-46.92 39.68l-8.48-.82a3 3 0 0 1-2.7-3.3c2-24.24 23-42 46.91-39.68l8.49.83a3 3 0 0 1 2.7 3.29" fill="#f6be00" fill-rule="evenodd"/><path d="M1813.53 575.23c-2 24.24-23.06 42-46.92 39.68l-8.49-.83a3 3 0 0 1-2.7-3.29c2-24.24 23.06-42 46.92-39.68l8.49.83a3 3 0 0 1 2.7 3.29m-97.3 188.54c-12.88 31.45-48.31 46.34-79.14 33.25l-11-4.66a4.25 4.25 0 0 1-2.22-5.52c12.88-31.45 48.31-46.34 79.13-33.24l11 4.65a4.25 4.25 0 0 1 2.23 5.52M1570.7 96.8c-18.52-28.5-10.58-66.09 17.73-84l10.07-6.36a4.26 4.26 0 0 1 5.81 1.32c18.51 28.5 10.57 66.1-17.74 84l-10.07 6.36a4.25 4.25 0 0 1-5.8-1.32" fill="#de7c00" fill-rule="evenodd"/><path d="M1788.64 341.38c-38.81 18.48-84.62 2.28-102.34-36.19l-6.3-13.68a5.37 5.37 0 0 1 2.62-7.06c38.8-18.48 84.62-2.27 102.33 36.2l6.3 13.68a5.37 5.37 0 0 1-2.61 7.05" fill="#f6be00" fill-rule="evenodd"/></svg>