<svg data-name="Layer 1" xmlns="http://www.w3.org/2000/svg" width="1800" height="1600" viewBox="0 0 1800 1600"><path d="M1066.4 1151.4a2.62 2.62 0 0 1-.6-.5 1.64 1.64 0 0 1-.4-.7 9.17 9.17 0 0 0-5.7-6.1c-13.1-4.2-30.2-.6-44.1 10.8-17.3 14.1-14.7 28-7.5 43.2 13.5 10.1 26.5 15.4 43.8 1.2 13.9-11.4 20.9-27.4 19.3-41.1a9 9 0 0 0-4.8-6.8zm399.2-753l-1.1-10.5c-3-29.4-29.7-50.5-59.5-47.1a3.72 3.72 0 0 0-3.3 4.1l1 10.5c3 29.4 29.7 50.5 59.5 47.1a3.73 3.73 0 0 0 3.41-4zm-303.3 59.5c-9.2 13.7-12.3 32.1-7.3 49.5 3.7 12.8 15.6 16.3 27.9 12.8s20.5-12.9 16.8-25.7c-5-17.4-17.4-31.3-32.6-38a3.86 3.86 0 0 0-4.8 1.4zm84.6-67.5l11.8 1.6c33.1 4.4 63.1-19.3 67.1-53a4.18 4.18 0 0 0-3.59-4.7l-11.8-1.6c-33.1-4.4-63.1 19.3-67.1 53a4.28 4.28 0 0 0 3.59 4.7zM1126 339.7c6.1 1.1 13.1-1.6 19.2-5.9s11.4-10.1 16.4-16.1a44 44 0 0 0 6.6-9.4 23.78 23.78 0 0 0 1.3-16.8 27.7 27.7 0 0 0-8-12.2 20.93 20.93 0 0 0-8.6-5.4c-10.3-3.1-23.6 5.5-31.2 17.2a69.85 69.85 0 0 0-10.6 31.6c-.5 9.4 7 15.5 14.9 17zm-166.6 942.5c-3.2-17-14.8-34.5-32.1-46.8-12.7-9-24.8-5.5-31.8 4.5s-6.4 22.5 6.3 31.5c17.3 12.3 37.7 17.5 54.8 14.9v-.1a3.26 3.26 0 0 0 2.9-3.58c-.1-.12-.1-.22-.1-.42zm558.5-695.4a3.31 3.31 0 0 0 4.62-.78l.08-.12v-.1l5.4-8c15.1-22.6 8.6-53-14.5-68a3.46 3.46 0 0 0-4.7.9l-5.4 8c-15.1 22.6-8.6 53.1 14.5 68.1zm121.8 246.1a3.26 3.26 0 0 0 3.94 2.41h.06c.1 0 .2-.1.4-.1 16.4-5.4 32.3-19.2 42.2-38 7.3-13.8 2.2-25.3-8.6-31s-23.2-3.4-30.4 10.4c-10 18.79-12.4 39.69-7.6 56.29zm-394 709.2a3.26 3.26 0 0 0 3.94 2.41h.06c.1 0 .2-.1.4-.1 16.4-5.4 32.3-19.2 42.2-38 7.3-13.8 2.2-25.3-8.6-31s-23.2-3.4-30.4 10.4c-10 18.79-12.5 39.69-7.6 56.29zm542.2-738.7l2 9.4c5.6 26.6 32 43.1 58.9 37a3.4 3.4 0 0 0 2.6-4l-2-9.4c-5.6-26.6-32-43.1-58.9-37a3.4 3.4 0 0 0-2.6 4zm-54.2-152.1c12.4 9.3 24.5 14.2 40.5 1.1 12.9-10.5 19.3-25.4 18-38.1a8.23 8.23 0 0 0-4.5-6.3 2.62 2.62 0 0 1-.6-.5 2.17 2.17 0 0 1-.4-.6 8.26 8.26 0 0 0-5.3-5.6c-12.2-3.9-28-.5-40.9 10-15.9 13.1-13.5 25.9-6.8 40zM794.6 151.6c12.4 9.3 24.5 14.2 40.5 1.1 12.9-10.5 19.3-25.4 18-38.1a8.23 8.23 0 0 0-4.5-6.3 2.62 2.62 0 0 1-.6-.5 2.17 2.17 0 0 1-.4-.6 8.26 8.26 0 0 0-5.3-5.6c-12.2-3.9-28-.5-40.9 10-15.9 13.1-13.5 25.9-6.8 40zm495.3 92.9c6.7-14 9.1-26.8-6.9-40-12.9-10.6-28.7-14-40.9-10.1a8.26 8.26 0 0 0-5.3 5.6 2.17 2.17 0 0 1-.4.6c-.2.2-.3.4-.5.5a8.45 8.45 0 0 0-4.5 6.3c-1.5 12.7 5 27.5 17.8 38.1 16.1 13.2 28.2 8.3 40.7-1zm409.1 53.4c5.6 1.1 12-1.4 17.6-5.4s10.4-9.3 15.1-14.8a43.53 43.53 0 0 0 6.1-8.6 21.58 21.58 0 0 0 1.2-15.4 25.66 25.66 0 0 0-7.4-11.2 19.41 19.41 0 0 0-7.9-5c-9.4-2.9-21.7 5.1-28.6 15.7a65.41 65.41 0 0 0-9.8 29.1c-.5 8.6 6.4 14.3 13.7 15.6zm70.5 597.1c-33.1-4.4-63.1 19.3-67.1 53a4.18 4.18 0 0 0 3.59 4.7l11.8 1.6c33.1 4.4 63.1-19.3 67.1-53a4.18 4.18 0 0 0-3.59-4.7zM1701 409.7c-12.1 8.6-16.3 23.3-5.4 38.7 14.9 21 36.2 35.1 56.9 39a4 4 0 0 0 4.8-3c0-.1.1-.3.1-.4 3.2-20.7-3.1-45.5-18.1-66.5-11-15.6-26.2-16.4-38.3-7.8zM1272.9 56.1c-12.1 8.6-16.3 23.3-5.4 38.7 14.9 21 36.2 35.1 56.9 39a4 4 0 0 0 4.8-3c0-.1.1-.3.1-.4 3.2-20.7-3.1-45.5-18.1-66.5-11-15.6-26.3-16.4-38.3-7.8zM1045.7 158c-14.8-.6-27.1 8.5-27.8 27.4-1 25.8 7.3 49.9 21.3 65.5a4 4 0 0 0 5.6.5l.3-.3c15.2-14.5 25.3-38 26.2-63.7.8-18.9-10.8-28.8-25.6-29.4zM890.9 265.2c0-.3.1-.5.1-.8a2.85 2.85 0 0 0-2.4-3.2l-8-1.1a40.57 40.57 0 0 0-45.39 35.1v.1c0 .3-.1.5-.1.8a2.85 2.85 0 0 0 2.4 3.2l8 1.1a40.68 40.68 0 0 0 45.39-35.2zm792.5 780.8a2.88 2.88 0 0 0-3.5-2l-7.8 2c-21.9 5.7-34.7 28.3-28.6 50.5a2.88 2.88 0 0 0 3.5 2l7.8-2a40.68 40.68 0 0 0 28.8-49.8 5.6 5.6 0 0 1-.2-.7zm-916.5 180.4a2.88 2.88 0 0 0-3.5-2l-7.8 2c-21.9 5.7-34.7 28.3-28.6 50.5a2.88 2.88 0 0 0 3.5 2l7.8-2a40.68 40.68 0 0 0 28.8-49.8 2.44 2.44 0 0 0-.2-.7zm899-52.8c-18.4-2.4-38.3 3.7-53.2 17.4-11 10.1-8.6 23.7 1.1 34.4s23.2 14.1 34.1 4.1c15-13.8 22.7-33.1 21.9-51.6a4.58 4.58 0 0 0-3.9-4.3zm-586.6-731.9c10.3-6.5 14.5-18.4 6.2-31.5-11.3-18-28.2-30.5-44.9-34.7h-.1a3.34 3.34 0 0 0-4.09 2.36c0 .1 0 .2-.1.2-3.5 16.9.5 37.6 11.8 55.5 8.39 13.34 20.89 14.74 31.19 8.14zm717.8 661.8a3 3 0 0 0 .5-4l-5-6.3c-14-17.7-39.9-20.4-57.7-5.9a3 3 0 0 0-.5 4l5 6.3a40.66 40.66 0 0 0 57.1 6.4c.2-.2.4-.3.6-.5zM1780.8 67.4a4.23 4.23 0 0 0-5.9.3l-7.9 8.9c-22.2 24.9-19.4 63.1 6.2 85.3a4.23 4.23 0 0 0 5.9-.3l7.9-8.9c22.2-25 19.4-63.1-6.2-85.3zm-293.6-.5l2 9.4c5.6 26.6 32 43.1 58.9 37a3.4 3.4 0 0 0 2.6-4l-2-9.4c-5.6-26.6-32-43.1-58.9-37a3.36 3.36 0 0 0-2.6 4zm-18.4 91.6c-33.1-4.4-63.1 19.3-67.1 53a4.18 4.18 0 0 0 3.59 4.7l11.8 1.6c33.1 4.4 63.1-19.3 67.1-53a4.18 4.18 0 0 0-3.59-4.7zm61.2 70a4.23 4.23 0 0 0-5.9.3l-7.9 8.9c-22.2 24.9-19.4 63.1 6.2 85.3a4.23 4.23 0 0 0 5.9-.3l7.9-8.9c22.2-24.9 19.4-63.1-6.2-85.3zM761.9 1379.6a4.23 4.23 0 0 0-5.9.3l-7.9 8.9c-22.2 24.9-19.4 63.1 6.2 85.3a4.23 4.23 0 0 0 5.9-.3l7.9-8.9c22.2-24.9 19.4-63.1-6.2-85.3zm1024.5-215.5c-11.2 4.9-17.1 16-10.9 30.3 8.5 19.5 23.3 34.4 39.3 41v-.1a3.33 3.33 0 0 0 4.4-1.6.37.37 0 0 0 .1-.3c6.1-16.2 5.2-37.2-3.4-56.7-6.1-14.3-18.3-17.5-29.5-12.6zm-437.7 173.4c-11.2 4.9-17.1 16-10.9 30.3 8.5 19.5 23.3 34.4 39.3 41v-.1a3.33 3.33 0 0 0 4.4-1.6.37.37 0 0 0 .1-.3c6.1-16.2 5.2-37.2-3.4-56.7-6.1-14.2-18.3-17.5-29.5-12.6zm290.1-684.9c15.5-8.4 14.4-23.4 8-35.3s-19.4-18.3-34.8-9.9h-.1c-15.5 8.4-19.3 27.1-12.8 38.9s24.3 14.7 39.7 6.3zm96.9 605.2a22.3 22.3 0 0 0-8.6-5.5c-10.3-3.1-23.6 5.5-31.2 17.2a69.85 69.85 0 0 0-10.6 31.6c-.6 9.5 6.9 15.6 14.9 17 6.1 1.1 13.1-1.6 19.2-5.9s11.4-10.1 16.4-16.1a44 44 0 0 0 6.6-9.4 23.78 23.78 0 0 0 1.3-16.8 28 28 0 0 0-8-12.1zm-661.1 223.5a22.3 22.3 0 0 0-8.6-5.5c-10.3-3.1-23.6 5.5-31.2 17.2a69.85 69.85 0 0 0-10.6 31.6c-.6 9.5 6.9 15.6 14.9 17 6.1 1.1 13.1-1.6 19.2-5.9s11.4-10.1 16.4-16.1a44 44 0 0 0 6.6-9.4 23.78 23.78 0 0 0 1.3-16.8 28 28 0 0 0-8-12.1zm-133.2-95.1a23.79 23.79 0 0 0-5-8.9c-7.6-7.6-23.4-6.2-35.6.5a70.86 70.86 0 0 0-24.3 22.9c-5 8-1.3 17 5.1 22 4.8 3.8 12.3 4.7 19.7 3.8s14.8-3.6 22.1-6.5a45.29 45.29 0 0 0 10.3-5.2 23.72 23.72 0 0 0 9.1-14.2 29.63 29.63 0 0 0-1.4-14.4zm353.5-115.9l-3.5-9.9c-9.7-28-40.5-42.3-68.8-32.1a3.66 3.66 0 0 0-2.2 4.7l3.4 9.9c9.7 28 40.5 42.3 68.8 32.1a3.73 3.73 0 0 0 2.3-4.7zm223-31.6l-11.8 1.6c-33.1 4.5-55.8 35.3-50.8 68.8a4.18 4.18 0 0 0 4.69 3.6l11.8-1.6c33.1-4.5 55.8-35.3 50.8-68.8a4.18 4.18 0 0 0-4.69-3.6zm-450.3 65.5c-7.2-5.8-16.4-3.3-22 2.3-4.3 4.3-6.1 11.4-6.1 18.7s1.7 14.8 3.6 22.2a43.43 43.43 0 0 0 3.8 10.6 23.12 23.12 0 0 0 12.7 10.5 26.72 26.72 0 0 0 14.3.4 20.77 20.77 0 0 0 9.2-3.8c8.3-6.5 8.9-22.1 3.8-34.7a69.06 69.06 0 0 0-19.3-26.2zm804.1-824.5l-11.8-1.5c-33.1-4.4-63.1 19.3-67.1 53a4.18 4.18 0 0 0 3.59 4.7l11.8 1.6c33.1 4.4 63.1-19.3 67.1-53a4.21 4.21 0 0 0-3.56-4.79zm-208.9 983.7c12.5 9.4 24.5 14.2 40.6 1.1 12.9-10.5 19.3-25.4 18-38.1a8.23 8.23 0 0 0-4.5-6.3 2.62 2.62 0 0 1-.6-.5.83.83 0 0 1-.3-.6 8.26 8.26 0 0 0-5.3-5.6c-12.2-3.9-28-.5-40.9 10-16.1 13.1-13.7 25.9-7 40zm-106.8-75.2c5.6 1.1 12-1.4 17.6-5.4s10.4-9.3 15.1-14.8a43.53 43.53 0 0 0 6.1-8.6 21.58 21.58 0 0 0 1.2-15.4 25.66 25.66 0 0 0-7.4-11.2 19.41 19.41 0 0 0-7.9-5c-9.4-2.9-21.7 5.1-28.6 15.7a65.41 65.41 0 0 0-9.8 29.1c-.5 8.6 6.4 14.3 13.7 15.6zm-94.5 48.2c-12.1 8.6-16.3 23.3-5.4 38.7 14.9 21 36.2 35.1 56.9 39a4 4 0 0 0 4.8-3c0-.1.1-.3.1-.4 3.2-20.7-3.1-45.5-18.1-66.5-11-15.6-26.3-16.4-38.3-7.8zm-230-75.8l-11.8-1.5c-33.1-4.4-63.1 19.3-67.1 53a4.18 4.18 0 0 0 3.59 4.7l11.8 1.6c33.1 4.4 63.1-19.3 67.1-53a4.21 4.21 0 0 0-3.56-4.79zm382.7-1012a4.09 4.09 0 0 0-5.6-.8h-.1l-9.1 7c-25.6 19.6-29.9 56.3-9.7 82a4.12 4.12 0 0 0 5.7.8l9.1-7c25.6-19.6 29.9-56.3 9.7-82zm-50.4 427.6c-7.6-41.4-27.6-72-55.6-93.3h.1c-45.1-38.8-119.1-44.6-119.1-86 0-30.9 30.1-83.7 17.1-119.9-17.8-49.5-99.2-53.5-118.2-1.3-13.1 36.1 13.8 76.5 12.6 107.4-1.6 41.3-64.3 63.6-113.2 92.5h.2c-21.7 12.9-42.7 35.9-48.6 79.3-11.9 86.7-40.3 213-11.3 306.3s164.7 105.5 209.4 106.7c45.6 1.3 211.9-17.5 229.8-128.4 16.5-103.5 10.3-189.9-3.2-263.3zM1348 534.9c-16.3 0-29.5-14.7-29.5-32.9s13.2-32.9 29.5-32.9 29.5 14.7 29.5 32.9-13.2 32.9-29.5 32.9z" fill="#de7c00"/></svg>