<svg data-name="Layer 1" xmlns="http://www.w3.org/2000/svg" width="1800" height="1600" viewBox="0 0 1800 1600"><path d="M1345.5 451.2h-.2a29.56 29.56 0 0 0-1.4 59.1h.2a29.56 29.56 0 0 0 1.4-59.1z" fill="none"/><path d="M1029 395.6c9.6 27.7 40.2 42 68.2 31.9a3.66 3.66 0 0 0 2.2-4.7l-3.4-9.9c-9.6-27.7-40.2-42-68.2-31.9a3.66 3.66 0 0 0-2.2 4.7zm206.7-189c5.6 26.3 31.8 42.8 58.4 36.8a3.4 3.4 0 0 0 2.6-4l-2-9.4c-5.6-26.3-31.8-42.8-58.4-36.8a3.4 3.4 0 0 0-2.6 4zm246.9 356.1l10.4 1.4c29.1 3.9 55.6-17 59.1-46.6a3.63 3.63 0 0 0-3.1-4.09h-.1l-10.4-1.4c-29.1-3.9-55.6 17-59.1 46.6a3.62 3.62 0 0 0 3.08 4.09zm-74.6-171c12.4 9.3 24.4 14.1 40.3 1.1 12.8-10.4 19.2-25.1 17.8-37.8a8.37 8.37 0 0 0-4.5-6.3 2.62 2.62 0 0 1-.6-.5.83.83 0 0 1-.3-.6 8.3 8.3 0 0 0-5.2-5.6c-12.1-3.9-27.8-.5-40.5 9.9-16 13.1-13.6 25.9-7 39.8zM1182.9 520c12.3-3.5 20.4-12.8 16.7-25.5-5-17.3-17.3-31.1-32.3-37.7a4.06 4.06 0 0 0-5 1.4 58.61 58.61 0 0 0-7.2 49.1c3.7 12.7 15.5 16.2 27.8 12.7zm-426.6 929.6c12.3-3.5 20.4-12.8 16.7-25.5-5-17.3-17.3-31.1-32.3-37.7a4.06 4.06 0 0 0-5 1.4 58.61 58.61 0 0 0-7.2 49.1c3.7 12.8 15.5 16.3 27.8 12.7zm502.9-1068.4l7.9 1.1a40.32 40.32 0 0 0 45.1-34.89c0-.2.1-.5.1-.7a3 3 0 0 0-2.4-3.2v-.1l-7.9-1a40.32 40.32 0 0 0-45.1 34.89c0 .2-.1.5-.1.7a2.85 2.85 0 0 0 2.4 3.2zm-421.5-86.6l7.9 1.1a40.32 40.32 0 0 0 45.1-34.89c0-.2.1-.5.1-.7a3 3 0 0 0-2.4-3.2v-.1l-7.9-1a40.32 40.32 0 0 0-45.1 34.89c0 .2-.1.5-.1.7a2.85 2.85 0 0 0 2.4 3.2zM1560 419.4l11.3 1.5c31.7 4.2 60.5-18.5 64.3-50.7a4 4 0 0 0-3.44-4.49h-.06v.2l-11.3-1.6c-31.7-4.2-60.5 18.5-64.3 50.7a4.09 4.09 0 0 0 3.5 4.39zm-30.3-292.6l11.3 1.5c31.7 4.2 60.5-18.5 64.3-50.7a4 4 0 0 0-3.44-4.49h-.06v.2l-11.3-1.6c-31.7-4.2-60.5 18.5-64.3 50.7a4 4 0 0 0 3.5 4.39zm216.9 480.4c-15.3 8.4-19.1 26.9-12.7 38.6s24 14.5 39.4 6.2 14.3-23.2 7.9-35-19.3-18.2-34.6-9.8zm-727.2-412.8c-3 17.2 9.1 31.7 22.2 34s26.3-9.7 29.4-26.9-9.2-25.7-22.4-28-26.1 3.7-29.2 20.9zm795.2 879.6a4.23 4.23 0 0 0 5.9-.3l7.8-8.8c22-24.7 19.2-62.6-6.2-84.6a4.23 4.23 0 0 0-5.9.3l-7.8 8.8c-21.9 24.7-19.2 62.6 6.2 84.6zm-515.7-934.8a4.23 4.23 0 0 0 5.9-.3l7.8-8.8c22-24.7 19.2-62.6-6.2-84.6a4.23 4.23 0 0 0-5.9.3l-7.8 8.8c-22 24.6-19.2 62.5 6.2 84.6zm449.4 12.4a4.23 4.23 0 0 0 5.9-.3l7.8-8.8c22-24.7 19.2-62.6-6.2-84.6a4.23 4.23 0 0 0-5.9.3l-7.8 8.8c-22 24.7-19.2 62.6 6.2 84.6zm-251.4 1382.6a4.25 4.25 0 0 0 5.4-2.3l4.3-10.9c12.1-30.8-3.5-65.4-35-77.3a4.25 4.25 0 0 0-5.4 2.3l-4.3 10.9c-12.1 30.7 3.6 65.3 35 77.3zm268.9-633.1a2.62 2.62 0 0 1-.6-.5 1.64 1.64 0 0 1-.4-.7 8.77 8.77 0 0 0-5.7-6c-13-4.2-30-.6-43.8 10.7-17.2 14-14.6 27.8-7.4 42.8 13.4 10 26.3 15.2 43.4 1.2 13.8-11.3 20.7-27.1 19.2-40.8a8.5 8.5 0 0 0-4.7-6.7zm-95.2 506.5a1.64 1.64 0 0 1-.7.4 2 2 0 0 1-.8.2 9 9 0 0 0-7.4 3.7c-7.7 11.3-9 28.6-2 45 8.6 20.4 22.5 21.8 39 19.2 13.4-10 22-20.9 13.4-41.3-6.9-16.4-20.2-27.5-33.7-29.9a8.49 8.49 0 0 0-7.8 2.7zm-491.6-52.2a1.64 1.64 0 0 1-.7.4 1.86 1.86 0 0 1-.8.2 9 9 0 0 0-7.4 3.7c-7.7 11.3-9 28.6-2 45 8.6 20.4 22.5 21.8 39 19.2 13.4-10 22-20.9 13.4-41.3-6.9-16.4-20.2-27.5-33.7-29.9a9.27 9.27 0 0 0-7.8 2.7zm551.9-1046.7a4.07 4.07 0 0 0 4.8-3c0-.1.1-.3.1-.4 3.1-20.6-3.1-45.1-17.9-66-10.9-15.3-26-16.1-38-7.6s-16.2 23.1-5.4 38.4c14.8 20.8 35.9 34.8 56.4 38.6zM843.7 171.5a4.07 4.07 0 0 0 4.8-3c0-.1.1-.3.1-.4 3.1-20.6-3.1-45.1-17.9-66-10.9-15.3-26-16.1-38-7.6s-16.2 23.1-5.4 38.4c14.8 20.8 36 34.8 56.4 38.6zm881.2 312.2a3.47 3.47 0 0 0 4.7-.9l5.3-8c15-22.4 8.5-52.6-14.4-67.5a3.47 3.47 0 0 0-4.7.9l-5.3 8c-14.9 22.4-8.5 52.6 14.4 67.5zm-909.8 815.2c-3.1-16.8-14.6-34.3-31.8-46.5-12.6-8.9-24.6-5.5-31.6 4.4s-6.4 22.3 6.2 31.3c17.2 12.3 37.4 17.3 54.3 14.8a3.26 3.26 0 0 0 2.9-3.58v-.42zm831.4-523.7c-9.8 18.6-12.3 39.4-7.5 55.8v.1a3.3 3.3 0 0 0 4 2.3c.1 0 .2-.1.3-.1 16.3-5.3 32-19 41.9-37.7 7.2-13.7 2.2-25.1-8.5-30.7s-23-3.4-30.2 10.3zm-393.1 710.7c-9.8 18.6-12.3 39.4-7.5 55.8v.1a3.3 3.3 0 0 0 4 2.3c.1 0 .2-.1.3-.1 16.3-5.3 32-19 41.9-37.7 7.2-13.7 2.2-25.1-8.5-30.7s-23-3.3-30.2 10.3zm287.8-1190.8c15.3-8.4 14.3-23.2 7.9-35s-19.3-18.1-34.6-9.8c-15.3 8.4-19.1 26.9-12.7 38.6s24.1 14.6 39.4 6.2zm-451.7 46.1l11.7 1.5c32.8 4.3 62.6-19.2 66.6-52.5a4.23 4.23 0 0 0-3.6-4.7l-11.7-1.5c-32.8-4.3-62.6 19.2-66.6 52.6a4.14 4.14 0 0 0 3.6 4.6zm613.8 912.6c-11.1 4.8-17 15.9-10.8 30.1 8.4 19.3 23.1 34.1 39 40.7a3.3 3.3 0 0 0 4.3-1.6c0-.1.1-.2.1-.3 6-16.1 5.1-36.9-3.3-56.2-6.1-14.4-18.2-17.6-29.3-12.7zm93.4-160.6a40.23 40.23 0 0 0-56.54-6.35l-.06.05c-.2.2-.4.3-.6.5a3 3 0 0 0-.5 4l4.9 6.3a40.35 40.35 0 0 0 56.7 6.3c.2-.2.4-.3.6-.5a3 3 0 0 0 .5-4zm-198.4 265.7a40.23 40.23 0 0 0-56.54-6.35h-.06c-.2.2-.4.3-.6.5a3 3 0 0 0-.5 4l4.9 6.3a40.35 40.35 0 0 0 56.7 6.3c.2-.2.4-.3.6-.5a3 3 0 0 0 .5-4zM935 1400.6a40.23 40.23 0 0 0-56.54-6.35h-.06c-.2.2-.4.3-.6.5a3 3 0 0 0-.5 4l4.9 6.3a40.35 40.35 0 0 0 56.7 6.3c.2-.2.4-.3.6-.5a3 3 0 0 0 .5-4zm735-228.8c-18.2-2.4-38 3.7-52.8 17.3-10.9 10-8.5 23.6 1.1 34.1s23 14 33.9 4a66.16 66.16 0 0 0 21.7-51.2 4.49 4.49 0 0 0-3.9-4.2zm198.7-684.6l-11.7-1.5c-32.8-4.3-62.6 19.2-66.6 52.5a4.23 4.23 0 0 0 3.6 4.7l11.7 1.5c32.8 4.3 62.6-19.2 66.6-52.6a4.29 4.29 0 0 0-3.6-4.6zm-191.1 549.2c-.1-.3-.1-.5-.2-.8a2.77 2.77 0 0 0-3.36-2l-7.7 2a40.24 40.24 0 0 0-28.55 49.23v.17c.1.3.1.5.2.8a2.77 2.77 0 0 0 3.36 2l7.7-2a40.33 40.33 0 0 0 28.55-49.4zm-741.1 197.1c-7.2-5.8-16.3-3.2-21.9 2.3-4.3 4.2-6 11.3-6 18.6s1.7 14.7 3.6 22.1a42.71 42.71 0 0 0 3.8 10.5 23.08 23.08 0 0 0 12.6 10.4 26.35 26.35 0 0 0 14.2.4 20.39 20.39 0 0 0 9.1-3.8c8.2-6.4 8.8-21.9 3.8-34.4a68.81 68.81 0 0 0-19.2-26.1zm884.1-75.3a22.4 22.4 0 0 0-8.5-5.4c-10.2-3.1-23.4 5.5-30.9 17a70.67 70.67 0 0 0-10.6 31.5c-.6 9.4 6.8 15.5 14.8 16.9v-.1c6 1.1 13-1.6 19-5.9s11.3-10 16.3-15.9a43.35 43.35 0 0 0 6.6-9.3 23.24 23.24 0 0 0 1.3-16.6 28.92 28.92 0 0 0-8-12.2zm27.2-343.3c-5.6-26.3-31.8-42.8-58.4-36.8a3.4 3.4 0 0 0-2.6 4l2 9.4c5.6 26.3 31.8 42.8 58.4 36.8a3.4 3.4 0 0 0 2.6-4zm-586.4 404.5a4.33 4.33 0 0 0-5.9.3l-7.8 8.8c-22 24.7-19.2 62.6 6.2 84.6a4.33 4.33 0 0 0 5.9-.3l7.8-8.8c21.9-24.7 19.2-62.6-6.2-84.6zm400.4-602.6a25.06 25.06 0 0 0-7.3-11.1 21.39 21.39 0 0 0-7.8-5c-9.4-2.8-21.5 5-28.4 15.6a64.45 64.45 0 0 0-9.7 28.8c-.6 8.6 6.3 14.2 13.6 15.5v.1c5.6 1 11.9-1.5 17.5-5.4s10.3-9.3 15-14.6a38.81 38.81 0 0 0 6-8.6 22.35 22.35 0 0 0 1.1-15.3zm-201-437.7a25.06 25.06 0 0 0-7.3-11.1 21.39 21.39 0 0 0-7.8-5c-9.4-2.8-21.5 5-28.4 15.6a64.45 64.45 0 0 0-9.7 28.8c-.6 8.6 6.3 14.2 13.6 15.5v.1c5.6 1 11.9-1.5 17.5-5.4s10.3-9.3 15-14.6a38.81 38.81 0 0 0 6-8.6 23 23 0 0 0 1.1-15.3zm-372.1 959.1l-11.7-1.5c-32.8-4.3-62.6 19.2-66.6 52.5a4.23 4.23 0 0 0 3.6 4.7l11.7 1.5c32.8 4.3 62.6-19.2 66.6-52.6a4.14 4.14 0 0 0-3.6-4.6zm-56.6 170.9a3.3 3.3 0 0 0-4.1 2.2c0 .1-.1.2-.1.4-3.5 16.8.5 37.3 11.7 55.1 8.2 13.1 20.6 14.5 30.9 8s14.4-18.2 6.2-31.3c-11.2-17.8-28-30.3-44.6-34.4zm486.7-67.5l-11.7 1.6c-32.8 4.5-55.3 35-50.4 68.3a4.18 4.18 0 0 0 4.69 3.6l11.7-1.6c32.8-4.5 55.3-35 50.3-68.3a4 4 0 0 0-4.34-3.63zm-488.1 226.5l-2.9 11.4c-8.2 32 11.6 64.5 44.3 72.4a4.23 4.23 0 0 0 5.1-3l2.9-11.4c8.2-32-11.6-64.5-44.3-72.4a4.25 4.25 0 0 0-5.1 3zm350.3-125.5a22.4 22.4 0 0 0-8.5-5.4c-10.2-3.1-23.4 5.5-30.9 17a69 69 0 0 0-10.5 31.4c-.6 9.4 6.8 15.5 14.8 16.9 6 1.1 13-1.6 19-5.9s11.3-10.1 16.3-15.9a43.35 43.35 0 0 0 6.6-9.3 23.24 23.24 0 0 0 1.3-16.6 30.83 30.83 0 0 0-8.1-12.2z" fill="#00bab3"/><path d="M1571.9 1087.7V712.1c0-44.9-34.7-85.7-79-89.9-9.3-1.2-102-6.9-102.3-52.4-.3-37 13.8-32.8 13.8-86.3 0-33.1-25.3-59.5-59.5-62v-.1h-3.5v.1c-34.3 2.6-59.5 28.9-59.5 62 0 53.4 13.8 49.3 13.8 86.3 0 48.2-92.4 51.1-102.2 52.3-44.4 4.1-79.2 44.9-79.2 89.9v375.6c0 47.7 39.1 86.4 87.4 86.4h282.9c48.2.1 87.3-38.6 87.3-86.3zM1374 481.2a29.56 29.56 0 0 1-29.9 29.1h-.2a29.56 29.56 0 0 1 1.4-59.1h.2a29.27 29.27 0 0 1 28.5 30z" fill="#00bab3"/></svg>